<?xml version="1.0" standalone="no"?>
<!DOCTYPE svg PUBLIC "-//W3C//DTD SVG 1.1//EN" "http://www.w3.org/Graphics/SVG/1.1/DTD/svg11.dtd" >
<svg xmlns="http://www.w3.org/2000/svg" xmlns:xlink="http://www.w3.org/1999/xlink" version="1.1">
<metadata>
Created by FontForge 20170731 at Wed Apr 27 18:19:29 2022
 By Aleksey,,,
Copyright (C) 2017 Tinghao Hu 
</metadata>
<defs>
<font id="SHPinscher-Regular" horiz-adv-x="778" >
  <font-face 
    font-family="SH Pinscher"
    font-weight="400"
    font-stretch="condensed"
    units-per-em="2048"
    panose-1="0 0 5 6 0 0 0 0 0 0"
    ascent="1638"
    descent="-410"
    x-height="901"
    cap-height="1393"
    bbox="-51 -1188 3092 2621"
    underline-thickness="102"
    underline-position="-307"
    unicode-range="U+0020-1F642"
  />
<missing-glyph horiz-adv-x="1146" 
d="M942 1229v-1065h-737v1065h737zM737 1126h-327v-112h71v-133h62v-123h61v123h62v133h71v112zM512 635v123h-72v123h-71v133h-62v-635h62v133h71v123h72zM707 512h71v-133h62v635h-62v-133h-71v-123h-72v-123h72v-123zM410 266h327v113h-71v133h-62v123h-61v-123h-62v-133
h-71v-113z" />
    <glyph glyph-name="f_i.liga" unicode="fi" horiz-adv-x="1208" 
d="M983 164h205v-164h-615v164h246v573h-450v-737h-164v737h-164v164h164v410h82v82h389v-164h-307v-328h614v-737zM983 1311v-205h-205v205h205z" />
    <glyph glyph-name="f_j.liga" unicode="fj" horiz-adv-x="1085" 
d="M369 901h594v-1229h-164v-82h-164v82h-164v205h164v-123h164v983h-430v-737h-164v737h-164v164h164v410h82v82h368v-164h-286v-328zM758 1311h205v-205h-205v205z" />
    <glyph glyph-name="f_t.liga" unicode="ft" horiz-adv-x="1167" 
d="M1106 737h-205v-573h164v-164h-246v82h-82v655h-368v-737h-164v737h-164v164h164v410h82v82h409v-164h-327v-328h368v246h164v-246h205v-164z" />
    <glyph glyph-name="f_f.liga" unicode="ff" horiz-adv-x="1269" 
d="M942 901h287v-164h-287v-737h-164v737h-409v-737h-164v737h-164v164h164v410h82v82h491v-82h82v82h328v-164h-246v-328zM778 901v328h-409v-328h409z" />
    <glyph glyph-name="f_f_i.liga" unicode="ffi" horiz-adv-x="1781" 
d="M1556 164h205v-164h-614v164h246v573h-451v-737h-164v737h-409v-737h-164v737h-164v164h164v410h82v82h491v-82h82v82h389v-164h-307v-328h614v-737zM1556 1311v-205h-204v205h204zM778 901v328h-409v-328h409z" />
    <glyph glyph-name="f_f_j.liga" unicode="ffj" horiz-adv-x="1679" 
d="M942 901h614v-1229h-163v-82h-164v82h-164v205h164v-123h164v983h-451v-737h-164v737h-409v-737h-164v737h-164v164h164v410h82v82h491v-82h82v82h389v-164h-307v-328zM1352 1311h204v-205h-204v205zM778 901v328h-409v-328h409z" />
    <glyph glyph-name="f_f_t.liga" unicode="fft" horiz-adv-x="1740" 
d="M1679 737h-204v-573h163v-164h-245v82h-82v655h-369v-737h-164v737h-409v-737h-164v737h-164v164h164v410h82v82h491v-82h82v82h410v-164h-328v-328h369v246h164v-246h204v-164zM778 901v328h-409v-328h409z" />
    <glyph glyph-name="r_i.liga" unicode="ri" horiz-adv-x="1177" 
d="M952 1311v-205h-204v205h204zM952 164h205v-164h-614v164h245v573h-409v-123h-82v-614h-164v901h164v-123h82v123h573v-737z" />
    <glyph glyph-name="r_j.liga" unicode="rj" horiz-adv-x="1075" 
d="M911 1311v-205h-204v205h204zM952 901v-1311h-164v-82h-163v82h-164v246h164v-164h163v1065h-409v-123h-82v-614h-164v901h164v-123h82v123h573z" />
    <glyph glyph-name="r_t.liga" unicode="rt" horiz-adv-x="1198" 
d="M1137 737h-246v-573h205v-164h-287v82h-82v573h-82v82h-266v-82h-82v-655h-164v901h164v-82h82v82h266v-82h82v328h164v-246h246v-164z" />
    <glyph glyph-name="r_f.liga" unicode="rf" horiz-adv-x="1218" 
d="M891 901h287v-164h-287v-737h-164v655h-82v82h-266v-82h-82v-655h-164v901h164v-82h82v82h266v-82h82v492h82v82h328v-164h-246v-328z" />
    <glyph glyph-name="r_f_i.liga" unicode="rfi" horiz-adv-x="1730" 
d="M1505 164h205v-164h-614v164h245v573h-450v-737h-164v655h-82v82h-266v-82h-82v-655h-164v901h164v-82h82v82h266v-82h82v492h82v82h389v-164h-307v-328h614v-737zM1505 1311v-205h-205v205h205z" />
    <glyph glyph-name="r_f_j.liga" unicode="rfj" horiz-adv-x="1607" 
d="M891 901h594v-1229h-164v-82h-164v82h-164v205h164v-123h164v983h-430v-737h-164v655h-82v82h-266v-82h-82v-655h-164v901h164v-82h82v82h266v-82h82v492h82v82h369v-164h-287v-328zM1280 1311h205v-205h-205v205z" />
    <glyph glyph-name="r_f_t.liga" unicode="rft" horiz-adv-x="1689" 
d="M1628 737h-205v-573h164v-164h-246v82h-81v655h-369v-737h-164v655h-82v82h-266v-82h-82v-655h-164v901h164v-82h82v82h266v-82h82v492h82v82h410v-164h-328v-328h369v246h163v-246h205v-164z" />
    <glyph glyph-name="r_f_f.liga" unicode="rff" horiz-adv-x="1792" 
d="M1464 901h287v-164h-287v-737h-164v737h-409v-737h-164v655h-82v82h-266v-82h-82v-655h-164v901h164v-82h82v82h266v-82h82v492h82v82h491v-82h82v82h328v-164h-246v-328zM1300 901v328h-409v-328h409z" />
    <glyph glyph-name="r_f_f_i.liga" unicode="rffi" horiz-adv-x="2304" 
d="M2079 164h205v-164h-615v164h246v573h-451v-737h-164v737h-409v-737h-164v655h-82v82h-266v-82h-82v-655h-164v901h164v-82h82v82h266v-82h82v492h82v82h491v-82h82v82h390v-164h-308v-328h615v-737zM2079 1311v-205h-205v205h205zM1300 901v328h-409v-328h409z" />
    <glyph glyph-name="r_f_f_j.liga" unicode="rffj" horiz-adv-x="2201" 
d="M1464 901h615v-1229h-164v-82h-164v82h-164v205h164v-123h164v983h-451v-737h-164v737h-409v-737h-164v655h-82v82h-266v-82h-82v-655h-164v901h164v-82h82v82h266v-82h82v492h82v82h491v-82h82v82h390v-164h-308v-328zM1874 1311h205v-205h-205v205zM1300 901v328h-409
v-328h409z" />
    <glyph glyph-name="r_f_f_t.liga" unicode="rfft" horiz-adv-x="2263" 
d="M2202 737h-205v-573h164v-164h-246v82h-82v655h-369v-737h-164v737h-409v-737h-164v655h-82v82h-266v-82h-82v-655h-164v901h164v-82h82v82h266v-82h82v492h82v82h491v-82h82v82h410v-164h-328v-328h369v246h164v-246h205v-164zM1300 901v328h-409v-328h409z" />
    <glyph glyph-name="braceleft_braceleft.liga" unicode="&#x7b;&#x7b;" horiz-adv-x="1863" 
d="M1055 819h-215v-205h215v-163h205v-697h122v-409h123v-328h123v-205h-205v205h-123v328h-122v409h-123v574h-215v164h-205v143h-184v164h184v143h205v164h215v573h123v410h122v328h123v204h205v-204h-123v-328h-123v-410h-122v-696h-205v-164z" />
    <glyph glyph-name="parenleft_parenleft.liga" unicode="&#x28;&#x28;" horiz-adv-x="1300" 
d="M778 1679h-123v-1925h123v-409h123v-328h123v-205h-205v205h-123v328h-123v409h-122v1925h122v410h123v328h123v204h205v-204h-123v-328h-123v-410z" />
    <glyph glyph-name="parenright_parenright.liga" unicode="&#x29;&#x29;" horiz-adv-x="1300" 
d="M727 1679h123v-1925h-123v-409h-123v-328h-123v-205h-205v205h123v328h123v409h123v1925h-123v410h-123v328h-123v204h205v-204h123v-328h123v-410z" />
    <glyph glyph-name="braceright_braceright.liga" unicode="&#x7d;&#x7d;" horiz-adv-x="1863" 
d="M1229 799h184v-164h-184v-143h-205v-164h-215v-574h-123v-409h-123v-328h-123v-205h-204v205h122v328h123v409h123v697h205v163h215v205h-215v164h-205v696h-123v410h-123v328h-122v204h204v-204h123v-328h123v-410h123v-573h215v-164h205v-143z" />
    <glyph glyph-name=".notdef" horiz-adv-x="1146" 
d="M942 1229v-1065h-737v1065h737zM737 1126h-327v-112h71v-133h62v-123h61v123h62v133h71v112zM512 635v123h-72v123h-71v133h-62v-635h62v133h71v123h72zM707 512h71v-133h62v635h-62v-133h-71v-123h-72v-123h72v-123zM410 266h327v113h-71v133h-62v123h-61v-123h-62v-133
h-71v-113z" />
    <glyph glyph-name=".null" horiz-adv-x="0" 
 />
    <glyph glyph-name="nonmarkingreturn" horiz-adv-x="682" 
 />
    <glyph glyph-name="space" unicode=" " horiz-adv-x="716" 
 />
    <glyph glyph-name="exclam" unicode="!" horiz-adv-x="471" 
d="M154 348v1045h163v-1045h-163zM133 0v205h205v-205h-205z" />
    <glyph glyph-name="quotedbl" unicode="&#x22;" horiz-adv-x="532" 
d="M82 1065v328h143v-328h-143zM307 1065v328h144v-328h-144z" />
    <glyph glyph-name="numbersign" unicode="#" horiz-adv-x="1167" 
d="M1075 737h-246v-286h164v-164h-245v-287h-164v287h-164v-287h-164v287h-164v164h246v286h-164v164h246v287h164v-287h164v287h163v-287h164v-164zM666 451v286h-164v-286h164z" />
    <glyph glyph-name="dollar" unicode="$" horiz-adv-x="901" 
d="M778 1024h-164v205h-92v-451h92v-82h164v-614h-164v-82h-92v-164h-143v164h-92v82h-164v287h164v-205h92v450h-92v82h-164v615h164v82h92v163h143v-163h92v-82h164v-287zM379 778v451h-92v-451h92zM614 614h-92v-450h92v450z" />
    <glyph glyph-name="percent" unicode="%" horiz-adv-x="1433" 
d="M1126 1393h164v-164h-164v-164h-163v164h-328v-246h-82v-164h-246v82h-164v328h82v164h246v-82h655v82zM307 983h164v246h-164v-246zM799 819v246h164v-246h-164zM635 573v246h164v-246h-164zM471 328v245h164v-245h-164zM1126 573v-81h164v-328h-82v-164h-245v82h-164
v328h82v163h245zM1126 164v246h-163v-246h163zM307 164v164h164v-164h-164zM143 0v164h164v-164h-164z" />
    <glyph glyph-name="ampersand" unicode="&#x26;" horiz-adv-x="972" 
d="M911 655h-163v-491h163v-164h-327v82h-82v-82h-205v82h-164v573h82v123h-82v533h164v82h328v-82h82v-164h-164v82h-246v-410h287v164h164v-164h163v-164zM584 246v409h-287v-491h205v82h82z" />
    <glyph glyph-name="quotesingle" unicode="'" horiz-adv-x="307" 
d="M82 1065v328h143v-328h-143z" />
    <glyph glyph-name="parenleft" unicode="(" horiz-adv-x="849" 
d="M410 819h-82v-573h82v-246h163v-164h164v-164h-164v82h-163v164h-164v328h-82v573h82v328h164v164h163v82h164v-164h-164v-164h-163v-246z" />
    <glyph glyph-name="parenright" unicode=")" horiz-adv-x="849" 
d="M604 819h82v-573h-82v-328h-164v-164h-164v-82h-163v164h163v164h164v246h82v573h-82v246h-164v164h-163v164h163v-82h164v-164h164v-328z" />
    <glyph glyph-name="asterisk" unicode="*" horiz-adv-x="737" 
d="M123 1475h164v-164h-164v164zM614 1475v-164h-163v164h163zM696 1106h-245v-82h-164v82h-246v123h246v82h164v-82h245v-123zM123 860v164h164v-164h-164zM614 860h-163v164h163v-164z" />
    <glyph glyph-name="plus" unicode="+" horiz-adv-x="860" 
d="M717 573v-163h-205v-205h-164v205h-205v163h205v205h164v-205h205z" />
    <glyph glyph-name="comma" unicode="," horiz-adv-x="491" 
d="M143 205h205v-287h-41v-82h-82v82h41v82h-123v205z" />
    <glyph glyph-name="hyphen" unicode="-" horiz-adv-x="655" 
d="M123 451v163h409v-163h-409z" />
    <glyph glyph-name="period" unicode="." horiz-adv-x="512" 
d="M154 0v205h204v-205h-204z" />
    <glyph glyph-name="slash" unicode="/" horiz-adv-x="757" 
d="M502 1393h164v-164h-82v-246h-82v-246h-82v-245h-82v-246h-82v-246h-164v246h82v246h82v245h82v246h82v246h82v164z" />
    <glyph glyph-name="zero" unicode="0" horiz-adv-x="839" 
d="M543 1311h164v-1229h-164v-82h-246v82h-164v1229h164v82h246v-82zM543 614v615h-246v-287h82v-164h-82v-614h246v287h-82v163h82zM379 778h82v-164h-82v164z" />
    <glyph glyph-name="one" unicode="1" horiz-adv-x="614" 
d="M410 164h143v-164h-471v164h164v901h-164v164h164v164h164v-1229z" />
    <glyph glyph-name="two" unicode="2" horiz-adv-x="798" 
d="M676 1311v-492h-164v410h-246v-205h-164v287h164v82h246v-82h164zM348 164h369v-164h-615v164h82v205h82v245h82v205h164v-205h-82v-245h-82v-205z" />
    <glyph glyph-name="three" unicode="3" horiz-adv-x="798" 
d="M666 778h-123v-82h123v-614h-164v-82h-246v82h-164v328h164v-246h246v491h-246v164h246v410h-246v-205h-164v287h164v82h246v-82h164v-533z" />
    <glyph glyph-name="four" unicode="4" horiz-adv-x="788" 
d="M768 573v-163h-164v-410h-164v410h-327v901h163v-738h164v820h164v-820h164z" />
    <glyph glyph-name="five" unicode="5" horiz-adv-x="808" 
d="M696 1229h-409v-369h327v-82h82v-696h-164v-82h-245v82h-164v328h164v-246h245v532h-245v-41h-164v738h573v-164z" />
    <glyph glyph-name="six" unicode="6" horiz-adv-x="829" 
d="M707 1024h-164v205h-246v-410h328v-82h82v-655h-164v-82h-246v82h-164v1229h164v82h246v-82h164v-287zM543 655h-246v-491h246v491z" />
    <glyph glyph-name="seven" unicode="7" horiz-adv-x="757" 
d="M51 1393h656v-164h-82v-328h-164v-328h-82v-573h-164v573h82v410h164v246h-410v164z" />
    <glyph glyph-name="eight" unicode="8" horiz-adv-x="839" 
d="M707 778h-82v-82h82v-614h-164v-82h-246v82h-164v614h82v82h-82v533h164v82h246v-82h164v-533zM543 1229h-246v-410h246v410zM297 164h246v491h-246v-491z" />
    <glyph glyph-name="nine" unicode="9" horiz-adv-x="819" 
d="M522 1311h164v-1229h-164v-82h-246v82h-163v328h163v-246h246v450h-327v123h-82v574h163v82h246v-82zM522 778v451h-246v-451h246z" />
    <glyph glyph-name="colon" unicode=":" horiz-adv-x="491" 
d="M143 614v205h205v-205h-205zM143 0v205h205v-205h-205z" />
    <glyph glyph-name="semicolon" unicode=";" horiz-adv-x="512" 
d="M164 819h205v-205h-205v205zM164 0v205h205v-287h-41v-82h-82v82h41v82h-123z" />
    <glyph glyph-name="less" unicode="&#x3c;" horiz-adv-x="1024" 
d="M635 696v164h246v-164h-246zM389 532v164h246v-164h-246zM143 369v163h246v-163h-246zM389 205v164h246v-164h-246zM635 41v164h246v-164h-246z" />
    <glyph glyph-name="equal" unicode="=" horiz-adv-x="942" 
d="M143 532v164h656v-164h-656zM143 205v164h656v-164h-656z" />
    <glyph glyph-name="greater" unicode="&#x3e;" horiz-adv-x="1024" 
d="M143 696v164h246v-164h-246zM389 532v164h246v-164h-246zM635 369v163h246v-163h-246zM389 205v164h246v-164h-246zM143 41v164h246v-164h-246z" />
    <glyph glyph-name="question" unicode="?" horiz-adv-x="737" 
d="M430 1311h164v-656h-164v-307h-164v389h164v492h-164v-246h-164v328h164v82h164v-82zM246 0v205h205v-205h-205z" />
    <glyph glyph-name="at" unicode="@" horiz-adv-x="1249" 
d="M1034 1147h82v-901h-246v82h-82v-82h-327v164h-82v573h82v164h327v-164h82v-491h82v573h-82v164h-491v-164h-82v-737h82v-164h655v-164h-655v82h-164v164h-82v901h82v164h164v82h491v-82h164v-164zM543 983v-573h82v82h82v491h-164z" />
    <glyph glyph-name="A" unicode="A" horiz-adv-x="819" 
d="M614 983h82v-983h-164v573h-245v-573h-164v983h82v246h82v164h245v-164h82v-246zM532 737v246h-81v246h-82v-246h-82v-246h245z" />
    <glyph glyph-name="B" unicode="B" horiz-adv-x="849" 
d="M717 778h-82v-82h82v-614h-164v-82h-410v1393h410v-82h164v-533zM307 1229v-410h246v410h-246zM307 164h246v491h-246v-491z" />
    <glyph glyph-name="C" unicode="C" horiz-adv-x="819" 
d="M707 942h-164v287h-246v-1065h246v328h164v-410h-164v-82h-246v82h-164v1229h164v82h246v-82h164v-369z" />
    <glyph glyph-name="D" unicode="D" horiz-adv-x="849" 
d="M553 1311h164v-1229h-164v-82h-410v1393h410v-82zM553 164v1065h-246v-1065h246z" />
    <glyph glyph-name="E" unicode="E" horiz-adv-x="737" 
d="M635 1229h-328v-410h287v-164h-287v-491h328v-164h-492v1393h492v-164z" />
    <glyph glyph-name="F" unicode="F" horiz-adv-x="696" 
d="M635 1229h-328v-410h287v-164h-287v-655h-164v1393h492v-164z" />
    <glyph glyph-name="G" unicode="G" horiz-adv-x="839" 
d="M707 983h-164v246h-246v-1065h246v409h-123v164h287v-655h-164v-82h-246v82h-164v1229h164v82h246v-82h164v-328z" />
    <glyph glyph-name="H" unicode="H" horiz-adv-x="860" 
d="M553 1393h164v-1393h-164v655h-246v-655h-164v1393h164v-574h246v574z" />
    <glyph glyph-name="I" unicode="I" horiz-adv-x="655" 
d="M573 1229h-163v-1065h163v-164h-491v164h164v1065h-164v164h491v-164z" />
    <glyph glyph-name="J" unicode="J" horiz-adv-x="716" 
d="M410 1393h163v-1311h-163v-82h-164v82h-164v328h164v-246h164v1229z" />
    <glyph glyph-name="K" unicode="K" horiz-adv-x="819" 
d="M635 819h-82v-123h82v-327h82v-369h-164v369h-82v286h-164v-655h-164v1393h164v-574h164v287h82v287h164v-287h-82v-287z" />
    <glyph glyph-name="L" unicode="L" horiz-adv-x="706" 
d="M307 164h328v-164h-492v1393h164v-1229z" />
    <glyph glyph-name="M" unicode="M" horiz-adv-x="942" 
d="M635 1393h164v-1393h-164v819h-82v-327h-164v327h-82v-819h-164v1393h164v-246h82v-246h164v246h82v246z" />
    <glyph glyph-name="N" unicode="N" horiz-adv-x="942" 
d="M635 1393h164v-1393h-164v246h-82v246h-164v327h-82v-819h-164v1393h164v-246h82v-246h164v-328h82v820z" />
    <glyph glyph-name="O" unicode="O" horiz-adv-x="839" 
d="M543 1311h164v-1229h-164v-82h-246v82h-164v1229h164v82h246v-82zM543 164v1065h-246v-1065h246z" />
    <glyph glyph-name="P" unicode="P" horiz-adv-x="819" 
d="M553 1311h164v-738h-164v-81h-246v-492h-164v1393h410v-82zM553 655v574h-246v-574h246z" />
    <glyph glyph-name="Q" unicode="Q" horiz-adv-x="870" 
d="M707 246h81v-246h-163v164h-82v164h-164v164h164v737h-246v-1065h246v-164h-246v82h-164v1229h164v82h246v-82h164v-1065z" />
    <glyph glyph-name="R" unicode="R" horiz-adv-x="860" 
d="M717 737h-82v-123h82v-614h-164v614h-246v-614h-164v1393h410v-82h164v-574zM307 778h246v451h-246v-451z" />
    <glyph glyph-name="S" unicode="S" horiz-adv-x="819" 
d="M696 1065h-164v164h-245v-410h286v-82h123v-655h-164v-82h-245v82h-164v287h164v-205h245v491h-286v82h-123v574h164v82h245v-82h164v-246z" />
    <glyph glyph-name="T" unicode="T" horiz-adv-x="737" 
d="M696 1393v-164h-245v-1229h-164v1229h-246v164h655z" />
    <glyph glyph-name="U" unicode="U" horiz-adv-x="860" 
d="M553 1393h164v-1311h-164v-82h-246v82h-164v1311h164v-1229h246v1229z" />
    <glyph glyph-name="V" unicode="V" horiz-adv-x="819" 
d="M532 1393h164v-901h-82v-328h-82v-164h-245v164h-82v328h-82v901h164v-901h82v-328h82v328h81v901z" />
    <glyph glyph-name="W" unicode="W" horiz-adv-x="901" 
d="M778 1393v-983h-82v-410h-164v410h-163v-410h-164v410h-82v983h164v-901h82v409h163v-409h82v901h164z" />
    <glyph glyph-name="X" unicode="X" horiz-adv-x="860" 
d="M676 819h-82v-164h82v-327h82v-328h-174v328h-82v327h-144v-327h-82v-328h-174v328h82v327h82v164h-82v328h-82v246h174v-246h82v-328h144v328h82v246h174v-246h-82v-328z" />
    <glyph glyph-name="Y" unicode="Y" 
d="M553 1393h164v-246h-82v-328h-82v-164h-82v-655h-164v655h-82v164h-82v328h-82v246h164v-246h82v-328h164v328h82v246z" />
    <glyph glyph-name="Z" unicode="Z" horiz-adv-x="757" 
d="M317 164h369v-164h-614v164h82v246h82v327h81v246h82v246h-276v164h553v-164h-113v-246h-82v-246h-82v-327h-82v-246z" />
    <glyph glyph-name="bracketleft" unicode="[" horiz-adv-x="665" 
d="M553 1229h-164v-1393h164v-164h-328v1721h328v-164z" />
    <glyph glyph-name="backslash" unicode="\" horiz-adv-x="757" 
d="M584 246h82v-246h-164v246h-82v246h-82v245h-82v246h-82v246h-82v164h164v-164h82v-246h82v-246h82v-245h82v-246z" />
    <glyph glyph-name="bracketright" unicode="]" horiz-adv-x="665" 
d="M440 1393v-1721h-327v164h163v1393h-163v164h327z" />
    <glyph glyph-name="asciicircum" unicode="^" horiz-adv-x="880" 
d="M358 1393h164v-246h-164v246zM195 942v205h163v-205h-82v-205h-163v205h82zM686 942h82v-205h-164v205h-82v205h164v-205z" />
    <glyph glyph-name="underscore" unicode="_" horiz-adv-x="757" 
d="M92 -82v164h574v-164h-574z" />
    <glyph glyph-name="a" unicode="a" 
d="M553 819h123v-819h-164v82h-82v-82h-205v82h-123v410h123v81h205v-41h82v205h-246v-82h-164v164h123v82h328v-82zM430 246h82v123h-82v41h-164v-246h164v82z" />
    <glyph glyph-name="b" unicode="b" horiz-adv-x="808" 
d="M707 819v-737h-82v-82h-246v82h-82v-82h-164v1393h164v-574h82v82h246v-82h82zM297 246h82v-82h164v573h-164v-82h-82v-409z" />
    <glyph glyph-name="c" unicode="c" horiz-adv-x="768" 
d="M676 614h-164v123h-246v-573h246v123h164v-205h-164v-82h-246v82h-164v737h164v82h246v-82h164v-205z" />
    <glyph glyph-name="d" unicode="d" horiz-adv-x="808" 
d="M512 1393h164v-1393h-164v82h-82v-82h-246v82h-82v737h82v82h246v-82h82v574zM512 246v409h-82v82h-164v-573h164v82h82z" />
    <glyph glyph-name="e" unicode="e" 
d="M266 410v-246h246v82h164v-164h-164v-82h-246v82h-164v737h164v82h246v-82h164v-409h-410zM266 737v-164h246v164h-246z" />
    <glyph glyph-name="f" unicode="f" horiz-adv-x="696" 
d="M369 901h286v-164h-286v-737h-164v737h-164v164h164v410h82v82h327v-164h-245v-328z" />
    <glyph glyph-name="g" unicode="g" horiz-adv-x="860" 
d="M522 246h-246v-82h369v-82h82v-492h-164v-82h-327v82h-164v287h164v-205h327v328h-327v82h-123v246h82v82h-82v409h163v82h246v-82h82v82h205v-164h-123v-409h-164v-82zM276 737v-327h246v327h-246z" />
    <glyph glyph-name="h" unicode="h" horiz-adv-x="829" 
d="M625 819h82v-819h-164v737h-164v-82h-82v-655h-164v1393h164v-574h82v82h246v-82z" />
    <glyph glyph-name="i" unicode="i" horiz-adv-x="675" 
d="M451 1311v-205h-205v205h205zM451 164h204v-164h-614v164h246v573h-205v164h369v-737z" />
    <glyph glyph-name="j" unicode="j" horiz-adv-x="563" 
d="M399 1311v-205h-204v205h204zM440 901v-1311h-164v-82h-163v82h-164v246h164v-164h163v1065h-245v164h409z" />
    <glyph glyph-name="k" unicode="k" horiz-adv-x="798" 
d="M625 532h-82v-122h82v-246h82v-164h-164v164h-82v246h-164v-410h-164v1393h164v-820h164v164h82v164h164v-164h-82v-205z" />
    <glyph glyph-name="l" unicode="l" horiz-adv-x="542" 
d="M297 164h164v-164h-246v82h-82v1311h164v-1229z" />
    <glyph glyph-name="m" unicode="m" horiz-adv-x="1075" 
d="M870 819h82v-819h-164v737h-81v-82h-82v-655h-164v737h-82v-82h-82v-655h-164v901h164v-82h82v82h246v-82h82v82h163v-82z" />
    <glyph glyph-name="n" unicode="n" horiz-adv-x="829" 
d="M625 819h82v-819h-164v737h-164v-82h-82v-655h-164v901h164v-82h82v82h246v-82z" />
    <glyph glyph-name="o" unicode="o" 
d="M512 819h164v-737h-164v-82h-246v82h-164v737h164v82h246v-82zM512 164v573h-246v-573h246z" />
    <glyph glyph-name="p" unicode="p" horiz-adv-x="808" 
d="M707 819v-737h-82v-82h-246v82h-82v-574h-164v1393h164v-82h82v82h246v-82h82zM297 246h82v-82h164v573h-164v-82h-82v-409z" />
    <glyph glyph-name="q" unicode="q" horiz-adv-x="808" 
d="M512 901h164v-1393h-164v574h-82v-82h-246v82h-82v737h82v82h246v-82h82v82zM430 246h82v409h-82v82h-164v-573h164v82z" />
    <glyph glyph-name="r" unicode="r" horiz-adv-x="696" 
d="M379 901h287v-164h-287v-123h-82v-614h-164v901h164v-123h82v123z" />
    <glyph glyph-name="s" unicode="s" 
d="M676 655h-164v82h-246v-205h287v-81h123v-369h-164v-82h-246v82h-164v164h164v-82h246v205h-287v82h-123v368h164v82h246v-82h164v-164z" />
    <glyph glyph-name="t" unicode="t" horiz-adv-x="604" 
d="M543 737h-205v-573h164v-164h-246v82h-82v655h-123v164h123v246h164v-246h205v-164z" />
    <glyph glyph-name="u" unicode="u" horiz-adv-x="829" 
d="M532 901h164v-901h-164v82h-81v-82h-246v82h-82v819h164v-737h164v82h81v655z" />
    <glyph glyph-name="v" unicode="v" horiz-adv-x="757" 
d="M502 901h164v-409h-82v-328h-82v-164h-246v164h-82v328h-82v409h164v-409h82v-328h82v328h82v409z" />
    <glyph glyph-name="w" unicode="w" horiz-adv-x="880" 
d="M768 901v-655h-82v-246h-164v246h-164v-246h-163v246h-82v655h163v-573h82v573h164v-573h82v573h164z" />
    <glyph glyph-name="x" unicode="x" 
d="M604 573h-82v-245h82v-164h82v-164h-174v164h-82v164h-82v-164h-82v-164h-174v164h82v164h82v245h-82v164h-82v164h174v-164h82v-164h82v164h82v164h174v-164h-82v-164z" />
    <glyph glyph-name="y" unicode="y" horiz-adv-x="798" 
d="M522 901h164v-491h-82v-287h-82v-287h-82v-246h-123v-82h-204v164h163v205h82v123h-82v164h-81v246h-82v491h163v-491h82v-246h82v246h82v491z" />
    <glyph glyph-name="z" unicode="z" horiz-adv-x="757" 
d="M420 287h-82v-123h328v-164h-574v164h82v123h82v164h82v163h82v123h-328v164h574v-164h-82v-123h-82v-163h-82v-164z" />
    <glyph glyph-name="braceleft" unicode="{" horiz-adv-x="747" 
d="M471 594h-164v-123h164v-635h164v-164h-164v82h-164v635h-164v287h164v635h164v82h164v-164h-164v-635z" />
    <glyph glyph-name="bar" unicode="|" 
d="M307 -584v2059h164v-2059h-164z" />
    <glyph glyph-name="braceright" unicode="}" horiz-adv-x="747" 
d="M440 676h164v-287h-164v-635h-164v-82h-163v164h163v635h164v123h-164v635h-163v164h163v-82h164v-635z" />
    <glyph glyph-name="asciitilde" unicode="~" horiz-adv-x="1024" 
d="M635 655h246v-163h-164v-164h-246v164h-82v-164h-246v164h164v163h246v-163h82v163z" />
    <glyph glyph-name="exclamdown" unicode="&#xa1;" horiz-adv-x="471" 
d="M133 696v205h205v-205h-205zM154 -492v1045h163v-1045h-163z" />
    <glyph glyph-name="cent" unicode="&#xa2;" horiz-adv-x="972" 
d="M881 573h-164v164h-82v-286h-123v-287h205v164h164v-246h-164v-82h-287v-205h-164v287h-164v737h164v82h287v205h164v-287h164v-246zM471 451v286h-205v-573h82v287h123z" />
    <glyph glyph-name="sterling" unicode="&#xa3;" horiz-adv-x="993" 
d="M881 1147h-164v82h-246v-410h328v-164h-328v-409h-82v-82h492v-164h-738v164h82v82h82v409h-164v164h164v492h164v82h328v-82h82v-164z" />
    <glyph glyph-name="currency" unicode="&#xa4;" horiz-adv-x="1146" 
d="M123 901h164v-164h-164v164zM1024 901v-164h-164v164h164zM778 737h82v-82h82v-409h-82v-82h-82v-82h-409v82h-82v82h-82v409h82v82h82v82h409v-82zM696 246v82h82v245h-82v82h-245v-82h-82v-245h82v-82h245zM123 0v164h164v-164h-164zM1024 0h-164v164h164v-164z" />
    <glyph glyph-name="yen" unicode="&#xa5;" horiz-adv-x="942" 
d="M717 778h-82v-123h164v-143h-246v-102h246v-144h-246v-266h-164v266h-246v144h246v102h-246v143h164v123h-82v287h-82v328h164v-328h82v-287h164v287h82v328h164v-328h-82v-287z" />
    <glyph glyph-name="brokenbar" unicode="&#xa6;" 
d="M307 737v738h164v-738h-164zM307 -573v737h164v-737h-164z" />
    <glyph glyph-name="section" unicode="&#xa7;" horiz-adv-x="860" 
d="M717 1024h-164v205h-246v-410h246v-82h164v-491h-164v409h-246v82h-164v574h164v82h246v-82h164v-287zM307 655v-409h246v-82h164v-574h-164v-82h-246v82h-164v287h164v-205h246v410h-246v82h-164v491h164z" />
    <glyph glyph-name="copyright" unicode="&#xa9;" horiz-adv-x="1331" 
d="M1116 1147h82v-901h-82v-164h-246v-82h-409v82h-246v164h-82v901h82v164h246v82h409v-82h246v-164zM870 246h164v901h-164v82h-409v-82h-164v-901h164v-82h409v82zM788 1147v-82h164v-246h-164v164h-245v-573h245v163h164v-245h-164v-82h-245v82h-164v737h164v82h245z
" />
    <glyph glyph-name="ordfeminine" unicode="&#xaa;" horiz-adv-x="665" 
d="M471 1362h72v-502h-113v62h-41v-62h-194v62h-72v245h72v41h194v-30h41v133h-194v-51h-113v102h72v61h276v-61zM430 1014v41h-41v41h-153v-123h153v41h41z" />
    <glyph glyph-name="guillemotleft" unicode="&#xab;" horiz-adv-x="921" 
d="M369 389v-164h82v-164h-164v164h-82v164h-82v123h82v164h82v164h164v-164h-82v-164h-82v-123h82zM696 512h-82v-123h82v-164h82v-164h-164v164h-82v164h-81v123h81v164h82v164h164v-164h-82v-164z" />
    <glyph glyph-name="logicalnot" unicode="&#xac;" horiz-adv-x="860" 
d="M717 737v-327h-164v163h-410v164h574z" />
    <glyph glyph-name="uni00AD" unicode="&#xad;" horiz-adv-x="655" 
d="M123 451v163h409v-163h-409z" />
    <glyph glyph-name="registered" unicode="&#xae;" horiz-adv-x="1310" 
d="M1065 1393h123v-369h-123v-205h-164v-82h-491v82h-164v205h-123v369h123v204h164v82h491v-82h164v-204zM901 1024h123v369h-123v163h-491v-163h-123v-369h123v-164h491v164zM778 1475v-82h82v-205h-82v-82h82v-164h-123v123h-164v-123h-122v533h327zM573 1188h164v164
h-164v-164z" />
    <glyph glyph-name="degree" unicode="&#xb0;" horiz-adv-x="696" 
d="M573 1352v-287h-61v-82h-328v82h-61v287h61v82h328v-82h61zM451 1311h-205v-205h205v205z" />
    <glyph glyph-name="plusminus" unicode="&#xb1;" horiz-adv-x="860" 
d="M512 655h205v-163h-205v-205h-164v205h-205v163h205v205h164v-205zM143 41v164h574v-164h-574z" />
    <glyph glyph-name="uni00B2" unicode="&#xb2;" horiz-adv-x="634" 
d="M276 983h256v-123h-440v123h62v113h122v92h134v123h-205v-92h-113v143h72v61h287v-61h71v-225h-112v-72h-134v-82z" />
    <glyph glyph-name="uni00B3" unicode="&#xb3;" horiz-adv-x="614" 
d="M512 1157h-72v-41h72v-194h-72v-62h-276v62h-72v133h113v-82h194v102h-143v123h143v113h-194v-82h-113v133h72v61h276v-61h72v-205z" />
    <glyph glyph-name="uni00B5" unicode="&#xb5;" horiz-adv-x="839" 
d="M543 901h164v-901h-164v82h-82v-82h-164v-492h-164v1393h164v-737h164v82h82v655z" />
    <glyph glyph-name="paragraph" unicode="&#xb6;" horiz-adv-x="1136" 
d="M993 1393v-164h-123v-1434h-163v1434h-123v-1434h-164v778h-164v123h-164v492h164v123h164v82h573z" />
    <glyph glyph-name="periodcentered" unicode="&#xb7;" horiz-adv-x="450" 
d="M123 358v205h205v-205h-205z" />
    <glyph glyph-name="uni00B9" unicode="&#xb9;" horiz-adv-x="522" 
d="M328 973h123v-113h-379v113h143v225h-133v113h133v112h113v-450z" />
    <glyph glyph-name="ordmasculine" unicode="&#xba;" horiz-adv-x="665" 
d="M543 1362v-451h-72v-51h-276v51h-72v451h72v61h276v-61h72zM430 1311h-194v-338h194v338z" />
    <glyph glyph-name="guillemotright" unicode="&#xbb;" horiz-adv-x="921" 
d="M471 512v-123h-82v-164h-82v-164h-164v164h82v164h82v123h-82v164h-82v164h164v-164h82v-164h82zM717 512h82v-123h-82v-164h-82v-164h-164v164h82v164h82v123h-82v164h-82v164h164v-164h82v-164z" />
    <glyph glyph-name="questiondown" unicode="&#xbf;" horiz-adv-x="604" 
d="M420 901v-205h-205v205h205zM399 0h164v-410h-164v-82h-163v82h-164v656h164v307h163v-389h-163v-492h163v328z" />
    <glyph glyph-name="Agrave" unicode="&#xc0;" horiz-adv-x="819" 
d="M328 1638v123h-164v164h164v-123h164v-123h163v-163h-163v122h-164zM614 983h82v-983h-164v573h-245v-573h-164v983h82v246h82v164h245v-164h82v-246zM532 737v246h-81v246h-82v-246h-82v-246h245z" />
    <glyph glyph-name="Aacute" unicode="&#xc1;" horiz-adv-x="819" 
d="M328 1638v-122h-164v163h164v123h164v123h163v-164h-163v-123h-164zM614 983h82v-983h-164v573h-245v-573h-164v983h82v246h82v164h245v-164h82v-246zM532 737v246h-81v246h-82v-246h-82v-246h245z" />
    <glyph glyph-name="Acircumflex" unicode="&#xc2;" horiz-adv-x="819" 
d="M328 1638v-122h-164v163h164v123h164v-123h163v-163h-163v122h-164zM614 983h82v-983h-164v573h-245v-573h-164v983h82v246h82v164h245v-164h82v-246zM532 737v246h-81v246h-82v-246h-82v-246h245z" />
    <glyph glyph-name="Atilde" unicode="&#xc3;" horiz-adv-x="819" 
d="M287 1597v-81h-123v163h82v82h205v-82h81v82h123v-164h-82v-81h-204v81h-82zM614 983h82v-983h-164v573h-245v-573h-164v983h82v246h82v164h245v-164h82v-246zM532 737v246h-81v246h-82v-246h-82v-246h245z" />
    <glyph glyph-name="Adieresis" unicode="&#xc4;" horiz-adv-x="819" 
d="M328 1679v-163h-164v163h164zM655 1679v-163h-163v163h163zM614 983h82v-983h-164v573h-245v-573h-164v983h82v246h82v164h245v-164h82v-246zM532 737v246h-81v246h-82v-246h-82v-246h245z" />
    <glyph glyph-name="Aring" unicode="&#xc5;" horiz-adv-x="819" 
d="M287 1516v81h-82v164h82v82h245v-82h82v-164h-82v-81h-245zM369 1761v-164h82v164h-82zM614 983h82v-983h-164v573h-245v-573h-164v983h82v246h82v164h245v-164h82v-246zM532 737v246h-81v246h-82v-246h-82v-246h245z" />
    <glyph glyph-name="AE" unicode="&#xc6;" horiz-adv-x="1208" 
d="M1106 1229h-328v-410h287v-164h-287v-491h328v-164h-492v573h-327v-573h-164v737h82v492h82v164h819v-164zM614 737v492h-245v-492h245z" />
    <glyph glyph-name="Ccedilla" unicode="&#xc7;" horiz-adv-x="819" 
d="M707 942h-164v287h-246v-1065h246v328h164v-410h-164v-82h-123v-82h164v-164h-82v-123h-205v123h123v82h-82v164h-41v82h-164v1229h164v82h246v-82h164v-369z" />
    <glyph glyph-name="Egrave" unicode="&#xc8;" horiz-adv-x="737" 
d="M471 1679h164v-163h-164v122h-164v123h-164v164h164v-123h164v-123zM143 1393h492v-164h-328v-410h287v-164h-287v-491h328v-164h-492v1393z" />
    <glyph glyph-name="Eacute" unicode="&#xc9;" horiz-adv-x="737" 
d="M471 1925h164v-164h-164v-123h-164v-122h-164v163h164v123h164v123zM143 1393h492v-164h-328v-410h287v-164h-287v-491h328v-164h-492v1393z" />
    <glyph glyph-name="Ecircumflex" unicode="&#xca;" horiz-adv-x="737" 
d="M471 1679h164v-163h-164v122h-164v-122h-164v163h164v123h164v-123zM143 1393h492v-164h-328v-410h287v-164h-287v-491h328v-164h-492v1393z" />
    <glyph glyph-name="Edieresis" unicode="&#xcb;" horiz-adv-x="737" 
d="M307 1679v-163h-164v163h164zM471 1679h164v-163h-164v163zM143 1393h492v-164h-328v-410h287v-164h-287v-491h328v-164h-492v1393z" />
    <glyph glyph-name="Igrave" unicode="&#xcc;" horiz-adv-x="655" 
d="M410 1679h163v-163h-163v122h-164v123h-164v164h164v-123h164v-123zM573 1393v-164h-163v-1065h163v-164h-491v164h164v1065h-164v164h491z" />
    <glyph glyph-name="Iacute" unicode="&#xcd;" horiz-adv-x="655" 
d="M410 1925h163v-164h-163v-123h-164v-122h-164v163h164v123h164v123zM573 1393v-164h-163v-1065h163v-164h-491v164h164v1065h-164v164h491z" />
    <glyph glyph-name="Icircumflex" unicode="&#xce;" horiz-adv-x="655" 
d="M410 1679h163v-163h-163v122h-164v-122h-164v163h164v123h164v-123zM573 1393v-164h-163v-1065h163v-164h-491v164h164v1065h-164v164h491z" />
    <glyph glyph-name="Idieresis" unicode="&#xcf;" horiz-adv-x="655" 
d="M246 1679v-163h-164v163h164zM410 1679h163v-163h-163v163zM573 1393v-164h-163v-1065h163v-164h-491v164h164v1065h-164v164h491z" />
    <glyph glyph-name="Eth" unicode="&#xd0;" horiz-adv-x="890" 
d="M594 1311h164v-1229h-164v-82h-410v655h-123v123h123v615h410v-82zM594 164v1065h-246v-451h123v-123h-123v-491h246z" />
    <glyph glyph-name="Ntilde" unicode="&#xd1;" horiz-adv-x="942" 
d="M348 1597v-81h-123v163h82v82h205v-82h82v82h123v-164h-82v-81h-205v81h-82zM635 1393h164v-1393h-164v246h-82v246h-164v327h-82v-819h-164v1393h164v-246h82v-246h164v-328h82v820z" />
    <glyph glyph-name="Ograve" unicode="&#xd2;" horiz-adv-x="839" 
d="M338 1638v123h-164v164h164v-123h164v-123h164v-163h-164v122h-164zM543 1311h164v-1229h-164v-82h-246v82h-164v1229h164v82h246v-82zM543 164v1065h-246v-1065h246z" />
    <glyph glyph-name="Oacute" unicode="&#xd3;" horiz-adv-x="839" 
d="M338 1638v-122h-164v163h164v123h164v123h164v-164h-164v-123h-164zM543 1311h164v-1229h-164v-82h-246v82h-164v1229h164v82h246v-82zM543 164v1065h-246v-1065h246z" />
    <glyph glyph-name="Ocircumflex" unicode="&#xd4;" horiz-adv-x="839" 
d="M338 1638v-122h-164v163h164v123h164v-123h164v-163h-164v122h-164zM543 1311h164v-1229h-164v-82h-246v82h-164v1229h164v82h246v-82zM543 164v1065h-246v-1065h246z" />
    <glyph glyph-name="Otilde" unicode="&#xd5;" horiz-adv-x="839" 
d="M297 1597v-81h-123v163h82v82h205v-82h82v82h123v-164h-82v-81h-205v81h-82zM543 1311h164v-1229h-164v-82h-246v82h-164v1229h164v82h246v-82zM543 164v1065h-246v-1065h246z" />
    <glyph glyph-name="Odieresis" unicode="&#xd6;" horiz-adv-x="839" 
d="M338 1679v-163h-164v163h164zM666 1679v-163h-164v163h164zM543 1311h164v-1229h-164v-82h-246v82h-164v1229h164v82h246v-82zM543 164v1065h-246v-1065h246z" />
    <glyph glyph-name="multiply" unicode="&#xd7;" horiz-adv-x="860" 
d="M635 492h-123v-82h123v-82h82v-164h-164v82h-82v123h-82v-123h-82v-82h-164v164h82v82h123v82h-123v81h-82v164h164v-82h82v-123h82v123h82v82h164v-164h-82v-81z" />
    <glyph glyph-name="Oslash" unicode="&#xd8;" horiz-adv-x="921" 
d="M809 1393v-205h-41v-1106h-164v-82h-287v82h-81v-82h-123v205h41v1106h163v82h287v-82h82v82h123zM604 1106v123h-287v-656h82v287h123v246h82zM604 164v655h-82v-287h-123v-245h-82v-123h287z" />
    <glyph glyph-name="Ugrave" unicode="&#xd9;" horiz-adv-x="860" 
d="M348 1638v123h-164v164h164v-123h164v-123h164v-163h-164v122h-164zM553 1393h164v-1311h-164v-82h-246v82h-164v1311h164v-1229h246v1229z" />
    <glyph glyph-name="Uacute" unicode="&#xda;" horiz-adv-x="860" 
d="M348 1638v-122h-164v163h164v123h164v123h164v-164h-164v-123h-164zM553 1393h164v-1311h-164v-82h-246v82h-164v1311h164v-1229h246v1229z" />
    <glyph glyph-name="Ucircumflex" unicode="&#xdb;" horiz-adv-x="860" 
d="M348 1638v-122h-164v163h164v123h164v-123h164v-163h-164v122h-164zM553 1393h164v-1311h-164v-82h-246v82h-164v1311h164v-1229h246v1229z" />
    <glyph glyph-name="Udieresis" unicode="&#xdc;" horiz-adv-x="860" 
d="M348 1679v-163h-164v163h164zM676 1679v-163h-164v163h164zM553 1393h164v-1311h-164v-82h-246v82h-164v1311h164v-1229h246v1229z" />
    <glyph glyph-name="Yacute" unicode="&#xdd;" 
d="M307 1638v-122h-164v163h164v123h164v123h164v-164h-164v-123h-164zM553 1393h164v-246h-82v-328h-82v-164h-82v-655h-164v655h-82v164h-82v328h-82v246h164v-246h82v-328h164v328h82v246z" />
    <glyph glyph-name="Thorn" unicode="&#xde;" horiz-adv-x="819" 
d="M553 1311h164v-738h-164v-81h-246v-492h-164v1597h164v-204h246v-82zM553 655v574h-246v-574h246z" />
    <glyph glyph-name="germandbls" unicode="&#xdf;" horiz-adv-x="911" 
d="M788 696v-614h-81v-82h-246v82h-82v164h164v-82h82v491h-246v164h205v410h-287v-1229h-164v1311h123v82h328v-82h164v-533h-82v-82h122z" />
    <glyph glyph-name="agrave" unicode="&#xe0;" 
d="M307 1147v123h-164v164h164v-123h164v-123h164v-164h-164v123h-164zM553 819h123v-819h-164v82h-82v-82h-205v82h-123v410h123v81h205v-41h82v205h-246v-82h-164v164h123v82h328v-82zM430 246h82v123h-82v41h-164v-246h164v82z" />
    <glyph glyph-name="aacute" unicode="&#xe1;" 
d="M307 1147v-123h-164v164h164v123h164v123h164v-164h-164v-123h-164zM553 819h123v-819h-164v82h-82v-82h-205v82h-123v410h123v81h205v-41h82v205h-246v-82h-164v164h123v82h328v-82zM430 246h82v123h-82v41h-164v-246h164v82z" />
    <glyph glyph-name="acircumflex" unicode="&#xe2;" 
d="M307 1147v-123h-164v164h164v123h164v-123h164v-164h-164v123h-164zM553 819h123v-819h-164v82h-82v-82h-205v82h-123v410h123v81h205v-41h82v205h-246v-82h-164v164h123v82h328v-82zM430 246h82v123h-82v41h-164v-246h164v82z" />
    <glyph glyph-name="atilde" unicode="&#xe3;" 
d="M266 1106v-82h-123v164h82v82h205v-82h82v82h123v-164h-82v-82h-205v82h-82zM553 819h123v-819h-164v82h-82v-82h-205v82h-123v410h123v81h205v-41h82v205h-246v-82h-164v164h123v82h328v-82zM430 246h82v123h-82v41h-164v-246h164v82z" />
    <glyph glyph-name="adieresis" unicode="&#xe4;" 
d="M307 1188v-164h-164v164h164zM635 1188v-164h-164v164h164zM553 819h123v-819h-164v82h-82v-82h-205v82h-123v410h123v81h205v-41h82v205h-246v-82h-164v164h123v82h328v-82zM430 246h82v123h-82v41h-164v-246h164v82z" />
    <glyph glyph-name="aring" unicode="&#xe5;" 
d="M266 1024v82h-82v164h82v82h246v-82h82v-164h-82v-82h-246zM348 1270v-164h82v164h-82zM553 819h123v-819h-164v82h-82v-82h-205v82h-123v410h123v81h205v-41h82v205h-246v-82h-164v164h123v82h328v-82zM430 246h82v123h-82v41h-164v-246h164v82z" />
    <glyph glyph-name="ae" unicode="&#xe6;" horiz-adv-x="1515" 
d="M1004 410v-246h245v82h164v-164h-164v-82h-245v82h-164v287h-164v-287h-164v-82h-246v82h-164v410h164v40h246v205h-246v-82h-164v164h164v82h246v-82h164v-287h164v287h164v82h245v-82h164v-409h-409zM1004 737v-164h245v164h-245zM512 164v205h-246v-205h246z" />
    <glyph glyph-name="ccedilla" unicode="&#xe7;" horiz-adv-x="768" 
d="M676 614h-164v123h-246v-573h246v123h164v-205h-164v-82h-123v-82h164v-164h-82v-123h-205v123h123v82h-82v164h-41v82h-164v737h164v82h246v-82h164v-205z" />
    <glyph glyph-name="egrave" unicode="&#xe8;" 
d="M307 1147v123h-164v164h164v-123h164v-123h164v-164h-164v123h-164zM266 410v-246h246v82h164v-164h-164v-82h-246v82h-164v737h164v82h246v-82h164v-409h-410zM266 737v-164h246v164h-246z" />
    <glyph glyph-name="eacute" unicode="&#xe9;" 
d="M307 1147v-123h-164v164h164v123h164v123h164v-164h-164v-123h-164zM266 410v-246h246v82h164v-164h-164v-82h-246v82h-164v737h164v82h246v-82h164v-409h-410zM266 737v-164h246v164h-246z" />
    <glyph glyph-name="ecircumflex" unicode="&#xea;" 
d="M307 1147v-123h-164v164h164v123h164v-123h164v-164h-164v123h-164zM266 410v-246h246v82h164v-164h-164v-82h-246v82h-164v737h164v82h246v-82h164v-409h-410zM266 737v-164h246v164h-246z" />
    <glyph glyph-name="edieresis" unicode="&#xeb;" 
d="M307 1188v-164h-164v164h164zM635 1188v-164h-164v164h164zM266 410v-246h246v82h164v-164h-164v-82h-246v82h-164v737h164v82h246v-82h164v-409h-410zM266 737v-164h246v164h-246z" />
    <glyph glyph-name="igrave" unicode="&#xec;" horiz-adv-x="675" 
d="M287 1147v123h-164v164h164v-123h164v-123h163v-164h-163v123h-164zM451 164h204v-164h-614v164h246v573h-205v164h369v-737z" />
    <glyph glyph-name="iacute" unicode="&#xed;" horiz-adv-x="675" 
d="M246 1147v-123h-164v164h164v123h164v123h163v-164h-163v-123h-164zM451 164h204v-164h-614v164h246v573h-205v164h369v-737z" />
    <glyph glyph-name="icircumflex" unicode="&#xee;" horiz-adv-x="675" 
d="M246 1147v-123h-164v164h164v123h164v-123h163v-164h-163v123h-164zM451 164h204v-164h-614v164h246v573h-205v164h369v-737z" />
    <glyph glyph-name="idieresis" unicode="&#xef;" horiz-adv-x="675" 
d="M246 1188v-164h-164v164h164zM573 1188v-164h-163v164h163zM451 164h204v-164h-614v164h246v573h-205v164h369v-737z" />
    <glyph glyph-name="eth" unicode="&#xf0;" horiz-adv-x="901" 
d="M696 983h82v-901h-164v-82h-286v82h-164v655h164v82h204v-82h82v246h-82v123h-122v-123h-164v-123h-164v164h164v123h164v82h-164v164h164v-82h163v82h164v-164h-164v-82h123v-164zM614 164v450h-82v41h-204v-491h286z" />
    <glyph glyph-name="ntilde" unicode="&#xf1;" horiz-adv-x="829" 
d="M297 1106v-82h-123v164h82v82h205v-82h82v82h123v-164h-82v-82h-205v82h-82zM625 819h82v-819h-164v737h-164v-82h-82v-655h-164v901h164v-82h82v82h246v-82z" />
    <glyph glyph-name="ograve" unicode="&#xf2;" 
d="M307 1147v123h-164v164h164v-123h164v-123h164v-164h-164v123h-164zM512 819h164v-737h-164v-82h-246v82h-164v737h164v82h246v-82zM512 164v573h-246v-573h246z" />
    <glyph glyph-name="oacute" unicode="&#xf3;" 
d="M307 1147v-123h-164v164h164v123h164v123h164v-164h-164v-123h-164zM512 819h164v-737h-164v-82h-246v82h-164v737h164v82h246v-82zM512 164v573h-246v-573h246z" />
    <glyph glyph-name="ocircumflex" unicode="&#xf4;" 
d="M307 1147v-123h-164v164h164v123h164v-123h164v-164h-164v123h-164zM512 819h164v-737h-164v-82h-246v82h-164v737h164v82h246v-82zM512 164v573h-246v-573h246z" />
    <glyph glyph-name="otilde" unicode="&#xf5;" 
d="M266 1106v-82h-123v164h82v82h205v-82h82v82h123v-164h-82v-82h-205v82h-82zM512 819h164v-737h-164v-82h-246v82h-164v737h164v82h246v-82zM512 164v573h-246v-573h246z" />
    <glyph glyph-name="odieresis" unicode="&#xf6;" 
d="M307 1188v-164h-164v164h164zM635 1188v-164h-164v164h164zM512 819h164v-737h-164v-82h-246v82h-164v737h164v82h246v-82zM512 164v573h-246v-573h246z" />
    <glyph glyph-name="divide" unicode="&#xf7;" horiz-adv-x="860" 
d="M348 614v164h164v-164h-164zM143 369v163h574v-163h-574zM348 123v164h164v-164h-164z" />
    <glyph glyph-name="oslash" unicode="&#xf8;" horiz-adv-x="860" 
d="M778 901v-164h-41v-655h-164v-82h-286v82h-82v-82h-123v164h41v655h164v82h286v-82h82v82h123zM573 655v82h-286v-327h82v122h123v123h81zM573 164v328h-81v-123h-123v-123h-82v-82h286z" />
    <glyph glyph-name="ugrave" unicode="&#xf9;" horiz-adv-x="829" 
d="M328 1147v123h-164v164h164v-123h164v-123h163v-164h-163v123h-164zM532 901h164v-901h-164v82h-81v-82h-246v82h-82v819h164v-737h164v82h81v655z" />
    <glyph glyph-name="uacute" unicode="&#xfa;" horiz-adv-x="829" 
d="M328 1147v-123h-164v164h164v123h164v123h163v-164h-163v-123h-164zM532 901h164v-901h-164v82h-81v-82h-246v82h-82v819h164v-737h164v82h81v655z" />
    <glyph glyph-name="ucircumflex" unicode="&#xfb;" horiz-adv-x="829" 
d="M328 1147v-123h-164v164h164v123h164v-123h163v-164h-163v123h-164zM532 901h164v-901h-164v82h-81v-82h-246v82h-82v819h164v-737h164v82h81v655z" />
    <glyph glyph-name="udieresis" unicode="&#xfc;" horiz-adv-x="829" 
d="M328 1188v-164h-164v164h164zM655 1188v-164h-163v164h163zM532 901h164v-901h-164v82h-81v-82h-246v82h-82v819h164v-737h164v82h81v655z" />
    <glyph glyph-name="yacute" unicode="&#xfd;" horiz-adv-x="798" 
d="M317 1147v-123h-163v164h163v123h164v123h164v-164h-164v-123h-164zM522 901h164v-491h-82v-287h-82v-287h-82v-246h-123v-82h-204v164h163v205h82v123h-82v164h-81v246h-82v491h163v-491h82v-246h82v246h82v491z" />
    <glyph glyph-name="thorn" unicode="&#xfe;" horiz-adv-x="808" 
d="M707 819v-737h-82v-82h-246v82h-82v-574h-164v1557h164v-246h82v82h246v-82h82zM297 246h82v-82h164v573h-164v-82h-82v-409z" />
    <glyph glyph-name="ydieresis" unicode="&#xff;" horiz-adv-x="798" 
d="M317 1188v-164h-163v164h163zM645 1188v-164h-164v164h164zM522 901h164v-491h-82v-287h-82v-287h-82v-246h-123v-82h-204v164h163v205h82v123h-82v164h-81v246h-82v491h163v-491h82v-246h82v246h82v491z" />
    <glyph glyph-name="Amacron" unicode="&#x100;" horiz-adv-x="819" 
d="M655 1679v-163h-491v163h491zM614 983h82v-983h-164v573h-245v-573h-164v983h82v246h82v164h245v-164h82v-246zM532 737v246h-81v246h-82v-246h-82v-246h245z" />
    <glyph glyph-name="amacron" unicode="&#x101;" 
d="M635 1188v-164h-492v164h492zM553 819h123v-819h-164v82h-82v-82h-205v82h-123v410h123v81h205v-41h82v205h-246v-82h-164v164h123v82h328v-82zM430 246h82v123h-82v41h-164v-246h164v82z" />
    <glyph glyph-name="Abreve" unicode="&#x102;" horiz-adv-x="819" 
d="M287 1516v81h-123v205h123v-123h245v123h123v-205h-123v-81h-245zM614 983h82v-983h-164v573h-245v-573h-164v983h82v246h82v164h245v-164h82v-246zM532 737v246h-81v246h-82v-246h-82v-246h245z" />
    <glyph glyph-name="abreve" unicode="&#x103;" 
d="M266 1024v82h-123v205h123v-123h246v123h123v-205h-123v-82h-246zM553 819h123v-819h-164v82h-82v-82h-205v82h-123v410h123v81h205v-41h82v205h-246v-82h-164v164h123v82h328v-82zM430 246h82v123h-82v41h-164v-246h164v82z" />
    <glyph glyph-name="Aogonek" unicode="&#x104;" horiz-adv-x="819" 
d="M614 983h82v-983h-82v-123h-163v-82h163v-164h-163v123h-164v164h164v82h81v573h-245v-573h-164v983h82v246h82v164h245v-164h82v-246zM287 737h245v246h-81v246h-82v-246h-82v-246z" />
    <glyph glyph-name="aogonek" unicode="&#x105;" 
d="M553 819h123v-819h-41v-123h-164v-123h164v-123h-205v123h-123v164h164v82h41v82h-82v-82h-205v82h-123v410h123v81h205v-41h82v205h-246v-82h-164v164h123v82h328v-82zM430 246h82v123h-82v41h-164v-246h164v82z" />
    <glyph glyph-name="Cacute" unicode="&#x106;" horiz-adv-x="819" 
d="M338 1638v-122h-164v163h164v123h164v123h164v-164h-164v-123h-164zM707 942h-164v287h-246v-1065h246v328h164v-410h-164v-82h-246v82h-164v1229h164v82h246v-82h164v-369z" />
    <glyph glyph-name="cacute" unicode="&#x107;" horiz-adv-x="768" 
d="M307 1147v-123h-164v164h164v123h164v123h164v-164h-164v-123h-164zM676 614h-164v123h-246v-573h246v123h164v-205h-164v-82h-246v82h-164v737h164v82h246v-82h164v-205z" />
    <glyph glyph-name="Ccircumflex" unicode="&#x108;" horiz-adv-x="819" 
d="M338 1638v-122h-164v163h164v123h164v-123h164v-163h-164v122h-164zM707 942h-164v287h-246v-1065h246v328h164v-410h-164v-82h-246v82h-164v1229h164v82h246v-82h164v-369z" />
    <glyph glyph-name="ccircumflex" unicode="&#x109;" horiz-adv-x="768" 
d="M307 1147v-123h-164v164h164v123h164v-123h164v-164h-164v123h-164zM676 614h-164v123h-246v-573h246v123h164v-205h-164v-82h-246v82h-164v737h164v82h246v-82h164v-205z" />
    <glyph glyph-name="Cdotaccent" unicode="&#x10a;" horiz-adv-x="819" 
d="M502 1679v-163h-164v163h164zM707 942h-164v287h-246v-1065h246v328h164v-410h-164v-82h-246v82h-164v1229h164v82h246v-82h164v-369z" />
    <glyph glyph-name="cdotaccent" unicode="&#x10b;" horiz-adv-x="768" 
d="M471 1188v-164h-164v164h164zM676 614h-164v123h-246v-573h246v123h164v-205h-164v-82h-246v82h-164v737h164v82h246v-82h164v-205z" />
    <glyph glyph-name="Ccaron" unicode="&#x10c;" horiz-adv-x="819" 
d="M338 1516v122h-164v164h164v-123h164v123h164v-164h-164v-122h-164zM707 942h-164v287h-246v-1065h246v328h164v-410h-164v-82h-246v82h-164v1229h164v82h246v-82h164v-369z" />
    <glyph glyph-name="ccaron" unicode="&#x10d;" horiz-adv-x="768" 
d="M307 1024v123h-164v164h164v-123h164v123h164v-164h-164v-123h-164zM676 614h-164v123h-246v-573h246v123h164v-205h-164v-82h-246v82h-164v737h164v82h246v-82h164v-205z" />
    <glyph glyph-name="Dcaron" unicode="&#x10e;" horiz-adv-x="849" 
d="M348 1516v122h-164v164h164v-123h164v123h164v-164h-164v-122h-164zM553 1311h164v-1229h-164v-82h-410v1393h410v-82zM553 164v1065h-246v-1065h246z" />
    <glyph glyph-name="dcaron" unicode="&#x10f;" horiz-adv-x="808" 
d="M307 1516v122h-164v164h164v-123h164v123h164v-164h-164v-122h-164zM512 1393h164v-1393h-164v82h-82v-82h-246v82h-82v737h82v82h246v-82h82v574zM512 246v409h-82v82h-164v-573h164v82h82z" />
    <glyph glyph-name="Dcroat" unicode="&#x110;" horiz-adv-x="890" 
d="M594 1311h164v-1229h-164v-82h-410v655h-123v123h123v615h410v-82zM594 164v1065h-246v-451h123v-123h-123v-491h246z" />
    <glyph glyph-name="dcroat" unicode="&#x111;" horiz-adv-x="819" 
d="M686 1188h123v-123h-123v-1065h-164v82h-82v-82h-245v82h-82v737h82v82h245v-82h82v246h-450v123h450v205h164v-205zM522 246v409h-82v82h-164v-573h164v82h82z" />
    <glyph glyph-name="Emacron" unicode="&#x112;" horiz-adv-x="737" 
d="M143 1679h492v-163h-492v163zM143 1393h492v-164h-328v-410h287v-164h-287v-491h328v-164h-492v1393z" />
    <glyph glyph-name="emacron" unicode="&#x113;" 
d="M635 1188v-164h-492v164h492zM266 410v-246h246v82h164v-164h-164v-82h-246v82h-164v737h164v82h246v-82h164v-409h-410zM266 737v-164h246v164h-246z" />
    <glyph glyph-name="Ebreve" unicode="&#x114;" horiz-adv-x="737" 
d="M512 1802h123v-205h-123v-81h-246v81h-123v205h123v-123h246v123zM143 1393h492v-164h-328v-410h287v-164h-287v-491h328v-164h-492v1393z" />
    <glyph glyph-name="ebreve" unicode="&#x115;" 
d="M266 1024v82h-123v205h123v-123h246v123h123v-205h-123v-82h-246zM266 410v-246h246v82h164v-164h-164v-82h-246v82h-164v737h164v82h246v-82h164v-409h-410zM266 737v-164h246v164h-246z" />
    <glyph glyph-name="Edotaccent" unicode="&#x116;" horiz-adv-x="737" 
d="M471 1679v-163h-164v163h164zM635 1229h-328v-410h287v-164h-287v-491h328v-164h-492v1393h492v-164z" />
    <glyph glyph-name="edotaccent" unicode="&#x117;" 
d="M471 1188v-164h-164v164h164zM266 410v-246h246v82h164v-164h-164v-82h-246v82h-164v737h164v82h246v-82h164v-409h-410zM266 737v-164h246v164h-246z" />
    <glyph glyph-name="Eogonek" unicode="&#x118;" horiz-adv-x="737" 
d="M635 1229h-328v-410h287v-164h-287v-491h328v-164h-164v-164h-82v-82h123v-123h-205v123h-82v164h164v82h-246v1393h492v-164z" />
    <glyph glyph-name="eogonek" unicode="&#x119;" 
d="M266 410v-246h246v82h164v-164h-164v-82h-41v-164h-82v-82h123v-123h-205v123h-82v164h164v82h-123v82h-164v737h164v82h246v-82h164v-409h-410zM266 737v-164h246v164h-246z" />
    <glyph glyph-name="Ecaron" unicode="&#x11a;" horiz-adv-x="737" 
d="M471 1802h164v-164h-164v-122h-164v122h-164v164h164v-123h164v123zM143 1393h492v-164h-328v-410h287v-164h-287v-491h328v-164h-492v1393z" />
    <glyph glyph-name="ecaron" unicode="&#x11b;" 
d="M307 1024v123h-164v164h164v-123h164v123h164v-164h-164v-123h-164zM266 410v-246h246v82h164v-164h-164v-82h-246v82h-164v737h164v82h246v-82h164v-409h-410zM266 737v-164h246v164h-246z" />
    <glyph glyph-name="Gcircumflex" unicode="&#x11c;" horiz-adv-x="839" 
d="M338 1638v-122h-164v163h164v123h164v-123h164v-163h-164v122h-164zM707 983h-164v246h-246v-1065h246v409h-123v164h287v-655h-164v-82h-246v82h-164v1229h164v82h246v-82h164v-328z" />
    <glyph glyph-name="gcircumflex" unicode="&#x11d;" horiz-adv-x="860" 
d="M317 1147v-123h-163v164h163v123h164v-123h164v-164h-164v123h-164zM522 246h-246v-82h369v-82h82v-492h-164v-82h-327v82h-164v287h164v-205h327v328h-327v82h-123v246h82v82h-82v409h163v82h246v-82h82v82h205v-164h-123v-409h-164v-82zM276 737v-327h246v327h-246z
" />
    <glyph glyph-name="Gbreve" unicode="&#x11e;" horiz-adv-x="839" 
d="M297 1516v81h-123v205h123v-123h246v123h123v-205h-123v-81h-246zM707 983h-164v246h-246v-1065h246v409h-123v164h287v-655h-164v-82h-246v82h-164v1229h164v82h246v-82h164v-328z" />
    <glyph glyph-name="gbreve" unicode="&#x11f;" horiz-adv-x="860" 
d="M276 1024v82h-122v205h122v-123h246v123h123v-205h-123v-82h-246zM522 246h-246v-82h369v-82h82v-492h-164v-82h-327v82h-164v287h164v-205h327v328h-327v82h-123v246h82v82h-82v409h163v82h246v-82h82v82h205v-164h-123v-409h-164v-82zM276 737v-327h246v327h-246z" />
    <glyph glyph-name="Gdotaccent" unicode="&#x120;" horiz-adv-x="839" 
d="M502 1679v-163h-164v163h164zM707 983h-164v246h-246v-1065h246v409h-123v164h287v-655h-164v-82h-246v82h-164v1229h164v82h246v-82h164v-328z" />
    <glyph glyph-name="gdotaccent" unicode="&#x121;" horiz-adv-x="860" 
d="M481 1188v-164h-164v164h164zM522 246h-246v-82h369v-82h82v-492h-164v-82h-327v82h-164v287h164v-205h327v328h-327v82h-123v246h82v82h-82v409h163v82h246v-82h82v82h205v-164h-123v-409h-164v-82zM276 737v-327h246v327h-246z" />
    <glyph glyph-name="Gcommaaccent" unicode="&#x122;" horiz-adv-x="839" 
d="M707 983h-164v246h-246v-1065h246v409h-123v164h287v-655h-164v-82h-246v82h-164v1229h164v82h246v-82h164v-328zM379 -287v164h164v-164h-123v-164h-164v164h123z" />
    <glyph glyph-name="gcommaaccent" unicode="&#x123;" horiz-adv-x="860" 
d="M317 1147v-123h-163v164h163v123h164v123h164v-164h-164v-123h-164zM522 246h-246v-82h369v-82h82v-492h-164v-82h-327v82h-164v287h164v-205h327v328h-327v82h-123v246h82v82h-82v409h163v82h246v-82h82v82h205v-164h-123v-409h-164v-82zM276 737v-327h246v327h-246z
" />
    <glyph glyph-name="Hcircumflex" unicode="&#x124;" horiz-adv-x="860" 
d="M348 1638v-122h-164v163h164v123h164v-123h164v-163h-164v122h-164zM553 1393h164v-1393h-164v655h-246v-655h-164v1393h164v-574h246v574z" />
    <glyph glyph-name="hcircumflex" unicode="&#x125;" horiz-adv-x="829" 
d="M297 1679v-123h-164v164h164v123h164v-123h164v-164h-164v123h-164zM625 819h82v-819h-164v737h-164v-82h-82v-655h-164v1393h164v-574h82v82h246v-82z" />
    <glyph glyph-name="Hbar" unicode="&#x126;" horiz-adv-x="880" 
d="M809 1147v-123h-82v-1024h-164v655h-246v-655h-163v1024h-82v123h82v246h163v-246h246v246h164v-246h82zM563 819v205h-246v-205h246z" />
    <glyph glyph-name="hbar" unicode="&#x127;" horiz-adv-x="860" 
d="M748 1065h-451v-246h82v82h246v-82h82v-819h-164v737h-164v-82h-82v-655h-164v1065h-123v123h123v205h164v-205h451v-123z" />
    <glyph glyph-name="Itilde" unicode="&#x128;" horiz-adv-x="655" 
d="M451 1761h122v-164h-81v-81h-205v81h-82v-81h-123v163h82v82h205v-82h82v82zM573 1393v-164h-163v-1065h163v-164h-491v164h164v1065h-164v164h491z" />
    <glyph glyph-name="itilde" unicode="&#x129;" horiz-adv-x="675" 
d="M205 1106v-82h-123v164h82v82h205v-82h82v82h122v-164h-81v-82h-205v82h-82zM451 164h204v-164h-614v164h246v573h-205v164h369v-737z" />
    <glyph glyph-name="Imacron" unicode="&#x12a;" horiz-adv-x="655" 
d="M82 1679h491v-163h-491v163zM573 1393v-164h-163v-1065h163v-164h-491v164h164v1065h-164v164h491z" />
    <glyph glyph-name="imacron" unicode="&#x12b;" horiz-adv-x="675" 
d="M573 1188v-164h-491v164h491zM451 164h204v-164h-614v164h246v573h-205v164h369v-737z" />
    <glyph glyph-name="Ibreve" unicode="&#x12c;" horiz-adv-x="655" 
d="M451 1802h122v-205h-122v-81h-246v81h-123v205h123v-123h246v123zM573 1393v-164h-163v-1065h163v-164h-491v164h164v1065h-164v164h491z" />
    <glyph glyph-name="ibreve" unicode="&#x12d;" horiz-adv-x="675" 
d="M205 1024v82h-123v205h123v-123h246v123h122v-205h-122v-82h-246zM451 164h204v-164h-614v164h246v573h-205v164h369v-737z" />
    <glyph glyph-name="Iogonek" unicode="&#x12e;" horiz-adv-x="655" 
d="M573 1229h-163v-1065h163v-164h-122v-123h-164v-82h164v-164h-164v123h-164v164h164v82h-205v164h164v1065h-164v164h491v-164z" />
    <glyph glyph-name="iogonek" unicode="&#x12f;" horiz-adv-x="675" 
d="M451 1311v-205h-205v205h205zM451 -164h-82v-82h123v-123h-205v123h-82v164h123v82h-287v164h246v573h-205v164h369v-737h204v-164h-204v-164z" />
    <glyph glyph-name="Idotaccent" unicode="&#x130;" horiz-adv-x="655" 
d="M410 1679v-163h-164v163h164zM573 1229h-163v-1065h163v-164h-491v164h164v1065h-164v164h491v-164z" />
    <glyph glyph-name="dotlessi" unicode="&#x131;" horiz-adv-x="675" 
d="M451 164h204v-164h-614v164h246v573h-205v164h369v-737z" />
    <glyph glyph-name="Jcircumflex" unicode="&#x134;" horiz-adv-x="716" 
d="M410 1720h163v-164h-163v123h-164v-123h-164v164h164v123h164v-123zM410 164v1229h163v-1311h-163v-82h-164v82h-164v328h164v-246h164z" />
    <glyph glyph-name="jcircumflex" unicode="&#x135;" horiz-adv-x="563" 
d="M317 1188h164v-164h-164v123h-163v-123h-164v164h164v123h163v-123zM31 901h409v-1311h-164v-82h-163v82h-164v246h164v-164h163v1065h-245v164z" />
    <glyph glyph-name="Kcommaaccent" unicode="&#x136;" horiz-adv-x="819" 
d="M635 819h-82v-123h82v-327h82v-369h-164v369h-82v286h-164v-655h-164v1393h164v-574h164v287h82v287h164v-287h-82v-287zM389 -287v164h164v-164h-123v-164h-164v164h123z" />
    <glyph glyph-name="kcommaaccent" unicode="&#x137;" horiz-adv-x="798" 
d="M625 532h-82v-122h82v-246h82v-164h-164v164h-82v246h-164v-410h-164v1393h164v-820h164v164h82v164h164v-164h-82v-205zM379 -287v164h164v-164h-123v-164h-164v164h123z" />
    <glyph glyph-name="kgreenlandic" unicode="&#x138;" horiz-adv-x="798" 
d="M625 532h-82v-122h82v-246h82v-164h-164v164h-82v246h-164v-410h-164v901h164v-328h164v164h82v164h164v-164h-82v-205z" />
    <glyph glyph-name="Lacute" unicode="&#x139;" horiz-adv-x="706" 
d="M471 1925h164v-164h-164v-123h-164v-122h-164v163h164v123h164v123zM307 1393v-1229h328v-164h-492v1393h164z" />
    <glyph glyph-name="lacute" unicode="&#x13a;" horiz-adv-x="542" 
d="M379 1925h164v-164h-164v-123h-164v-122h-164v163h164v123h164v123zM297 1393v-1229h164v-164h-246v82h-82v1311h164z" />
    <glyph glyph-name="Lcommaaccent" unicode="&#x13b;" horiz-adv-x="706" 
d="M307 164h328v-164h-492v1393h164v-1229zM348 -287v164h164v-164h-123v-164h-164v164h123z" />
    <glyph glyph-name="lcommaaccent" unicode="&#x13c;" horiz-adv-x="522" 
d="M297 164h164v-164h-246v82h-82v1311h164v-1229zM256 -287v164h164v-164h-123v-164h-164v164h123z" />
    <glyph glyph-name="Lcaron" unicode="&#x13d;" horiz-adv-x="706" 
d="M471 1802h164v-164h-164v-122h-164v122h-164v164h164v-123h164v123zM307 1393v-1229h328v-164h-492v1393h164z" />
    <glyph glyph-name="lcaron" unicode="&#x13e;" horiz-adv-x="665" 
d="M297 1393v-1229h164v-164h-246v82h-82v1311h164zM420 1393h164v-410h-164v410z" />
    <glyph glyph-name="Ldot" unicode="&#x13f;" horiz-adv-x="706" 
d="M307 164h328v-164h-492v1393h164v-1229zM573 819v-164h-163v164h163z" />
    <glyph glyph-name="ldot" unicode="&#x140;" horiz-adv-x="634" 
d="M297 1393v-1229h164v-164h-246v82h-82v1311h164zM420 778h164v-164h-164v164z" />
    <glyph glyph-name="Lslash" unicode="&#x141;" horiz-adv-x="798" 
d="M471 614h-82v-450h328v-164h-492v451h-41v-82h-123v123h82v81h82v820h164v-656h41v82h82v82h82v82h123v-123h-82v-82h-82v-82h-82v-82z" />
    <glyph glyph-name="lslash" unicode="&#x142;" horiz-adv-x="686" 
d="M635 901v-123h-82v-82h-82v-82h-82v-450h164v-164h-246v82h-82v369h-41v-82h-123v123h82v81h82v820h164v-656h41v82h82v82h123z" />
    <glyph glyph-name="Nacute" unicode="&#x143;" horiz-adv-x="942" 
d="M389 1638v-122h-164v163h164v123h164v123h164v-164h-164v-123h-164zM635 1393h164v-1393h-164v246h-82v246h-164v327h-82v-819h-164v1393h164v-246h82v-246h164v-328h82v820z" />
    <glyph glyph-name="nacute" unicode="&#x144;" horiz-adv-x="829" 
d="M338 1147v-123h-164v164h164v123h164v123h164v-164h-164v-123h-164zM625 819h82v-819h-164v737h-164v-82h-82v-655h-164v901h164v-82h82v82h246v-82z" />
    <glyph glyph-name="Ncommaaccent" unicode="&#x145;" horiz-adv-x="942" 
d="M635 1393h164v-1393h-164v246h-82v246h-164v327h-82v-819h-164v1393h164v-246h82v-246h164v-328h82v820zM430 -287v164h164v-164h-123v-164h-164v164h123z" />
    <glyph glyph-name="ncommaaccent" unicode="&#x146;" horiz-adv-x="829" 
d="M625 819h82v-819h-164v737h-164v-82h-82v-655h-164v901h164v-82h82v82h246v-82zM379 -287v164h164v-164h-123v-164h-164v164h123z" />
    <glyph glyph-name="Ncaron" unicode="&#x147;" horiz-adv-x="942" 
d="M389 1516v122h-164v164h164v-123h164v123h164v-164h-164v-122h-164zM635 1393h164v-1393h-164v246h-82v246h-164v327h-82v-819h-164v1393h164v-246h82v-246h164v-328h82v820z" />
    <glyph glyph-name="ncaron" unicode="&#x148;" horiz-adv-x="829" 
d="M338 1024v123h-164v164h164v-123h164v123h164v-164h-164v-123h-164zM625 819h82v-819h-164v737h-164v-82h-82v-655h-164v901h164v-82h82v82h246v-82z" />
    <glyph glyph-name="Eng" unicode="&#x14a;" horiz-adv-x="942" 
d="M635 1393h164v-1557h-82v-82h-205v123h123v369h-82v246h-164v327h-82v-819h-164v1393h164v-246h82v-246h164v-328h82v820z" />
    <glyph glyph-name="eng" unicode="&#x14b;" horiz-adv-x="829" 
d="M625 819h82v-983h-82v-82h-205v123h123v860h-164v-82h-82v-655h-164v901h164v-82h82v82h246v-82z" />
    <glyph glyph-name="Omacron" unicode="&#x14c;" horiz-adv-x="839" 
d="M666 1679v-163h-492v163h492zM543 1311h164v-1229h-164v-82h-246v82h-164v1229h164v82h246v-82zM543 164v1065h-246v-1065h246z" />
    <glyph glyph-name="omacron" unicode="&#x14d;" 
d="M635 1188v-164h-492v164h492zM512 819h164v-737h-164v-82h-246v82h-164v737h164v82h246v-82zM512 164v573h-246v-573h246z" />
    <glyph glyph-name="Obreve" unicode="&#x14e;" horiz-adv-x="839" 
d="M297 1516v81h-123v205h123v-123h246v123h123v-205h-123v-81h-246zM543 1311h164v-1229h-164v-82h-246v82h-164v1229h164v82h246v-82zM543 164v1065h-246v-1065h246z" />
    <glyph glyph-name="obreve" unicode="&#x14f;" 
d="M266 1024v82h-123v205h123v-123h246v123h123v-205h-123v-82h-246zM512 819h164v-737h-164v-82h-246v82h-164v737h164v82h246v-82zM512 164v573h-246v-573h246z" />
    <glyph glyph-name="Ohungarumlaut" unicode="&#x150;" horiz-adv-x="839" 
d="M256 1638v-122h-123v163h82v123h82v123h123v-164h-82v-123h-82zM584 1925h123v-164h-82v-123h-82v-122h-123v163h82v123h82v123zM543 1393v-82h164v-1229h-164v-82h-246v82h-164v1229h164v82h246zM543 164v1065h-246v-1065h246z" />
    <glyph glyph-name="ohungarumlaut" unicode="&#x151;" 
d="M225 1147v-123h-123v164h82v123h82v123h123v-164h-82v-123h-82zM553 1434h123v-164h-82v-123h-82v-123h-123v164h82v123h82v123zM512 901v-82h164v-737h-164v-82h-246v82h-164v737h164v82h246zM512 164v573h-246v-573h246z" />
    <glyph glyph-name="OE" unicode="&#x152;" horiz-adv-x="1290" 
d="M1198 1229h-410v-451h369v-164h-369v-450h410v-164h-491v82h-82v-82h-328v82h-164v1229h164v82h328v-82h82v82h491v-164zM625 164v1065h-328v-1065h328z" />
    <glyph glyph-name="oe" unicode="&#x153;" horiz-adv-x="1187" 
d="M676 410v-246h246v82h163v-164h-163v-82h-246v82h-164v-82h-246v82h-164v737h164v82h246v-82h164v82h246v-82h163v-409h-409zM512 164v573h-246v-573h246zM676 737v-164h246v164h-246z" />
    <glyph glyph-name="Racute" unicode="&#x154;" horiz-adv-x="860" 
d="M348 1638v-122h-164v163h164v123h164v123h164v-164h-164v-123h-164zM717 737h-82v-123h82v-614h-164v614h-246v-614h-164v1393h410v-82h164v-574zM307 778h246v451h-246v-451z" />
    <glyph glyph-name="racute" unicode="&#x155;" horiz-adv-x="696" 
d="M297 1147v-123h-164v164h164v123h164v123h164v-164h-164v-123h-164zM379 901h287v-164h-287v-123h-82v-614h-164v901h164v-123h82v123z" />
    <glyph glyph-name="Rcommaaccent" unicode="&#x156;" horiz-adv-x="860" 
d="M717 737h-82v-123h82v-614h-164v614h-246v-614h-164v1393h410v-82h164v-574zM307 778h246v451h-246v-451zM389 -287v164h164v-164h-123v-164h-164v164h123z" />
    <glyph glyph-name="rcommaaccent" unicode="&#x157;" horiz-adv-x="696" 
d="M379 901h287v-164h-287v-123h-82v-614h-164v901h164v-123h82v123zM256 -287v164h164v-164h-123v-164h-164v164h123z" />
    <glyph glyph-name="Rcaron" unicode="&#x158;" horiz-adv-x="860" 
d="M348 1516v122h-164v164h164v-123h164v123h164v-164h-164v-122h-164zM717 737h-82v-123h82v-614h-164v614h-246v-614h-164v1393h410v-82h164v-574zM307 778h246v451h-246v-451z" />
    <glyph glyph-name="rcaron" unicode="&#x159;" horiz-adv-x="696" 
d="M297 1024v123h-164v164h164v-123h164v123h164v-164h-164v-123h-164zM379 901h287v-164h-287v-123h-82v-614h-164v901h164v-123h82v123z" />
    <glyph glyph-name="Sacute" unicode="&#x15a;" horiz-adv-x="819" 
d="M328 1638v-122h-164v163h164v123h164v123h163v-164h-163v-123h-164zM696 1065h-164v164h-245v-410h286v-82h123v-655h-164v-82h-245v82h-164v287h164v-205h245v491h-286v82h-123v574h164v82h245v-82h164v-246z" />
    <glyph glyph-name="sacute" unicode="&#x15b;" 
d="M307 1147v-123h-164v164h164v123h164v123h164v-164h-164v-123h-164zM676 655h-164v82h-246v-205h287v-81h123v-369h-164v-82h-246v82h-164v164h164v-82h246v205h-287v82h-123v368h164v82h246v-82h164v-164z" />
    <glyph glyph-name="Scircumflex" unicode="&#x15c;" horiz-adv-x="819" 
d="M328 1638v-122h-164v163h164v123h164v-123h163v-163h-163v122h-164zM696 1065h-164v164h-245v-410h286v-82h123v-655h-164v-82h-245v82h-164v287h164v-205h245v491h-286v82h-123v574h164v82h245v-82h164v-246z" />
    <glyph glyph-name="scircumflex" unicode="&#x15d;" 
d="M307 1147v-123h-164v164h164v123h164v-123h164v-164h-164v123h-164zM676 655h-164v82h-246v-205h287v-81h123v-369h-164v-82h-246v82h-164v164h164v-82h246v205h-287v82h-123v368h164v82h246v-82h164v-164z" />
    <glyph glyph-name="Scedilla" unicode="&#x15e;" horiz-adv-x="819" 
d="M696 1065h-164v164h-245v-410h286v-82h123v-655h-164v-82h-122v-82h163v-164h-81v-123h-205v123h123v82h-82v164h-41v82h-164v287h164v-205h245v491h-286v82h-123v574h164v82h245v-82h164v-246z" />
    <glyph glyph-name="scedilla" unicode="&#x15f;" 
d="M676 655h-164v82h-246v-205h287v-81h123v-369h-164v-82h-123v-82h164v-164h-82v-123h-205v123h123v82h-82v164h-41v82h-164v164h164v-82h246v205h-287v82h-123v368h164v82h246v-82h164v-164z" />
    <glyph glyph-name="Scaron" unicode="&#x160;" horiz-adv-x="819" 
d="M328 1516v122h-164v164h164v-123h164v123h163v-164h-163v-122h-164zM696 1065h-164v164h-245v-410h286v-82h123v-655h-164v-82h-245v82h-164v287h164v-205h245v491h-286v82h-123v574h164v82h245v-82h164v-246z" />
    <glyph glyph-name="scaron" unicode="&#x161;" 
d="M307 1024v123h-164v164h164v-123h164v123h164v-164h-164v-123h-164zM676 655h-164v82h-246v-205h287v-81h123v-369h-164v-82h-246v82h-164v164h164v-82h246v205h-287v82h-123v368h164v82h246v-82h164v-164z" />
    <glyph glyph-name="uni0162" unicode="&#x162;" horiz-adv-x="737" 
d="M451 0h-41v-82h163v-164h-81v-123h-205v123h123v82h-82v164h-41v1229h-246v164h655v-164h-245v-1229z" />
    <glyph glyph-name="uni0163" unicode="&#x163;" horiz-adv-x="604" 
d="M543 737h-205v-573h164v-164h-205v-82h164v-164h-82v-123h-205v123h123v82h-123v164h82v82h-82v655h-123v164h123v246h164v-246h205v-164z" />
    <glyph glyph-name="Tcaron" unicode="&#x164;" horiz-adv-x="737" 
d="M287 1516v122h-164v164h164v-123h164v123h163v-164h-163v-122h-164zM696 1393v-164h-245v-1229h-164v1229h-246v164h655z" />
    <glyph glyph-name="tcaron" unicode="&#x165;" horiz-adv-x="604" 
d="M379 1556h164v-163h-164v-123h-164v123h-164v163h164v-122h164v122zM338 1147v-246h205v-164h-205v-573h164v-164h-246v82h-82v655h-123v164h123v246h164z" />
    <glyph glyph-name="Tbar" unicode="&#x166;" horiz-adv-x="819" 
d="M778 819v-123h-286v-696h-164v696h-287v123h287v410h-246v164h655v-164h-245v-410h286z" />
    <glyph glyph-name="tbar" unicode="&#x167;" horiz-adv-x="686" 
d="M625 410h-246v-246h164v-164h-246v82h-82v328h-164v122h164v205h-123v164h123v246h164v-246h205v-164h-205v-205h246v-122z" />
    <glyph glyph-name="Utilde" unicode="&#x168;" horiz-adv-x="860" 
d="M307 1597v-81h-123v163h82v82h205v-82h82v82h123v-164h-82v-81h-205v81h-82zM553 1393h164v-1311h-164v-82h-246v82h-164v1311h164v-1229h246v1229z" />
    <glyph glyph-name="utilde" unicode="&#x169;" horiz-adv-x="829" 
d="M287 1106v-82h-123v164h82v82h205v-82h81v82h123v-164h-82v-82h-204v82h-82zM532 901h164v-901h-164v82h-81v-82h-246v82h-82v819h164v-737h164v82h81v655z" />
    <glyph glyph-name="Umacron" unicode="&#x16a;" horiz-adv-x="860" 
d="M676 1679v-163h-492v163h492zM553 1393h164v-1311h-164v-82h-246v82h-164v1311h164v-1229h246v1229z" />
    <glyph glyph-name="umacron" unicode="&#x16b;" horiz-adv-x="829" 
d="M655 1188v-164h-491v164h491zM532 901h164v-901h-164v82h-81v-82h-246v82h-82v819h164v-737h164v82h81v655z" />
    <glyph glyph-name="Ubreve" unicode="&#x16c;" horiz-adv-x="860" 
d="M307 1516v81h-123v205h123v-123h246v123h123v-205h-123v-81h-246zM553 1393h164v-1311h-164v-82h-246v82h-164v1311h164v-1229h246v1229z" />
    <glyph glyph-name="ubreve" unicode="&#x16d;" horiz-adv-x="829" 
d="M287 1024v82h-123v205h123v-123h245v123h123v-205h-123v-82h-245zM532 901h164v-901h-164v82h-81v-82h-246v82h-82v819h164v-737h164v82h81v655z" />
    <glyph glyph-name="Uring" unicode="&#x16e;" horiz-adv-x="860" 
d="M307 1516v81h-82v164h82v82h246v-82h82v-164h-82v-81h-246zM389 1761v-164h82v164h-82zM553 1393h164v-1311h-164v-82h-246v82h-164v1311h164v-1229h246v1229z" />
    <glyph glyph-name="uring" unicode="&#x16f;" horiz-adv-x="829" 
d="M287 1024v82h-82v164h82v82h245v-82h82v-164h-82v-82h-245zM369 1270v-164h82v164h-82zM532 901h164v-901h-164v82h-81v-82h-246v82h-82v819h164v-737h164v82h81v655z" />
    <glyph glyph-name="Uhungarumlaut" unicode="&#x170;" horiz-adv-x="860" 
d="M266 1638v-122h-123v163h82v123h82v123h123v-164h-82v-123h-82zM594 1925h123v-164h-82v-123h-82v-122h-123v163h82v123h82v123zM553 164v1229h164v-1311h-164v-82h-246v82h-164v1311h164v-1229h246z" />
    <glyph glyph-name="uhungarumlaut" unicode="&#x171;" horiz-adv-x="829" 
d="M246 1147v-123h-123v164h82v123h82v123h123v-164h-82v-123h-82zM573 1434h123v-164h-82v-123h-82v-123h-122v164h82v123h81v123zM532 246v655h164v-901h-164v82h-81v-82h-246v82h-82v819h164v-737h164v82h81z" />
    <glyph glyph-name="Uogonek" unicode="&#x172;" horiz-adv-x="860" 
d="M553 1393h164v-1311h-164v-82h-41v-164h-82v-82h123v-123h-205v123h-82v164h164v82h-123v82h-164v1311h164v-1229h246v1229z" />
    <glyph glyph-name="uogonek" unicode="&#x173;" horiz-adv-x="829" 
d="M532 901h164v-901h-41v-123h-163v-123h163v-123h-204v123h-123v164h164v82h40v82h-81v-82h-246v82h-82v819h164v-737h164v82h81v655z" />
    <glyph glyph-name="Wcircumflex" unicode="&#x174;" horiz-adv-x="901" 
d="M369 1638v-122h-164v163h164v123h163v-123h164v-163h-164v122h-163zM778 1393v-983h-82v-410h-164v410h-163v-410h-164v410h-82v983h164v-901h82v409h163v-409h82v901h164z" />
    <glyph glyph-name="wcircumflex" unicode="&#x175;" horiz-adv-x="880" 
d="M358 1147v-123h-163v164h163v123h164v-123h164v-164h-164v123h-164zM768 901v-655h-82v-246h-164v246h-164v-246h-163v246h-82v655h163v-573h82v573h164v-573h82v573h164z" />
    <glyph glyph-name="Ycircumflex" unicode="&#x176;" 
d="M307 1638v-122h-164v163h164v123h164v-123h164v-163h-164v122h-164zM553 1393h164v-246h-82v-328h-82v-164h-82v-655h-164v655h-82v164h-82v328h-82v246h164v-246h82v-328h164v328h82v246z" />
    <glyph glyph-name="ycircumflex" unicode="&#x177;" horiz-adv-x="798" 
d="M317 1147v-123h-163v164h163v123h164v-123h164v-164h-164v123h-164zM522 901h164v-491h-82v-287h-82v-287h-82v-246h-123v-82h-204v164h163v205h82v123h-82v164h-81v246h-82v491h163v-491h82v-246h82v246h82v491z" />
    <glyph glyph-name="Ydieresis" unicode="&#x178;" 
d="M307 1679v-163h-164v163h164zM635 1679v-163h-164v163h164zM553 1393h164v-246h-82v-328h-82v-164h-82v-655h-164v655h-82v164h-82v328h-82v246h164v-246h82v-328h164v328h82v246z" />
    <glyph glyph-name="Zacute" unicode="&#x179;" horiz-adv-x="757" 
d="M307 1638v-122h-164v163h164v123h164v123h164v-164h-164v-123h-164zM317 164h369v-164h-614v164h82v246h82v327h81v246h82v246h-276v164h553v-164h-113v-246h-82v-246h-82v-327h-82v-246z" />
    <glyph glyph-name="zacute" unicode="&#x17a;" horiz-adv-x="757" 
d="M297 1147v-123h-164v164h164v123h164v123h164v-164h-164v-123h-164zM420 287h-82v-123h328v-164h-574v164h82v123h82v164h82v163h82v123h-328v164h574v-164h-82v-123h-82v-163h-82v-164z" />
    <glyph glyph-name="Zdotaccent" unicode="&#x17b;" horiz-adv-x="757" 
d="M471 1679v-163h-164v163h164zM317 164h369v-164h-614v164h82v246h82v327h81v246h82v246h-276v164h553v-164h-113v-246h-82v-246h-82v-327h-82v-246z" />
    <glyph glyph-name="zdotaccent" unicode="&#x17c;" horiz-adv-x="757" 
d="M461 1188v-164h-164v164h164zM420 287h-82v-123h328v-164h-574v164h82v123h82v164h82v163h82v123h-328v164h574v-164h-82v-123h-82v-163h-82v-164z" />
    <glyph glyph-name="Zcaron" unicode="&#x17d;" horiz-adv-x="757" 
d="M307 1516v122h-164v164h164v-123h164v123h164v-164h-164v-122h-164zM317 164h369v-164h-614v164h82v246h82v327h81v246h82v246h-276v164h553v-164h-113v-246h-82v-246h-82v-327h-82v-246z" />
    <glyph glyph-name="zcaron" unicode="&#x17e;" horiz-adv-x="757" 
d="M297 1024v123h-164v164h164v-123h164v123h164v-164h-164v-123h-164zM420 287h-82v-123h328v-164h-574v164h82v123h82v164h82v163h82v123h-328v164h574v-164h-82v-123h-82v-163h-82v-164z" />
    <glyph glyph-name="uni0181" unicode="&#x181;" horiz-adv-x="983" 
d="M850 778h-82v-82h82v-614h-164v-82h-410v1270h-81v-123h-123v164h82v82h532v-82h164v-533zM440 1229v-410h246v410h-246zM440 164h246v491h-246v-491z" />
    <glyph glyph-name="uni0186" unicode="&#x186;" horiz-adv-x="819" 
d="M522 1311h164v-1229h-164v-82h-246v82h-163v410h163v-328h246v1065h-246v-328h-163v410h163v82h246v-82z" />
    <glyph glyph-name="uni0187" unicode="&#x187;" horiz-adv-x="829" 
d="M584 1475h204v-123h-81v-410h-164v287h-246v-1065h246v328h164v-410h-164v-82h-246v82h-164v1229h164v82h287v82z" />
    <glyph glyph-name="uni0188" unicode="&#x188;" horiz-adv-x="819" 
d="M553 983h225v-123h-102v-246h-164v123h-246v-573h246v123h164v-205h-164v-82h-246v82h-164v737h164v82h287v82z" />
    <glyph glyph-name="uni0189" unicode="&#x189;" horiz-adv-x="890" 
d="M594 1311h164v-1229h-164v-82h-410v655h-123v123h123v615h410v-82zM594 164v1065h-246v-451h123v-123h-123v-491h246z" />
    <glyph glyph-name="uni018A" unicode="&#x18a;" horiz-adv-x="983" 
d="M686 1311h164v-1229h-164v-82h-410v1270h-81v-123h-123v164h82v82h532v-82zM686 164v1065h-246v-1065h246z" />
    <glyph glyph-name="uni018E" unicode="&#x18e;" horiz-adv-x="737" 
d="M594 1393v-1393h-492v164h328v491h-287v164h287v410h-328v164h492z" />
    <glyph glyph-name="uni018F" unicode="&#x18f;" horiz-adv-x="839" 
d="M543 1311h164v-1229h-164v-82h-246v82h-164v737h410v410h-246v-205h-164v287h164v82h246v-82zM543 164v491h-246v-491h246z" />
    <glyph glyph-name="uni0190" unicode="&#x190;" horiz-adv-x="808" 
d="M717 1106h-164v123h-246v-451h287v-164h-287v-450h246v123h164v-205h-164v-82h-246v82h-164v573h82v82h-82v574h164v82h246v-82h164v-205z" />
    <glyph glyph-name="uni0191" unicode="&#x191;" horiz-adv-x="696" 
d="M635 1229h-328v-410h287v-164h-287v-860h-82v-82h-205v123h123v1557h492v-164z" />
    <glyph glyph-name="florin" unicode="&#x192;" horiz-adv-x="716" 
d="M655 1229h-163v-410h163v-164h-245v-860h-82v-82h-328v164h246v778h-164v164h246v492h82v82h245v-164z" />
    <glyph glyph-name="uni0193" unicode="&#x193;" horiz-adv-x="829" 
d="M584 1475h204v-123h-81v-369h-164v246h-246v-1065h246v409h-123v164h287v-655h-164v-82h-246v82h-164v1229h164v82h246v-41h41v123z" />
    <glyph glyph-name="uni0194" unicode="&#x194;" horiz-adv-x="921" 
d="M666 1393h163v-492h-81v-409h-82v-328h-82v-164h123v-369h-123v-123h-246v123h-123v369h123v164h-82v328h-82v409h-82v492h164v-492h82v-409h82v-328h82v328h82v409h82v492zM543 -328v328h-164v-328h164z" />
    <glyph glyph-name="uni0196" unicode="&#x196;" horiz-adv-x="542" 
d="M307 164h164v-164h-246v82h-82v1311h164v-1229z" />
    <glyph glyph-name="uni0197" unicode="&#x197;" horiz-adv-x="737" 
d="M655 655h-204v-491h163v-164h-491v164h164v491h-205v123h205v451h-164v164h491v-164h-163v-451h204v-123z" />
    <glyph glyph-name="uni0198" unicode="&#x198;" horiz-adv-x="860" 
d="M922 1638v-163h-123v-82h-82v-287h-82v-287h-82v-123h82v-327h82v-369h-164v369h-82v286h-164v-655h-164v1393h164v-574h164v287h82v287h82v163h82v82h205z" />
    <glyph glyph-name="uni0199" unicode="&#x199;" horiz-adv-x="798" 
d="M625 532h-82v-122h82v-246h82v-164h-164v164h-82v246h-164v-410h-164v1556h82v82h205v-122h-123v-943h164v164h82v164h164v-164h-82v-205z" />
    <glyph glyph-name="uni019D" unicode="&#x19d;" horiz-adv-x="942" 
d="M635 1393h164v-1393h-164v246h-82v246h-164v327h-82v-983h-82v-82h-205v123h123v1516h164v-246h82v-246h164v-328h82v820z" />
    <glyph glyph-name="Ohorn" unicode="&#x1a0;" horiz-adv-x="839" 
d="M584 1475h204v-123h-81v-1270h-164v-82h-246v82h-164v1229h164v82h287v82zM297 164h246v1065h-246v-1065z" />
    <glyph glyph-name="ohorn" unicode="&#x1a1;" horiz-adv-x="798" 
d="M553 983h225v-123h-102v-778h-164v-82h-246v82h-164v737h164v82h287v82zM266 164h246v573h-246v-573z" />
    <glyph glyph-name="uni01A4" unicode="&#x1a4;" horiz-adv-x="952" 
d="M686 1311h164v-738h-164v-81h-246v-492h-164v1270h-81v-123h-123v164h82v82h532v-82zM686 655v574h-246v-574h246z" />
    <glyph glyph-name="uni01A5" unicode="&#x1a5;" horiz-adv-x="808" 
d="M707 819v-737h-82v-82h-246v82h-82v-574h-164v1557h82v82h205v-123h-123v-205h82v82h246v-82h82zM297 246h82v-82h164v573h-164v-82h-82v-409z" />
    <glyph glyph-name="uni01A9" unicode="&#x1a9;" 
d="M696 1229h-368v-123h82v-164h82v-164h81v-164h-81v-163h-82v-164h-82v-123h368v-164h-614v164h82v123h82v164h82v163h82v164h-82v164h-82v164h-82v123h-82v164h614v-164z" />
    <glyph glyph-name="uni01AC" unicode="&#x1ac;" horiz-adv-x="819" 
d="M778 1393v-164h-246v-1229h-163v1229h-205v-164h-123v246h82v82h655z" />
    <glyph glyph-name="uni01AD" unicode="&#x1ad;" horiz-adv-x="604" 
d="M543 737h-205v-573h164v-164h-246v82h-82v655h-123v164h123v369h82v82h205v-123h-123v-328h205v-164z" />
    <glyph glyph-name="uni01AE" unicode="&#x1ae;" horiz-adv-x="737" 
d="M451 1229v-1352h122v-123h-204v82h-82v1393h-246v164h655v-164h-245z" />
    <glyph glyph-name="Uhorn" unicode="&#x1af;" horiz-adv-x="890" 
d="M809 1556v-307h-92v-1167h-164v-82h-246v82h-164v1311h164v-1229h246v1229h102v163h154z" />
    <glyph glyph-name="uhorn" unicode="&#x1b0;" horiz-adv-x="829" 
d="M788 1065v-307h-92v-758h-164v82h-81v-82h-246v82h-82v819h164v-737h164v82h81v655h103v164h153z" />
    <glyph glyph-name="uni01B1" unicode="&#x1b1;" horiz-adv-x="880" 
d="M768 1229h-123v-82h82v-1065h-164v-82h-246v82h-163v1065h82v82h-123v164h245v-246h-41v-983h246v983h-41v246h246v-164z" />
    <glyph glyph-name="uni01B2" unicode="&#x1b2;" horiz-adv-x="860" 
d="M635 1393h82v-1311h-164v-82h-246v82h-164v1311h164v-1229h246v1188h-143v123h225v-82z" />
    <glyph glyph-name="uni01B3" unicode="&#x1b3;" horiz-adv-x="921" 
d="M901 1597v-122h-102v-82h-82v-246h-82v-328h-82v-164h-82v-655h-164v655h-82v164h-82v328h-82v246h164v-246h82v-328h164v328h82v246h82v123h82v81h184z" />
    <glyph glyph-name="uni01B4" unicode="&#x1b4;" horiz-adv-x="829" 
d="M768 1106v-123h-82v-573h-82v-287h-82v-287h-82v-246h-123v-82h-204v164h163v205h82v123h-82v164h-81v246h-82v491h163v-491h82v-246h82v246h82v614h82v82h164z" />
    <glyph glyph-name="uni01B7" unicode="&#x1b7;" horiz-adv-x="788" 
d="M614 1065h-122v-164h81v-164h82v-655h-163v-82h-246v82h-164v164h164v-82h246v573h-287v164h123v164h123v164h-369v164h614v-164h-82v-164z" />
    <glyph glyph-name="uni01C0" unicode="&#x1c0;" horiz-adv-x="450" 
d="M143 0v1597h164v-1597h-164z" />
    <glyph glyph-name="uni01C1" unicode="&#x1c1;" horiz-adv-x="737" 
d="M143 0v1597h164v-1597h-164zM430 0v1597h164v-1597h-164z" />
    <glyph glyph-name="uni01C2" unicode="&#x1c2;" horiz-adv-x="675" 
d="M584 901h-164v-164h164v-123h-164v-614h-164v614h-164v123h164v164h-164v123h164v573h164v-573h164v-123z" />
    <glyph glyph-name="uni01C3" unicode="&#x1c3;" horiz-adv-x="471" 
d="M154 328v1269h163v-1269h-163zM143 0v184h185v-184h-185z" />
    <glyph glyph-name="uni01CD" unicode="&#x1cd;" horiz-adv-x="819" 
d="M328 1516v122h-164v164h164v-123h164v123h163v-164h-163v-122h-164zM614 983h82v-983h-164v573h-245v-573h-164v983h82v246h82v164h245v-164h82v-246zM532 737v246h-81v246h-82v-246h-82v-246h245z" />
    <glyph glyph-name="uni01CE" unicode="&#x1ce;" 
d="M307 1024v123h-164v164h164v-123h164v123h164v-164h-164v-123h-164zM553 819h123v-819h-164v82h-82v-82h-205v82h-123v410h123v81h205v-41h82v205h-246v-82h-164v164h123v82h328v-82zM430 246h82v123h-82v41h-164v-246h164v82z" />
    <glyph glyph-name="uni01CF" unicode="&#x1cf;" horiz-adv-x="655" 
d="M410 1802h163v-164h-163v-122h-164v122h-164v164h164v-123h164v123zM573 1393v-164h-163v-1065h163v-164h-491v164h164v1065h-164v164h491z" />
    <glyph glyph-name="uni01D0" unicode="&#x1d0;" horiz-adv-x="675" 
d="M246 1024v123h-164v164h164v-123h164v123h163v-164h-163v-123h-164zM451 164h204v-164h-614v164h246v573h-205v164h369v-737z" />
    <glyph glyph-name="uni01D1" unicode="&#x1d1;" horiz-adv-x="839" 
d="M338 1516v122h-164v164h164v-123h164v123h164v-164h-164v-122h-164zM543 1311h164v-1229h-164v-82h-246v82h-164v1229h164v82h246v-82zM543 164v1065h-246v-1065h246z" />
    <glyph glyph-name="uni01D2" unicode="&#x1d2;" 
d="M307 1024v123h-164v164h164v-123h164v123h164v-164h-164v-123h-164zM512 819h164v-737h-164v-82h-246v82h-164v737h164v82h246v-82zM512 164v573h-246v-573h246z" />
    <glyph glyph-name="uni01D3" unicode="&#x1d3;" horiz-adv-x="860" 
d="M348 1516v122h-164v164h164v-123h164v123h164v-164h-164v-122h-164zM553 1393h164v-1311h-164v-82h-246v82h-164v1311h164v-1229h246v1229z" />
    <glyph glyph-name="uni01D4" unicode="&#x1d4;" horiz-adv-x="829" 
d="M328 1024v123h-164v164h164v-123h164v123h163v-164h-163v-123h-164zM532 901h164v-901h-164v82h-81v-82h-246v82h-82v819h164v-737h164v82h81v655z" />
    <glyph glyph-name="uni01D5" unicode="&#x1d5;" horiz-adv-x="860" 
d="M676 1966v-164h-492v164h492zM348 1679v-163h-164v163h164zM676 1516h-164v163h164v-163zM553 1393h164v-1311h-164v-82h-246v82h-164v1311h164v-1229h246v1229z" />
    <glyph glyph-name="uni01D6" unicode="&#x1d6;" horiz-adv-x="829" 
d="M655 1475v-164h-491v164h491zM328 1188v-164h-164v164h164zM655 1024h-163v164h163v-164zM532 901h164v-901h-164v82h-81v-82h-246v82h-82v819h164v-737h164v82h81v655z" />
    <glyph glyph-name="uni01D7" unicode="&#x1d7;" horiz-adv-x="860" 
d="M348 1925v-123h-164v164h164v123h164v123h164v-164h-164v-123h-164zM348 1679v-163h-164v163h164zM512 1516v163h164v-163h-164zM553 1393h164v-1311h-164v-82h-246v82h-164v1311h164v-1229h246v1229z" />
    <glyph glyph-name="uni01D8" unicode="&#x1d8;" horiz-adv-x="829" 
d="M328 1434v-123h-164v164h164v122h164v123h163v-164h-163v-122h-164zM328 1188v-164h-164v164h164zM492 1024v164h163v-164h-163zM532 901h164v-901h-164v82h-81v-82h-246v82h-82v819h164v-737h164v82h81v655z" />
    <glyph glyph-name="uni01D9" unicode="&#x1d9;" horiz-adv-x="860" 
d="M348 1802v123h-164v164h164v-123h164v123h164v-164h-164v-123h-164zM348 1679v-163h-164v163h164zM512 1516v163h164v-163h-164zM553 1393h164v-1311h-164v-82h-246v82h-164v1311h164v-1229h246v1229z" />
    <glyph glyph-name="uni01DA" unicode="&#x1da;" horiz-adv-x="829" 
d="M328 1311v123h-164v163h164v-122h164v122h163v-163h-163v-123h-164zM328 1188v-164h-164v164h164zM492 1024v164h163v-164h-163zM532 901h164v-901h-164v82h-81v-82h-246v82h-82v819h164v-737h164v82h81v655z" />
    <glyph glyph-name="uni01DB" unicode="&#x1db;" horiz-adv-x="860" 
d="M348 1925v123h-164v164h164v-123h164v-123h164v-164h-164v123h-164zM348 1679v-163h-164v163h164zM512 1516v163h164v-163h-164zM553 1393h164v-1311h-164v-82h-246v82h-164v1311h164v-1229h246v1229z" />
    <glyph glyph-name="uni01DC" unicode="&#x1dc;" horiz-adv-x="829" 
d="M328 1434v122h-164v164h164v-123h164v-122h163v-164h-163v123h-164zM328 1188v-164h-164v164h164zM492 1024v164h163v-164h-163zM532 901h164v-901h-164v82h-81v-82h-246v82h-82v819h164v-737h164v82h81v655z" />
    <glyph glyph-name="uni01DD" unicode="&#x1dd;" 
d="M512 819h164v-737h-164v-82h-246v82h-164v410h410v245h-246v-82h-164v164h164v82h246v-82zM512 164v164h-246v-164h246z" />
    <glyph glyph-name="uni01DE" unicode="&#x1de;" horiz-adv-x="819" 
d="M655 1966v-164h-491v164h491zM328 1679v-163h-164v163h164zM655 1516h-163v163h163v-163zM614 983h82v-983h-164v573h-245v-573h-164v983h82v246h82v164h245v-164h82v-246zM532 737v246h-81v246h-82v-246h-82v-246h245z" />
    <glyph glyph-name="uni01DF" unicode="&#x1df;" 
d="M635 1475v-164h-492v164h492zM307 1188v-164h-164v164h164zM635 1024h-164v164h164v-164zM553 819h123v-819h-164v82h-82v-82h-205v82h-123v410h123v81h205v-41h82v205h-246v-82h-164v164h123v82h328v-82zM430 246h82v123h-82v41h-164v-246h164v82z" />
    <glyph glyph-name="Gcaron" unicode="&#x1e6;" horiz-adv-x="839" 
d="M338 1516v122h-164v164h164v-123h164v123h164v-164h-164v-122h-164zM707 983h-164v246h-246v-1065h246v409h-123v164h287v-655h-164v-82h-246v82h-164v1229h164v82h246v-82h164v-328z" />
    <glyph glyph-name="gcaron" unicode="&#x1e7;" horiz-adv-x="860" 
d="M317 1024v123h-163v164h163v-123h164v123h164v-164h-164v-123h-164zM522 246h-246v-82h369v-82h82v-492h-164v-82h-327v82h-164v287h164v-205h327v328h-327v82h-123v246h82v82h-82v409h163v82h246v-82h82v82h205v-164h-123v-409h-164v-82zM276 737v-327h246v327h-246z
" />
    <glyph glyph-name="uni01EA" unicode="&#x1ea;" horiz-adv-x="839" 
d="M543 1311h164v-1229h-164v-82h-41v-164h-82v-82h123v-123h-205v123h-82v164h164v82h-123v82h-164v1229h164v82h246v-82zM543 164v1065h-246v-1065h246z" />
    <glyph glyph-name="uni01EB" unicode="&#x1eb;" 
d="M512 819h164v-737h-164v-82h-41v-164h-82v-82h123v-123h-205v123h-82v164h164v82h-123v82h-164v737h164v82h246v-82zM512 164v573h-246v-573h246z" />
    <glyph glyph-name="Aringacute" unicode="&#x1fa;" horiz-adv-x="819" 
d="M328 2089v-123h-164v164h164v123h164v123h163v-164h-163v-123h-164zM532 1516h-245v81h-82v164h82v82h245v-82h82v-164h-82v-81zM369 1761v-164h82v164h-82zM614 983h82v-983h-164v573h-245v-573h-164v983h82v246h82v164h245v-164h82v-246zM532 737v246h-81v246h-82v-246
h-82v-246h245z" />
    <glyph glyph-name="aringacute" unicode="&#x1fb;" 
d="M307 1597v-122h-164v163h164v123h164v123h164v-164h-164v-123h-164zM512 1024h-246v82h-82v164h82v82h246v-82h82v-164h-82v-82zM348 1270v-164h82v164h-82zM553 819h123v-819h-164v82h-82v-82h-205v82h-123v410h123v81h205v-41h82v205h-246v-82h-164v164h123v82h328v-82
zM430 246h82v123h-82v41h-164v-246h164v82z" />
    <glyph glyph-name="AEacute" unicode="&#x1fc;" horiz-adv-x="1208" 
d="M492 1679v-123h-164v164h164v123h163v123h164v-164h-164v-123h-163zM1106 1229h-328v-410h287v-164h-287v-491h328v-164h-492v573h-327v-573h-164v737h82v492h82v164h819v-164zM614 737v492h-245v-492h245z" />
    <glyph glyph-name="aeacute" unicode="&#x1fd;" horiz-adv-x="1515" 
d="M676 1147v-123h-164v164h164v123h164v123h164v-164h-164v-123h-164zM1004 410v-246h245v82h164v-164h-164v-82h-245v82h-164v287h-164v-287h-164v-82h-246v82h-164v410h164v40h246v205h-246v-82h-164v164h164v82h246v-82h164v-287h164v287h164v82h245v-82h164v-409h-409z
M1004 737v-164h245v164h-245zM512 164v205h-246v-205h246z" />
    <glyph glyph-name="Oslashacute" unicode="&#x1fe;" horiz-adv-x="921" 
d="M358 1638v-122h-163v163h163v123h164v123h164v-164h-164v-123h-164zM809 1393v-205h-41v-1106h-164v-82h-287v82h-81v-82h-123v205h41v1106h163v82h287v-82h82v82h123zM604 1106v123h-287v-656h82v287h123v246h82zM604 164v655h-82v-287h-123v-245h-82v-123h287z" />
    <glyph glyph-name="oslashacute" unicode="&#x1ff;" horiz-adv-x="860" 
d="M328 1147v-123h-164v164h164v123h164v123h163v-164h-163v-123h-164zM778 901v-164h-41v-655h-164v-82h-286v82h-82v-82h-123v164h41v655h164v82h286v-82h82v82h123zM573 655v82h-286v-327h82v122h123v123h81zM573 164v328h-81v-123h-123v-123h-82v-82h286z" />
    <glyph glyph-name="uni0200" unicode="&#x200;" horiz-adv-x="819" 
d="M205 1638v123h-82v164h123v-123h82v-123h82v-163h-123v122h-82zM614 1679h82v-163h-123v122h-81v123h-82v164h122v-123h82v-123zM614 1229v-246h82v-983h-164v573h-245v-573h-164v983h82v246h82v164h245v-164h82zM532 737v246h-81v246h-82v-246h-82v-246h245z" />
    <glyph glyph-name="uni0201" unicode="&#x201;" 
d="M184 1147v123h-82v164h123v-123h82v-123h82v-164h-123v123h-82zM594 1188h82v-164h-123v123h-82v123h-82v164h123v-123h82v-123zM553 901v-82h123v-819h-164v82h-82v-82h-205v82h-123v410h123v81h205v-41h82v205h-246v-82h-164v164h123v82h328zM430 246h82v123h-82v41
h-164v-246h164v82z" />
    <glyph glyph-name="uni0202" unicode="&#x202;" horiz-adv-x="819" 
d="M287 1638v-122h-123v204h123v82h245v-82h123v-204h-123v122h-245zM614 983h82v-983h-164v573h-245v-573h-164v983h82v246h82v164h245v-164h82v-246zM532 737v246h-81v246h-82v-246h-82v-246h245z" />
    <glyph glyph-name="uni0203" unicode="&#x203;" 
d="M266 1147v-123h-123v205h123v82h246v-82h123v-205h-123v123h-246zM553 819h123v-819h-164v82h-82v-82h-205v82h-123v410h123v81h205v-41h82v205h-246v-82h-164v164h123v82h328v-82zM430 246h82v123h-82v41h-164v-246h164v82z" />
    <glyph glyph-name="uni0204" unicode="&#x204;" horiz-adv-x="737" 
d="M184 1638v123h-82v164h123v-123h82v-123h82v-163h-123v122h-82zM594 1679h82v-163h-123v122h-82v123h-82v164h123v-123h82v-123zM143 1393h492v-164h-328v-410h287v-164h-287v-491h328v-164h-492v1393z" />
    <glyph glyph-name="uni0205" unicode="&#x205;" 
d="M184 1147v123h-82v164h123v-123h82v-123h82v-164h-123v123h-82zM594 1188h82v-164h-123v123h-82v123h-82v164h123v-123h82v-123zM512 901v-82h164v-409h-410v-246h246v82h164v-164h-164v-82h-246v82h-164v737h164v82h246zM512 573v164h-246v-164h246z" />
    <glyph glyph-name="uni0206" unicode="&#x206;" horiz-adv-x="737" 
d="M512 1720h123v-204h-123v122h-246v-122h-123v204h123v82h246v-82zM143 1393h492v-164h-328v-410h287v-164h-287v-491h328v-164h-492v1393z" />
    <glyph glyph-name="uni0207" unicode="&#x207;" 
d="M266 1147v-123h-123v205h123v82h246v-82h123v-205h-123v123h-246zM266 410v-246h246v82h164v-164h-164v-82h-246v82h-164v737h164v82h246v-82h164v-409h-410zM266 737v-164h246v164h-246z" />
    <glyph glyph-name="uni0208" unicode="&#x208;" horiz-adv-x="655" 
d="M123 1638v123h-82v164h123v-123h82v-123h82v-163h-123v122h-82zM532 1679h82v-163h-122v122h-82v123h-82v164h123v-123h81v-123zM573 1393v-164h-163v-1065h163v-164h-491v164h164v1065h-164v164h491z" />
    <glyph glyph-name="uni0209" unicode="&#x209;" horiz-adv-x="675" 
d="M123 1147v123h-82v164h123v-123h82v-123h82v-164h-123v123h-82zM410 1147v123h-82v164h123v-123h81v-123h82v-164h-122v123h-82zM451 164h204v-164h-614v164h246v573h-205v164h369v-737z" />
    <glyph glyph-name="uni020A" unicode="&#x20a;" horiz-adv-x="655" 
d="M451 1720h122v-204h-122v122h-246v-122h-123v204h123v82h246v-82zM573 1393v-164h-163v-1065h163v-164h-491v164h164v1065h-164v164h491z" />
    <glyph glyph-name="uni020B" unicode="&#x20b;" horiz-adv-x="675" 
d="M205 1147v-123h-123v205h123v82h246v-82h122v-205h-122v123h-246zM451 164h204v-164h-614v164h246v573h-205v164h369v-737z" />
    <glyph glyph-name="uni020C" unicode="&#x20c;" horiz-adv-x="839" 
d="M215 1638v123h-82v164h123v-123h82v-123h82v-163h-123v122h-82zM625 1679h82v-163h-123v122h-82v123h-82v164h123v-123h82v-123zM543 1393v-82h164v-1229h-164v-82h-246v82h-164v1229h164v82h246zM543 164v1065h-246v-1065h246z" />
    <glyph glyph-name="uni020D" unicode="&#x20d;" 
d="M184 1147v123h-82v164h123v-123h82v-123h82v-164h-123v123h-82zM594 1188h82v-164h-123v123h-82v123h-82v164h123v-123h82v-123zM512 901v-82h164v-737h-164v-82h-246v82h-164v737h164v82h246zM512 164v573h-246v-573h246z" />
    <glyph glyph-name="uni020E" unicode="&#x20e;" horiz-adv-x="839" 
d="M297 1638v-122h-123v204h123v82h246v-82h123v-204h-123v122h-246zM543 1311h164v-1229h-164v-82h-246v82h-164v1229h164v82h246v-82zM543 164v1065h-246v-1065h246z" />
    <glyph glyph-name="uni020F" unicode="&#x20f;" 
d="M266 1147v-123h-123v205h123v82h246v-82h123v-205h-123v123h-246zM512 819h164v-737h-164v-82h-246v82h-164v737h164v82h246v-82zM512 164v573h-246v-573h246z" />
    <glyph glyph-name="uni0210" unicode="&#x210;" horiz-adv-x="860" 
d="M225 1638v123h-82v164h123v-123h82v-123h82v-163h-123v122h-82zM635 1679h82v-163h-123v122h-82v123h-82v164h123v-123h82v-123zM553 1393v-82h164v-574h-82v-123h82v-614h-164v614h-246v-614h-164v1393h410zM553 778v451h-246v-451h246z" />
    <glyph glyph-name="uni0211" unicode="&#x211;" horiz-adv-x="696" 
d="M174 1147v123h-82v164h123v-123h82v-123h82v-164h-123v123h-82zM584 1188h82v-164h-123v123h-82v123h-82v164h123v-123h82v-123zM379 778v123h287v-164h-287v-123h-82v-614h-164v901h164v-123h82z" />
    <glyph glyph-name="uni0212" unicode="&#x212;" horiz-adv-x="860" 
d="M307 1638v-122h-123v204h123v82h246v-82h123v-204h-123v122h-246zM717 737h-82v-123h82v-614h-164v614h-246v-614h-164v1393h410v-82h164v-574zM307 778h246v451h-246v-451z" />
    <glyph glyph-name="uni0213" unicode="&#x213;" horiz-adv-x="696" 
d="M256 1147v-123h-123v205h123v82h246v-82h123v-205h-123v123h-246zM379 901h287v-164h-287v-123h-82v-614h-164v901h164v-123h82v123z" />
    <glyph glyph-name="uni0214" unicode="&#x214;" horiz-adv-x="860" 
d="M225 1638v123h-82v164h123v-123h82v-123h82v-163h-123v122h-82zM635 1679h82v-163h-123v122h-82v123h-82v164h123v-123h82v-123zM553 164v1229h164v-1311h-164v-82h-246v82h-164v1311h164v-1229h246z" />
    <glyph glyph-name="uni0215" unicode="&#x215;" horiz-adv-x="829" 
d="M205 1147v123h-82v164h123v-123h82v-123h82v-164h-123v123h-82zM614 1188h82v-164h-123v123h-81v123h-82v164h122v-123h82v-123zM532 246v655h164v-901h-164v82h-81v-82h-246v82h-82v819h164v-737h164v82h81z" />
    <glyph glyph-name="uni0216" unicode="&#x216;" horiz-adv-x="860" 
d="M307 1638v-122h-123v204h123v82h246v-82h123v-204h-123v122h-246zM553 1393h164v-1311h-164v-82h-246v82h-164v1311h164v-1229h246v1229z" />
    <glyph glyph-name="uni0217" unicode="&#x217;" horiz-adv-x="829" 
d="M287 1147v-123h-123v205h123v82h245v-82h123v-205h-123v123h-245zM532 901h164v-901h-164v82h-81v-82h-246v82h-82v819h164v-737h164v82h81v655z" />
    <glyph glyph-name="Scommaaccent" unicode="&#x218;" horiz-adv-x="819" 
d="M696 1065h-164v164h-245v-410h286v-82h123v-655h-164v-82h-245v82h-164v287h164v-205h245v491h-286v82h-123v574h164v82h245v-82h164v-246zM369 -287v164h163v-164h-122v-164h-164v164h123z" />
    <glyph glyph-name="scommaaccent" unicode="&#x219;" 
d="M676 655h-164v82h-246v-205h287v-81h123v-369h-164v-82h-246v82h-164v164h164v-82h246v205h-287v82h-123v368h164v82h246v-82h164v-164zM389 -287v164h164v-164h-123v-164h-164v164h123z" />
    <glyph glyph-name="uni021A" unicode="&#x21a;" horiz-adv-x="737" 
d="M696 1393v-164h-245v-1229h-164v1229h-246v164h655zM369 -287v164h163v-164h-122v-164h-164v164h123z" />
    <glyph glyph-name="uni021B" unicode="&#x21b;" horiz-adv-x="604" 
d="M543 737h-205v-573h164v-164h-246v82h-82v655h-123v164h123v246h164v-246h205v-164zM297 -287v164h164v-164h-123v-164h-164v164h123z" />
    <glyph glyph-name="uni0228" unicode="&#x228;" horiz-adv-x="737" 
d="M635 1229h-328v-410h287v-164h-287v-491h328v-164h-246v-82h164v-164h-82v-123h-205v123h123v82h-82v164h-164v1393h492v-164z" />
    <glyph glyph-name="uni0229" unicode="&#x229;" 
d="M266 410v-246h246v82h164v-164h-164v-82h-123v-82h164v-164h-123v-123h-164v123h123v82h-82v164h-41v82h-164v737h164v82h246v-82h164v-409h-410zM266 737v-164h246v164h-246z" />
    <glyph glyph-name="uni022A" unicode="&#x22a;" horiz-adv-x="839" 
d="M666 1966v-164h-492v164h492zM338 1679v-163h-164v163h164zM666 1516h-164v163h164v-163zM543 1311h164v-1229h-164v-82h-246v82h-164v1229h164v82h246v-82zM543 164v1065h-246v-1065h246z" />
    <glyph glyph-name="uni022B" unicode="&#x22b;" 
d="M635 1475v-164h-492v164h492zM307 1188v-164h-164v164h164zM635 1024h-164v164h164v-164zM512 819h164v-737h-164v-82h-246v82h-164v737h164v82h246v-82zM512 164v573h-246v-573h246z" />
    <glyph glyph-name="uni022C" unicode="&#x22c;" horiz-adv-x="839" 
d="M666 2048v-164h-492v164h492zM297 1597v-81h-123v163h82v82h205v-82h82v82h123v-164h-82v-81h-205v81h-82zM543 1311h164v-1229h-164v-82h-246v82h-164v1229h164v82h246v-82zM543 164v1065h-246v-1065h246z" />
    <glyph glyph-name="uni022D" unicode="&#x22d;" 
d="M635 1556v-163h-492v163h492zM266 1106v-82h-123v164h82v82h205v-82h82v82h123v-164h-82v-82h-205v82h-82zM512 819h164v-737h-164v-82h-246v82h-164v737h164v82h246v-82zM512 164v573h-246v-573h246z" />
    <glyph glyph-name="uni0230" unicode="&#x230;" horiz-adv-x="839" 
d="M666 1966v-164h-492v164h492zM502 1516h-164v163h164v-163zM543 1311h164v-1229h-164v-82h-246v82h-164v1229h164v82h246v-82zM543 164v1065h-246v-1065h246z" />
    <glyph glyph-name="uni0231" unicode="&#x231;" 
d="M635 1475v-164h-492v164h492zM471 1024h-164v164h164v-164zM512 819h164v-737h-164v-82h-246v82h-164v737h164v82h246v-82zM512 164v573h-246v-573h246z" />
    <glyph glyph-name="uni0232" unicode="&#x232;" 
d="M635 1679v-163h-492v163h492zM553 1393h164v-246h-82v-328h-82v-164h-82v-655h-164v655h-82v164h-82v328h-82v246h164v-246h82v-328h164v328h82v246z" />
    <glyph glyph-name="uni0233" unicode="&#x233;" horiz-adv-x="798" 
d="M645 1188v-164h-491v164h491zM522 901h164v-491h-82v-287h-82v-287h-82v-246h-123v-82h-204v164h163v205h82v123h-82v164h-81v246h-82v491h163v-491h82v-246h82v246h82v491z" />
    <glyph glyph-name="uni0237" unicode="&#x237;" horiz-adv-x="563" 
d="M440 901v-1311h-164v-82h-163v82h-164v246h164v-164h163v1065h-245v164h409z" />
    <glyph glyph-name="uni0242" unicode="&#x242;" horiz-adv-x="819" 
d="M543 860h164v-614h-164v-82h-123v-164h-164v287h164v41h123v450h-328v-82h-164v164h164v82h328v-82z" />
    <glyph glyph-name="uni0243" unicode="&#x243;" horiz-adv-x="890" 
d="M758 778h-82v-82h82v-614h-164v-82h-410v369h-123v123h123v901h410v-82h164v-533zM348 1229v-410h246v410h-246zM348 164h246v491h-246v-163h123v-123h-123v-205z" />
    <glyph glyph-name="uni0244" unicode="&#x244;" horiz-adv-x="880" 
d="M809 819v-123h-82v-614h-164v-82h-246v82h-163v614h-82v123h82v574h163v-574h246v574h164v-574h82zM563 164v532h-246v-532h246z" />
    <glyph glyph-name="uni0245" unicode="&#x245;" horiz-adv-x="819" 
d="M614 901h82v-901h-164v901h-81v328h-82v-328h-82v-901h-164v901h82v328h82v164h245v-164h82v-328z" />
    <glyph glyph-name="uni024B" unicode="&#x24b;" horiz-adv-x="808" 
d="M676 -614h123v-123h-205v82h-82v737h-82v-82h-246v82h-82v737h82v82h246v-82h82v82h164v-1515zM430 246h82v409h-82v82h-164v-573h164v82z" />
    <glyph glyph-name="uni024C" unicode="&#x24c;" horiz-adv-x="901" 
d="M758 737h-82v-123h82v-614h-164v614h-246v-614h-164v614h-123v123h123v656h410v-82h164v-574zM348 778h246v451h-246v-451z" />
    <glyph glyph-name="uni0250" unicode="&#x250;" 
d="M553 328h-205v41h-82v-205h205v82h164v-164h-82v-82h-328v82h-123v819h164v-82h82v82h205v-82h123v-409h-123v-82zM266 532h82v-40h164v245h-164v-82h-82v-123z" />
    <glyph glyph-name="uni0251" unicode="&#x251;" horiz-adv-x="798" 
d="M676 123h41v-123h-164v123h-123v-123h-246v82h-82v737h82v82h246v-82h82v82h164v-778zM430 287h82v368h-82v82h-164v-573h164v123z" />
    <glyph glyph-name="uni0252" unicode="&#x252;" horiz-adv-x="798" 
d="M696 819v-737h-82v-82h-245v123h-123v-123h-164v123h41v778h164v-82h82v82h245v-82h82zM287 287h82v-123h163v573h-163v-82h-82v-368z" />
    <glyph glyph-name="uni0253" unicode="&#x253;" horiz-adv-x="808" 
d="M707 819v-737h-82v-82h-246v82h-82v-82h-164v1597h82v82h205v-163h-123v-697h82v82h246v-82h82zM297 246h82v-82h164v573h-164v-82h-82v-409z" />
    <glyph glyph-name="uni0254" unicode="&#x254;" horiz-adv-x="737" 
d="M471 819h164v-737h-164v-82h-246v82h-164v205h164v-123h246v573h-246v-123h-164v205h164v82h246v-82z" />
    <glyph glyph-name="uni0255" unicode="&#x255;" horiz-adv-x="808" 
d="M707 614h-164v123h-246v-409h82v82h328v-328h-164v-82h-246v82h-123v-82h-123v164h82v655h164v82h246v-82h164v-205zM379 246v-82h164v82h-164z" />
    <glyph glyph-name="uni0256" unicode="&#x256;" horiz-adv-x="808" 
d="M676 -123h123v-123h-205v82h-82v246h-82v-82h-246v82h-82v737h82v82h246v-82h82v574h164v-1516zM430 246h82v409h-82v82h-164v-573h164v82z" />
    <glyph glyph-name="uni0257" unicode="&#x257;" horiz-adv-x="808" 
d="M799 1597v-122h-123v-1475h-164v82h-82v-82h-246v82h-82v737h82v82h246v-82h82v697h82v81h205zM512 246v409h-82v82h-164v-573h164v82h82z" />
    <glyph glyph-name="uni0258" unicode="&#x258;" 
d="M512 819h164v-737h-164v-82h-246v82h-164v164h164v-82h246v246h-410v409h164v82h246v-82zM512 573v164h-246v-164h246z" />
    <glyph glyph-name="uni0259" unicode="&#x259;" 
d="M512 819h164v-737h-164v-82h-246v82h-164v410h410v245h-246v-82h-164v164h164v82h246v-82zM512 164v164h-246v-164h246z" />
    <glyph glyph-name="uni025A" unicode="&#x25a;" horiz-adv-x="993" 
d="M881 614h82v-163h-82v-82h-123v123h-82v-410h-164v-82h-246v82h-164v369h123v81h123v41h164v164h-246v-82h-164v164h164v82h246v-82h164v-205h123v-82h82v82zM512 164v287h-123v-82h-123v-205h246z" />
    <glyph glyph-name="uni025B" unicode="&#x25b;" horiz-adv-x="757" 
d="M676 655h-164v82h-246v-205h287v-163h-287v-205h246v82h164v-164h-164v-82h-246v82h-164v328h82v82h-82v327h164v82h246v-82h164v-164z" />
    <glyph glyph-name="uni025C" unicode="&#x25c;" horiz-adv-x="757" 
d="M655 492h-82v-82h82v-328h-163v-82h-246v82h-164v164h164v-82h246v205h-287v163h287v205h-246v-82h-164v164h164v82h246v-82h163v-327z" />
    <glyph glyph-name="uni025D" unicode="&#x25d;" horiz-adv-x="972" 
d="M860 860h82v-184h-82v-62h-123v123h-82v-245h-82v-82h82v-328h-163v-82h-246v82h-164v164h164v-82h246v205h-287v163h287v205h-246v-82h-164v164h164v82h246v-82h122v82h164v-123h82v82z" />
    <glyph glyph-name="uni025E" unicode="&#x25e;" horiz-adv-x="839" 
d="M737 492h-82v-82h82v-328h-164v-82h-245v82h-164v164h-82v409h82v164h164v82h245v-82h164v-327zM328 164h245v205h-204v163h204v205h-245v-82h-82v-409h82v-82z" />
    <glyph glyph-name="uni025F" unicode="&#x25f;" horiz-adv-x="655" 
d="M492 532h122v-122h-122v-820h-164v-82h-164v82h-164v246h164v-164h164v738h-328v122h328v205h-246v164h410v-369z" />
    <glyph glyph-name="uni0260" unicode="&#x260;" horiz-adv-x="819" 
d="M799 1106v-123h-123v-1393h-164v-82h-369v164h369v410h-82v-82h-246v82h-82v737h82v82h246v-82h82v205h82v82h205zM430 246h82v409h-82v82h-164v-573h164v82z" />
    <glyph glyph-name="uni0261" unicode="&#x261;" horiz-adv-x="788" 
d="M512 901h164v-1311h-164v-82h-369v164h369v410h-82v-82h-246v82h-82v737h82v82h246v-82h82v82zM430 246h82v409h-82v82h-164v-573h164v82z" />
    <glyph glyph-name="uni0262" unicode="&#x262;" horiz-adv-x="819" 
d="M696 614h-164v123h-245v-573h245v164h-163v164h327v-410h-164v-82h-245v82h-164v737h164v82h245v-82h164v-205z" />
    <glyph glyph-name="uni0263" unicode="&#x263;" horiz-adv-x="716" 
d="M563 164h-82v-164h123v-369h-123v-123h-245v123h-123v369h123v164h-82v328h-82v409h164v-409h81v-328h82v328h82v409h164v-409h-82v-328zM440 -328v328h-164v-328h164z" />
    <glyph glyph-name="uni0264" unicode="&#x264;" horiz-adv-x="819" 
d="M614 901h164v-123h-82v-164h-82v-163h-82v-123h123v-246h-123v-82h-245v82h-123v246h123v123h-82v163h-82v164h-82v123h164v-82h82v-205h82v-163h82v163h81v205h82v82zM492 164v123h-164v-123h164z" />
    <glyph glyph-name="uni0265" unicode="&#x265;" horiz-adv-x="829" 
d="M532 901h164v-1393h-164v574h-81v-82h-246v82h-82v819h164v-737h164v82h81v655z" />
    <glyph glyph-name="uni0266" unicode="&#x266;" horiz-adv-x="829" 
d="M625 819h82v-819h-164v737h-164v-82h-82v-655h-164v1556h82v82h205v-122h-123v-697h82v82h246v-82z" />
    <glyph glyph-name="uni0267" unicode="&#x267;" horiz-adv-x="829" 
d="M625 819h82v-983h-82v-82h-205v123h123v860h-164v-82h-82v-655h-164v1556h82v82h205v-122h-123v-697h82v82h246v-82z" />
    <glyph glyph-name="uni0268" unicode="&#x268;" 
d="M512 1311v-205h-205v205h205zM758 410h-246v-246h205v-164h-615v164h246v246h-287v122h287v205h-205v164h369v-369h246v-122z" />
    <glyph glyph-name="uni0269" unicode="&#x269;" horiz-adv-x="675" 
d="M655 0h-204v-123h122v-123h-204v82h-82v164h-246v164h246v573h-205v164h369v-737h204v-164z" />
    <glyph glyph-name="uni026A" unicode="&#x26a;" horiz-adv-x="675" 
d="M584 737h-164v-573h164v-164h-492v164h164v573h-164v164h492v-164z" />
    <glyph glyph-name="uni026B" unicode="&#x26b;" horiz-adv-x="696" 
d="M512 573h-82v-409h164v-164h-246v82h-82v614h-82v-123h-123v205h123v82h82v533h164v-656h82v123h123v-205h-123v-82z" />
    <glyph glyph-name="uni026C" unicode="&#x26c;" horiz-adv-x="788" 
d="M625 451h-123v-287h164v-164h-246v82h-82v369h-82v41h-123v81h-82v246h82v123h205v451h164v-779h123v123h123v-205h-123v-81zM338 614v164h-123v-123h41v-41h82z" />
    <glyph glyph-name="uni026D" unicode="&#x26d;" horiz-adv-x="522" 
d="M297 -123h164v-164h-246v82h-82v1598h164v-1516z" />
    <glyph glyph-name="uni026E" unicode="&#x26e;" horiz-adv-x="1095" 
d="M952 573h-123v-163h82v-164h82v-656h-164v-82h-245v82h-164v164h164v-82h245v574h-286v164h123v163h122v164h-491v-573h164v-164h-246v82h-82v1311h164v-492h737v-164h-82v-164z" />
    <glyph glyph-name="uni026F" unicode="&#x26f;" horiz-adv-x="1075" 
d="M778 901h164v-901h-164v82h-82v-82h-245v82h-82v-82h-164v82h-82v819h164v-737h82v82h82v655h163v-737h82v82h82v655z" />
    <glyph glyph-name="uni0270" unicode="&#x270;" horiz-adv-x="1075" 
d="M778 901h164v-1106h-164v287h-82v-82h-245v82h-82v-82h-164v82h-82v819h164v-737h82v82h82v655h163v-737h82v82h82v655z" />
    <glyph glyph-name="uni0271" unicode="&#x271;" horiz-adv-x="1075" 
d="M778 901h164v-1065h-82v-82h-205v123h123v205h-82v-82h-245v82h-82v-82h-164v82h-82v819h164v-737h82v82h82v655h163v-737h82v82h82v655z" />
    <glyph glyph-name="uni0272" unicode="&#x272;" horiz-adv-x="829" 
d="M625 819h82v-819h-164v737h-164v-82h-82v-819h-82v-82h-205v123h123v1024h164v-82h82v82h246v-82z" />
    <glyph glyph-name="uni0273" unicode="&#x273;" horiz-adv-x="829" 
d="M707 -123h122v-123h-204v82h-82v901h-164v-82h-82v-655h-164v901h164v-82h82v82h246v-82h82v-942z" />
    <glyph glyph-name="uni0274" unicode="&#x274;" horiz-adv-x="921" 
d="M625 901h163v-901h-163v123h-82v164h-164v245h-82v-532h-164v901h164v-123h82v-164h164v-245h82v532z" />
    <glyph glyph-name="uni0275" unicode="&#x275;" horiz-adv-x="839" 
d="M707 532h81v-122h-81v-328h-164v-82h-246v82h-164v328h-82v122h82v287h164v82h246v-82h164v-287zM543 532v205h-246v-205h246zM543 164v246h-246v-246h246z" />
    <glyph glyph-name="uni0276" unicode="&#x276;" horiz-adv-x="1105" 
d="M1024 737h-328v-205h287v-163h-287v-205h328v-164h-410v82h-82v-82h-245v82h-164v737h164v82h245v-82h82v82h410v-164zM532 164v573h-245v-573h245z" />
    <glyph glyph-name="uni0278" unicode="&#x278;" horiz-adv-x="942" 
d="M676 819h164v-737h-164v-82h-123v-492h-164v492h-123v82h-164v737h164v82h123v492h164v-492h123v-82zM266 164h123v573h-123v-573zM676 164v573h-123v-573h123z" />
    <glyph glyph-name="uni0279" unicode="&#x279;" horiz-adv-x="696" 
d="M399 901h164v-901h-164v123h-82v-123h-286v164h286v123h82v614z" />
    <glyph glyph-name="uni027A" unicode="&#x27a;" horiz-adv-x="696" 
d="M399 1106h164v-1106h-164v123h-82v-123h-286v164h286v123h82v819z" />
    <glyph glyph-name="uni027B" unicode="&#x27b;" horiz-adv-x="737" 
d="M563 -123h123v-123h-205v82h-82v287h-82v-123h-286v164h286v123h82v614h164v-1024z" />
    <glyph glyph-name="uni027D" unicode="&#x27d;" horiz-adv-x="696" 
d="M297 614v-737h123v-123h-205v82h-82v1065h164v-123h82v123h287v-164h-287v-123h-82z" />
    <glyph glyph-name="uni027E" unicode="&#x27e;" horiz-adv-x="675" 
d="M645 901v-164h-287v-123h-82v-614h-163v655h82v123h122v123h328z" />
    <glyph glyph-name="uni0280" unicode="&#x280;" horiz-adv-x="829" 
d="M707 451h-82v-82h82v-369h-164v328h-246v-328h-164v901h410v-82h164v-368zM297 737v-245h246v245h-246z" />
    <glyph glyph-name="uni0281" unicode="&#x281;" horiz-adv-x="829" 
d="M532 901h164v-901h-409v82h-164v369h82v81h-82v369h164v-328h245v328zM532 164v246h-245v-246h245z" />
    <glyph glyph-name="uni0282" unicode="&#x282;" 
d="M676 655h-164v82h-246v-205h287v-81h123v-369h-164v-82h-246v-123h123v-123h-205v82h-82v410h164v-82h246v205h-287v82h-123v368h164v82h246v-82h164v-164z" />
    <glyph glyph-name="uni0283" unicode="&#x283;" horiz-adv-x="593" 
d="M543 1393v-164h-164v-1639h-82v-82h-246v164h164v1639h82v82h246z" />
    <glyph glyph-name="uni0284" unicode="&#x284;" 
d="M737 1065h-164v164h-122v-697h215v-122h-215v-820h-164v-82h-123v82h-164v246h164v-164h123v738h-205v122h205v779h164v82h122v-82h164v-246z" />
    <glyph glyph-name="uni0288" unicode="&#x288;" horiz-adv-x="604" 
d="M543 737h-205v-860h164v-164h-246v82h-82v942h-123v164h123v246h164v-246h205v-164z" />
    <glyph glyph-name="uni0289" unicode="&#x289;" horiz-adv-x="829" 
d="M778 573v-122h-82v-451h-164v82h-81v-82h-246v82h-82v369h-82v122h82v328h164v-328h245v328h164v-328h82zM532 246v205h-245v-287h164v82h81z" />
    <glyph glyph-name="uni028A" unicode="&#x28a;" horiz-adv-x="839" 
d="M748 737h-123v-82h82v-573h-164v-82h-246v82h-164v573h82v82h-123v164h246v-246h-41v-491h246v491h-41v246h246v-164z" />
    <glyph glyph-name="uni028B" unicode="&#x28b;" horiz-adv-x="819" 
d="M614 901h82v-819h-164v-82h-245v82h-164v819h164v-737h245v655h-122v164h204v-82z" />
    <glyph glyph-name="uni028C" unicode="&#x28c;" 
d="M594 410h82v-410h-164v410h-82v327h-82v-327h-82v-410h-164v410h82v327h82v164h246v-164h82v-327z" />
    <glyph glyph-name="uni028D" unicode="&#x28d;" horiz-adv-x="880" 
d="M686 655h82v-655h-164v573h-82v-573h-164v573h-82v-573h-163v655h82v246h163v-246h164v246h164v-246z" />
    <glyph glyph-name="uni028E" unicode="&#x28e;" 
d="M594 492h82v-492h-164v492h-82v245h-82v-245h-82v-492h-164v492h82v245h82v246h82v246h82v164h164v-164h-82v-246h-82v-164h164v-327z" />
    <glyph glyph-name="uni028F" unicode="&#x28f;" 
d="M553 901h164v-164h-82v-164h-82v-163h-82v-410h-164v410h-82v163h-82v164h-82v164h164v-164h82v-164h164v164h82v164z" />
    <glyph glyph-name="uni0290" unicode="&#x290;" 
d="M666 -82h82v-123h-164v82h-82v123h-410v164h82v123h82v164h82v163h82v123h-328v164h574v-164h-82v-123h-82v-163h-82v-164h-82v-123h328v-246z" />
    <glyph glyph-name="uni0291" unicode="&#x291;" horiz-adv-x="808" 
d="M707 246h41v-164h-82v-82h-123v-82h-123v82h-328v164h82v123h82v164h82v163h82v123h-328v164h574v-164h-82v-123h-82v-163h-82v-164h-82v-123h82v82h82v123h205v-123zM543 164h82v82h-82v-82z" />
    <glyph glyph-name="uni0292" unicode="&#x292;" horiz-adv-x="727" 
d="M584 573h-123v-163h82v-164h82v-656h-164v-82h-246v82h-164v164h164v-82h246v574h-287v164h123v163h123v164h-369v164h615v-164h-82v-164z" />
    <glyph glyph-name="uni0294" unicode="&#x294;" 
d="M502 1311h164v-656h-164v-82h-123v-573h-164v696h164v41h123v492h-410v164h410v-82z" />
    <glyph glyph-name="uni0295" unicode="&#x295;" 
d="M686 1229h-410v-492h123v-41h164v-696h-164v573h-123v82h-163v656h163v82h410v-164z" />
    <glyph glyph-name="uni0298" unicode="&#x298;" horiz-adv-x="839" 
d="M543 1311h164v-1229h-164v-82h-246v82h-164v1229h164v82h246v-82zM543 164v1065h-246v-1065h246zM502 778v-164h-144v164h144z" />
    <glyph glyph-name="uni0299" unicode="&#x299;" horiz-adv-x="829" 
d="M707 492h-82v-82h82v-328h-164v-82h-410v901h410v-82h164v-327zM297 737v-205h246v205h-246zM297 164h246v205h-246v-205z" />
    <glyph glyph-name="uni029B" unicode="&#x29b;" horiz-adv-x="798" 
d="M553 983h225v-123h-102v-246h-164v123h-246v-573h246v164h-164v164h328v-410h-164v-82h-246v82h-164v737h164v82h287v82z" />
    <glyph glyph-name="uni029C" unicode="&#x29c;" horiz-adv-x="839" 
d="M543 901h164v-901h-164v369h-246v-369h-164v901h164v-369h246v369z" />
    <glyph glyph-name="uni029D" unicode="&#x29d;" horiz-adv-x="665" 
d="M451 1311v-205h-205v205h205zM492 0h163v-123h-163v-287h-164v-82h-164v82h-164v410h82v82h246v655h-246v164h410v-901zM328 -328v246h-164v-246h164z" />
    <glyph glyph-name="uni029F" unicode="&#x29f;" horiz-adv-x="686" 
d="M297 164h328v-164h-492v901h164v-737z" />
    <glyph glyph-name="uni02A1" unicode="&#x2a1;" horiz-adv-x="860" 
d="M573 573h-122v-163h286v-123h-286v-287h-164v287h-205v123h205v286h164v41h122v492h-450v164h450v-82h164v-656h-164v-82z" />
    <glyph glyph-name="uni02A2" unicode="&#x2a2;" horiz-adv-x="860" 
d="M778 410v-123h-205v-287h-163v287h-287v123h287v163h-123v82h-164v656h164v82h450v-164h-450v-492h123v-41h163v-286h205z" />
    <glyph glyph-name="uni02A4" unicode="&#x2a4;" horiz-adv-x="1433" 
d="M1290 573h-123v-163h82v-164h82v-656h-164v-82h-286v82h-164v164h164v-82h286v574h-286v164h123v163h122v164h-450v-737h-164v82h-82v-82h-246v82h-82v737h82v82h246v-82h82v574h164v-492h696v-164h-82v-164zM512 246v409h-82v82h-164v-573h164v82h82z" />
    <glyph glyph-name="uni02A7" unicode="&#x2a7;" horiz-adv-x="1085" 
d="M1034 1393v-164h-164v-1639h-82v-82h-245v164h164v1065h-369v-573h164v-164h-246v82h-82v655h-123v164h123v246h164v-246h369v410h81v82h246z" />
    <glyph glyph-name="uni0394" unicode="&#x394;" horiz-adv-x="1239" 
d="M1044 143h82v-143h-1013v143h102v267h82v245h82v246h82v246h82v246h164v-246h92v-246h82v-246h82v-245h81v-267zM328 143h604v62h-51v205h-82v245h-82v246h-62v246h-51v-246h-61v-246h-82v-245h-82v-205h-51v-62z" />
    <glyph glyph-name="Mu" unicode="&#x39c;" horiz-adv-x="942" 
d="M635 1393h164v-1393h-164v819h-82v-327h-164v327h-82v-819h-164v1393h164v-246h82v-246h164v246h82v246z" />
    <glyph glyph-name="uni03A9" unicode="&#x3a9;" horiz-adv-x="942" 
d="M676 164h123v-164h-246v246h41v983h-246v-983h41v-246h-246v164h123v82h-82v1065h164v82h246v-82h164v-1065h-82v-82z" />
    <glyph glyph-name="beta" unicode="&#x3b2;" horiz-adv-x="911" 
d="M788 696v-614h-81v-82h-328v82h-82v-287h-164v1516h164v82h287v-82h164v-533h-82v-82h122zM297 246h82v-82h246v491h-246v164h205v410h-287v-983z" />
    <glyph glyph-name="theta" unicode="&#x3b8;" horiz-adv-x="798" 
d="M522 1311h164v-1229h-164v-82h-246v82h-163v1229h163v82h246v-82zM522 778v451h-246v-451h246zM522 164v450h-246v-450h246z" />
    <glyph glyph-name="uni03BC" unicode="&#x3bc;" horiz-adv-x="839" 
d="M543 901h164v-901h-164v82h-82v-82h-164v-492h-164v1393h164v-737h164v82h82v655z" />
    <glyph glyph-name="uni1E04" unicode="&#x1e04;" horiz-adv-x="849" 
d="M717 778h-82v-82h82v-614h-164v-82h-410v1393h410v-82h164v-533zM307 1229v-410h246v410h-246zM307 164h246v491h-246v-491zM348 -287v164h164v-164h-164z" />
    <glyph glyph-name="uni1E05" unicode="&#x1e05;" horiz-adv-x="808" 
d="M707 819v-737h-82v-82h-246v82h-82v-82h-164v1393h164v-574h82v82h246v-82h82zM297 246h82v-82h164v573h-164v-82h-82v-409zM338 -287v164h164v-164h-164z" />
    <glyph glyph-name="uni1E08" unicode="&#x1e08;" horiz-adv-x="819" 
d="M338 1638v-122h-164v163h164v123h164v123h164v-164h-164v-123h-164zM707 942h-164v287h-246v-1065h246v328h164v-410h-164v-82h-123v-82h164v-164h-82v-123h-205v123h123v82h-82v164h-41v82h-164v1229h164v82h246v-82h164v-369z" />
    <glyph glyph-name="uni1E09" unicode="&#x1e09;" horiz-adv-x="768" 
d="M307 1147v-123h-164v164h164v123h164v123h164v-164h-164v-123h-164zM676 614h-164v123h-246v-573h246v123h164v-205h-164v-82h-123v-82h164v-164h-82v-123h-205v123h123v82h-82v164h-41v82h-164v737h164v82h246v-82h164v-205z" />
    <glyph glyph-name="uni1E0C" unicode="&#x1e0c;" horiz-adv-x="849" 
d="M553 1311h164v-1229h-164v-82h-410v1393h410v-82zM553 164v1065h-246v-1065h246zM348 -287v164h164v-164h-164z" />
    <glyph glyph-name="uni1E0D" unicode="&#x1e0d;" horiz-adv-x="808" 
d="M512 1393h164v-1393h-164v82h-82v-82h-246v82h-82v737h82v82h246v-82h82v574zM512 246v409h-82v82h-164v-573h164v82h82zM307 -287v164h164v-164h-164z" />
    <glyph glyph-name="uni1E0E" unicode="&#x1e0e;" horiz-adv-x="849" 
d="M553 1311h164v-1229h-164v-82h-410v1393h410v-82zM553 164v1065h-246v-1065h246zM143 -287v164h574v-164h-574z" />
    <glyph glyph-name="uni1E0F" unicode="&#x1e0f;" horiz-adv-x="808" 
d="M512 1393h164v-1393h-164v82h-82v-82h-246v82h-82v737h82v82h246v-82h82v574zM512 246v409h-82v82h-164v-573h164v82h82zM143 -287v164h492v-164h-492z" />
    <glyph glyph-name="uni1E12" unicode="&#x1e12;" horiz-adv-x="849" 
d="M553 1311h164v-1229h-164v-82h-410v1393h410v-82zM553 164v1065h-246v-1065h246zM512 -123v-123h164v-164h-164v123h-164v-123h-164v164h164v123h164z" />
    <glyph glyph-name="uni1E13" unicode="&#x1e13;" horiz-adv-x="808" 
d="M512 1393h164v-1393h-164v82h-82v-82h-246v82h-82v737h82v82h246v-82h82v574zM512 246v409h-82v82h-164v-573h164v82h82zM471 -123v-123h164v-164h-164v123h-164v-123h-164v164h164v123h164z" />
    <glyph glyph-name="uni1E14" unicode="&#x1e14;" horiz-adv-x="737" 
d="M471 1966h164v-164h-164v123h-164v123h-164v164h164v-123h164v-123zM143 1516v163h492v-163h-492zM143 1393h492v-164h-328v-410h287v-164h-287v-491h328v-164h-492v1393z" />
    <glyph glyph-name="uni1E15" unicode="&#x1e15;" 
d="M307 1434v122h-164v164h164v-123h164v-122h164v-164h-164v123h-164zM635 1188v-164h-492v164h492zM266 410v-246h246v82h164v-164h-164v-82h-246v82h-164v737h164v82h246v-82h164v-409h-410zM266 737v-164h246v164h-246z" />
    <glyph glyph-name="uni1E16" unicode="&#x1e16;" horiz-adv-x="737" 
d="M471 2212h164v-164h-164v-123h-164v-123h-164v164h164v123h164v123zM143 1516v163h492v-163h-492zM143 1393h492v-164h-328v-410h287v-164h-287v-491h328v-164h-492v1393z" />
    <glyph glyph-name="uni1E17" unicode="&#x1e17;" 
d="M307 1434v-123h-164v164h164v122h164v123h164v-164h-164v-122h-164zM635 1188v-164h-492v164h492zM266 410v-246h246v82h164v-164h-164v-82h-246v82h-164v737h164v82h246v-82h164v-409h-410zM266 737v-164h246v164h-246z" />
    <glyph glyph-name="uni1E1C" unicode="&#x1e1c;" horiz-adv-x="737" 
d="M512 1802h123v-205h-123v-81h-246v81h-123v205h123v-123h246v123zM143 1393h492v-164h-328v-410h287v-164h-287v-491h328v-164h-246v-82h164v-164h-82v-123h-205v123h123v82h-82v164h-164v1393z" />
    <glyph glyph-name="uni1E1D" unicode="&#x1e1d;" 
d="M266 1024v82h-123v205h123v-123h246v123h123v-205h-123v-82h-246zM266 410v-246h246v82h164v-164h-164v-82h-123v-82h164v-164h-123v-123h-164v123h123v82h-82v164h-41v82h-164v737h164v82h246v-82h164v-409h-410zM266 737v-164h246v164h-246z" />
    <glyph glyph-name="uni1E20" unicode="&#x1e20;" horiz-adv-x="839" 
d="M655 1679v-163h-491v163h491zM707 983h-164v246h-246v-1065h246v409h-123v164h287v-655h-164v-82h-246v82h-164v1229h164v82h246v-82h164v-328z" />
    <glyph glyph-name="uni1E21" unicode="&#x1e21;" horiz-adv-x="860" 
d="M655 1188v-164h-491v164h491zM522 246h-246v-82h369v-82h82v-492h-164v-82h-327v82h-164v287h164v-205h327v328h-327v82h-123v246h82v82h-82v409h163v82h246v-82h82v82h205v-164h-123v-409h-164v-82zM276 737v-327h246v327h-246z" />
    <glyph glyph-name="uni1E24" unicode="&#x1e24;" horiz-adv-x="860" 
d="M553 1393h164v-1393h-164v655h-246v-655h-164v1393h164v-574h246v574zM348 -287v164h164v-164h-164z" />
    <glyph glyph-name="uni1E25" unicode="&#x1e25;" horiz-adv-x="829" 
d="M625 819h82v-819h-164v737h-164v-82h-82v-655h-164v1393h164v-574h82v82h246v-82zM338 -287v164h164v-164h-164z" />
    <glyph glyph-name="uni1E2A" unicode="&#x1e2a;" horiz-adv-x="860" 
d="M553 1393h164v-1393h-164v655h-246v-655h-164v1393h164v-574h246v574zM553 -246v123h123v-205h-123v-82h-246v82h-123v205h123v-123h246z" />
    <glyph glyph-name="uni1E2B" unicode="&#x1e2b;" horiz-adv-x="829" 
d="M625 819h82v-819h-164v737h-164v-82h-82v-655h-164v1393h164v-574h82v82h246v-82zM543 -246v123h123v-205h-123v-82h-246v82h-123v205h123v-123h246z" />
    <glyph glyph-name="uni1E2E" unicode="&#x1e2e;" horiz-adv-x="655" 
d="M410 2212h163v-164h-163v-123h-164v-123h-164v164h164v123h164v123zM246 1679v-163h-164v163h164zM410 1516v163h163v-163h-163zM573 1393v-164h-163v-1065h163v-164h-491v164h164v1065h-164v164h491z" />
    <glyph glyph-name="uni1E2F" unicode="&#x1e2f;" horiz-adv-x="675" 
d="M246 1434v-123h-164v164h164v122h164v123h163v-164h-163v-122h-164zM246 1188v-164h-164v164h164zM410 1024v164h163v-164h-163zM451 164h204v-164h-614v164h246v573h-205v164h369v-737z" />
    <glyph glyph-name="uni1E36" unicode="&#x1e36;" horiz-adv-x="706" 
d="M307 164h328v-164h-492v1393h164v-1229zM307 -287v164h164v-164h-164z" />
    <glyph glyph-name="uni1E37" unicode="&#x1e37;" horiz-adv-x="522" 
d="M297 164h164v-164h-246v82h-82v1311h164v-1229zM215 -287v164h164v-164h-164z" />
    <glyph glyph-name="uni1E3A" unicode="&#x1e3a;" horiz-adv-x="706" 
d="M307 164h328v-164h-492v1393h164v-1229zM143 -287v164h492v-164h-492z" />
    <glyph glyph-name="uni1E3B" unicode="&#x1e3b;" horiz-adv-x="522" 
d="M215 0v82h-82v1311h164v-1229h164v-164h-246zM31 -123h491v-164h-491v164z" />
    <glyph glyph-name="uni1E3C" unicode="&#x1e3c;" horiz-adv-x="706" 
d="M307 164h328v-164h-492v1393h164v-1229zM471 -123v-123h164v-164h-164v123h-164v-123h-164v164h164v123h164z" />
    <glyph glyph-name="uni1E3D" unicode="&#x1e3d;" horiz-adv-x="522" 
d="M215 0v82h-82v1311h164v-1229h164v-164h-246zM379 -246h164v-164h-164v123h-164v-123h-164v164h164v123h164v-123z" />
    <glyph glyph-name="uni1E3E" unicode="&#x1e3e;" horiz-adv-x="942" 
d="M389 1638v-122h-164v163h164v123h164v123h164v-164h-164v-123h-164zM635 1393h164v-1393h-164v819h-82v-327h-164v327h-82v-819h-164v1393h164v-246h82v-246h164v246h82v246z" />
    <glyph glyph-name="uni1E3F" unicode="&#x1e3f;" horiz-adv-x="1075" 
d="M461 1147v-123h-164v164h164v123h164v123h163v-164h-163v-123h-164zM870 819h82v-819h-164v737h-81v-82h-82v-655h-164v737h-82v-82h-82v-655h-164v901h164v-82h82v82h246v-82h82v82h163v-82z" />
    <glyph glyph-name="uni1E42" unicode="&#x1e42;" horiz-adv-x="942" 
d="M635 1393h164v-1393h-164v819h-82v-327h-164v327h-82v-819h-164v1393h164v-246h82v-246h164v246h82v246zM389 -287v164h164v-164h-164z" />
    <glyph glyph-name="uni1E43" unicode="&#x1e43;" horiz-adv-x="1075" 
d="M870 819h82v-819h-164v737h-81v-82h-82v-655h-164v737h-82v-82h-82v-655h-164v901h164v-82h82v82h246v-82h82v82h163v-82zM461 -287v164h164v-164h-164z" />
    <glyph glyph-name="uni1E44" unicode="&#x1e44;" horiz-adv-x="942" 
d="M553 1679v-163h-164v163h164zM635 1393h164v-1393h-164v246h-82v246h-164v327h-82v-819h-164v1393h164v-246h82v-246h164v-328h82v820z" />
    <glyph glyph-name="uni1E45" unicode="&#x1e45;" horiz-adv-x="829" 
d="M502 1188v-164h-164v164h164zM625 819h82v-819h-164v737h-164v-82h-82v-655h-164v901h164v-82h82v82h246v-82z" />
    <glyph glyph-name="uni1E46" unicode="&#x1e46;" horiz-adv-x="942" 
d="M635 1393h164v-1393h-164v246h-82v246h-164v327h-82v-819h-164v1393h164v-246h82v-246h164v-328h82v820zM389 -287v164h164v-164h-164z" />
    <glyph glyph-name="uni1E47" unicode="&#x1e47;" horiz-adv-x="829" 
d="M625 819h82v-819h-164v737h-164v-82h-82v-655h-164v901h164v-82h82v82h246v-82zM338 -287v164h164v-164h-164z" />
    <glyph glyph-name="uni1E48" unicode="&#x1e48;" horiz-adv-x="942" 
d="M635 1393h164v-1393h-164v246h-82v246h-164v327h-82v-819h-164v1393h164v-246h82v-246h164v-328h82v820zM225 -287v164h492v-164h-492z" />
    <glyph glyph-name="uni1E49" unicode="&#x1e49;" horiz-adv-x="829" 
d="M625 819h82v-819h-164v737h-164v-82h-82v-655h-164v901h164v-82h82v82h246v-82zM174 -287v164h492v-164h-492z" />
    <glyph glyph-name="uni1E4A" unicode="&#x1e4a;" horiz-adv-x="942" 
d="M635 1393h164v-1393h-164v246h-82v246h-164v327h-82v-819h-164v1393h164v-246h82v-246h164v-328h82v820zM553 -123v-123h164v-164h-164v123h-164v-123h-164v164h164v123h164z" />
    <glyph glyph-name="uni1E4B" unicode="&#x1e4b;" horiz-adv-x="829" 
d="M625 819h82v-819h-164v737h-164v-82h-82v-655h-164v901h164v-82h82v82h246v-82zM338 -123h164v-164h-164v164zM174 -451v164h164v-164h-164zM502 -451v164h164v-164h-164z" />
    <glyph glyph-name="uni1E4C" unicode="&#x1e4c;" horiz-adv-x="839" 
d="M338 2007v-123h-164v164h164v123h164v123h164v-164h-164v-123h-164zM297 1597v-81h-123v163h82v82h205v-82h82v82h123v-164h-82v-81h-205v81h-82zM543 1311h164v-1229h-164v-82h-246v82h-164v1229h164v82h246v-82zM543 164v1065h-246v-1065h246z" />
    <glyph glyph-name="uni1E4D" unicode="&#x1e4d;" 
d="M307 1516v-123h-164v163h164v123h164v123h164v-164h-164v-122h-164zM266 1106v-82h-123v164h82v82h205v-82h82v82h123v-164h-82v-82h-205v82h-82zM512 819h164v-737h-164v-82h-246v82h-164v737h164v82h246v-82zM512 164v573h-246v-573h246z" />
    <glyph glyph-name="uni1E4E" unicode="&#x1e4e;" horiz-adv-x="839" 
d="M338 2048v-164h-164v164h164zM666 2048v-164h-164v164h164zM297 1597v-81h-123v163h82v82h205v-82h82v82h123v-164h-82v-81h-205v81h-82zM543 1311h164v-1229h-164v-82h-246v82h-164v1229h164v82h246v-82zM543 164v1065h-246v-1065h246z" />
    <glyph glyph-name="uni1E4F" unicode="&#x1e4f;" 
d="M307 1556v-163h-164v163h164zM635 1556v-163h-164v163h164zM266 1106v-82h-123v164h82v82h205v-82h82v82h123v-164h-82v-82h-205v82h-82zM512 819h164v-737h-164v-82h-246v82h-164v737h164v82h246v-82zM512 164v573h-246v-573h246z" />
    <glyph glyph-name="uni1E50" unicode="&#x1e50;" horiz-adv-x="839" 
d="M338 1925v123h-164v164h164v-123h164v-123h164v-164h-164v123h-164zM666 1679v-163h-492v163h492zM543 1311h164v-1229h-164v-82h-246v82h-164v1229h164v82h246v-82zM543 164v1065h-246v-1065h246z" />
    <glyph glyph-name="uni1E51" unicode="&#x1e51;" 
d="M307 1434v122h-164v164h164v-123h164v-122h164v-164h-164v123h-164zM635 1188v-164h-492v164h492zM512 819h164v-737h-164v-82h-246v82h-164v737h164v82h246v-82zM512 164v573h-246v-573h246z" />
    <glyph glyph-name="uni1E52" unicode="&#x1e52;" horiz-adv-x="839" 
d="M338 1925v-123h-164v164h164v123h164v123h164v-164h-164v-123h-164zM666 1679v-163h-492v163h492zM543 1311h164v-1229h-164v-82h-246v82h-164v1229h164v82h246v-82zM543 164v1065h-246v-1065h246z" />
    <glyph glyph-name="uni1E53" unicode="&#x1e53;" 
d="M307 1434v-123h-164v164h164v122h164v123h164v-164h-164v-122h-164zM635 1188v-164h-492v164h492zM512 819h164v-737h-164v-82h-246v82h-164v737h164v82h246v-82zM512 164v573h-246v-573h246z" />
    <glyph glyph-name="uni1E5A" unicode="&#x1e5a;" horiz-adv-x="860" 
d="M717 737h-82v-123h82v-614h-164v614h-246v-614h-164v1393h410v-82h164v-574zM307 778h246v451h-246v-451zM348 -287v164h164v-164h-164z" />
    <glyph glyph-name="uni1E5B" unicode="&#x1e5b;" horiz-adv-x="696" 
d="M379 901h287v-164h-287v-123h-82v-614h-164v901h164v-123h82v123zM133 -287v164h164v-164h-164z" />
    <glyph glyph-name="uni1E5E" unicode="&#x1e5e;" horiz-adv-x="860" 
d="M717 737h-82v-123h82v-614h-164v614h-246v-614h-164v1393h410v-82h164v-574zM307 778h246v451h-246v-451zM184 -287v164h492v-164h-492z" />
    <glyph glyph-name="uni1E5F" unicode="&#x1e5f;" horiz-adv-x="696" 
d="M379 901h287v-164h-287v-123h-82v-614h-164v901h164v-123h82v123zM133 -287v164h492v-164h-492z" />
    <glyph glyph-name="uni1E60" unicode="&#x1e60;" horiz-adv-x="819" 
d="M492 1679v-163h-164v163h164zM696 1065h-164v164h-245v-410h286v-82h123v-655h-164v-82h-245v82h-164v287h164v-205h245v491h-286v82h-123v574h164v82h245v-82h164v-246z" />
    <glyph glyph-name="uni1E61" unicode="&#x1e61;" 
d="M471 1188v-164h-164v164h164zM676 655h-164v82h-246v-205h287v-81h123v-369h-164v-82h-246v82h-164v164h164v-82h246v205h-287v82h-123v368h164v82h246v-82h164v-164z" />
    <glyph glyph-name="uni1E62" unicode="&#x1e62;" horiz-adv-x="819" 
d="M696 1065h-164v164h-245v-410h286v-82h123v-655h-164v-82h-245v82h-164v287h164v-205h245v491h-286v82h-123v574h164v82h245v-82h164v-246zM328 -287v164h164v-164h-164z" />
    <glyph glyph-name="uni1E63" unicode="&#x1e63;" 
d="M676 655h-164v82h-246v-205h287v-81h123v-369h-164v-82h-246v82h-164v164h164v-82h246v205h-287v82h-123v368h164v82h246v-82h164v-164zM307 -287v164h164v-164h-164z" />
    <glyph glyph-name="uni1E64" unicode="&#x1e64;" horiz-adv-x="819" 
d="M328 1884v-123h-164v164h164v123h164v123h163v-164h-163v-123h-164zM328 1516v163h164v-163h-164zM696 1065h-164v164h-245v-410h286v-82h123v-655h-164v-82h-245v82h-164v287h164v-205h245v491h-286v82h-123v574h164v82h245v-82h164v-246z" />
    <glyph glyph-name="uni1E65" unicode="&#x1e65;" 
d="M307 1434v-123h-164v164h164v122h164v123h164v-164h-164v-122h-164zM307 1024v164h164v-164h-164zM676 655h-164v82h-246v-205h287v-81h123v-369h-164v-82h-246v82h-164v164h164v-82h246v205h-287v82h-123v368h164v82h246v-82h164v-164z" />
    <glyph glyph-name="uni1E66" unicode="&#x1e66;" horiz-adv-x="819" 
d="M492 2089v-164h-164v164h164zM328 1516v122h-164v164h164v-123h164v123h163v-164h-163v-122h-164zM696 1065h-164v164h-245v-410h286v-82h123v-655h-164v-82h-245v82h-164v287h164v-205h245v491h-286v82h-123v574h164v82h245v-82h164v-246z" />
    <glyph glyph-name="uni1E67" unicode="&#x1e67;" 
d="M471 1597v-163h-164v163h164zM307 1024v123h-164v164h164v-123h164v123h164v-164h-164v-123h-164zM676 655h-164v82h-246v-205h287v-81h123v-369h-164v-82h-246v82h-164v164h164v-82h246v205h-287v82h-123v368h164v82h246v-82h164v-164z" />
    <glyph glyph-name="uni1E68" unicode="&#x1e68;" horiz-adv-x="819" 
d="M492 1679v-163h-164v163h164zM696 1065h-164v164h-245v-410h286v-82h123v-655h-164v-82h-245v82h-164v287h164v-205h245v491h-286v82h-123v574h164v82h245v-82h164v-246zM328 -287v164h164v-164h-164z" />
    <glyph glyph-name="uni1E69" unicode="&#x1e69;" 
d="M471 1188v-164h-164v164h164zM676 655h-164v82h-246v-205h287v-81h123v-369h-164v-82h-246v82h-164v164h164v-82h246v205h-287v82h-123v368h164v82h246v-82h164v-164zM307 -287v164h164v-164h-164z" />
    <glyph glyph-name="uni1E6C" unicode="&#x1e6c;" horiz-adv-x="737" 
d="M696 1393v-164h-245v-1229h-164v1229h-246v164h655zM287 -287v164h164v-164h-164z" />
    <glyph glyph-name="uni1E6D" unicode="&#x1e6d;" horiz-adv-x="604" 
d="M543 737h-205v-573h164v-164h-246v82h-82v655h-123v164h123v246h164v-246h205v-164zM256 -287v164h164v-164h-164z" />
    <glyph glyph-name="uni1E6E" unicode="&#x1e6e;" horiz-adv-x="737" 
d="M696 1393v-164h-245v-1229h-164v1229h-246v164h655zM82 -287v164h573v-164h-573z" />
    <glyph glyph-name="uni1E6F" unicode="&#x1e6f;" horiz-adv-x="604" 
d="M174 82v655h-123v164h123v246h164v-246h205v-164h-205v-573h164v-164h-246v82h-82zM584 -123v-164h-533v164h533z" />
    <glyph glyph-name="uni1E70" unicode="&#x1e70;" horiz-adv-x="737" 
d="M696 1393v-164h-245v-1229h-164v1229h-246v164h655zM451 -123v-123h163v-164h-163v123h-164v-123h-164v164h164v123h164z" />
    <glyph glyph-name="uni1E71" unicode="&#x1e71;" horiz-adv-x="604" 
d="M174 82v655h-123v164h123v246h164v-246h205v-164h-205v-573h164v-164h-246v82h-82zM420 -246h164v-164h-164v123h-164v-123h-164v164h164v123h164v-123z" />
    <glyph glyph-name="uni1E78" unicode="&#x1e78;" horiz-adv-x="860" 
d="M348 1966v-123h-164v164h164v123h164v123h164v-164h-164v-123h-164zM307 1597v-81h-123v163h82v82h205v-82h82v82h123v-164h-82v-81h-205v81h-82zM553 1393h164v-1311h-164v-82h-246v82h-164v1311h164v-1229h246v1229z" />
    <glyph glyph-name="uni1E79" unicode="&#x1e79;" horiz-adv-x="829" 
d="M328 1516v-123h-164v163h164v123h164v123h163v-164h-163v-122h-164zM287 1106v-82h-123v164h82v82h205v-82h81v82h123v-164h-82v-82h-204v82h-82zM532 901h164v-901h-164v82h-81v-82h-246v82h-82v819h164v-737h164v82h81v655z" />
    <glyph glyph-name="uni1E7A" unicode="&#x1e7a;" horiz-adv-x="860" 
d="M348 1966v-164h-164v164h164zM676 1966v-164h-164v164h164zM676 1679v-163h-492v163h492zM553 1393h164v-1311h-164v-82h-246v82h-164v1311h164v-1229h246v1229z" />
    <glyph glyph-name="uni1E7B" unicode="&#x1e7b;" horiz-adv-x="829" 
d="M328 1475v-164h-164v164h164zM655 1475v-164h-163v164h163zM655 1188v-164h-491v164h491zM532 901h164v-901h-164v82h-81v-82h-246v82h-82v819h164v-737h164v82h81v655z" />
    <glyph glyph-name="Wgrave" unicode="&#x1e80;" horiz-adv-x="901" 
d="M369 1638v123h-164v164h164v-123h163v-123h164v-163h-164v122h-163zM778 1393v-983h-82v-410h-164v410h-163v-410h-164v410h-82v983h164v-901h82v409h163v-409h82v901h164z" />
    <glyph glyph-name="wgrave" unicode="&#x1e81;" horiz-adv-x="880" 
d="M358 1147v123h-163v164h163v-123h164v-123h164v-164h-164v123h-164zM768 901v-655h-82v-246h-164v246h-164v-246h-163v246h-82v655h163v-573h82v573h164v-573h82v573h164z" />
    <glyph glyph-name="Wacute" unicode="&#x1e82;" horiz-adv-x="901" 
d="M369 1638v-122h-164v163h164v123h163v123h164v-164h-164v-123h-163zM778 1393v-983h-82v-410h-164v410h-163v-410h-164v410h-82v983h164v-901h82v409h163v-409h82v901h164z" />
    <glyph glyph-name="wacute" unicode="&#x1e83;" horiz-adv-x="880" 
d="M358 1147v-123h-163v164h163v123h164v123h164v-164h-164v-123h-164zM768 901v-655h-82v-246h-164v246h-164v-246h-163v246h-82v655h163v-573h82v573h164v-573h82v573h164z" />
    <glyph glyph-name="Wdieresis" unicode="&#x1e84;" horiz-adv-x="901" 
d="M369 1679v-163h-164v163h164zM696 1679v-163h-164v163h164zM778 1393v-983h-82v-410h-164v410h-163v-410h-164v410h-82v983h164v-901h82v409h163v-409h82v901h164z" />
    <glyph glyph-name="wdieresis" unicode="&#x1e85;" horiz-adv-x="880" 
d="M358 1188v-164h-163v164h163zM686 1188v-164h-164v164h164zM768 901v-655h-82v-246h-164v246h-164v-246h-163v246h-82v655h163v-573h82v573h164v-573h82v573h164z" />
    <glyph glyph-name="uni1E8E" unicode="&#x1e8e;" 
d="M471 1679v-163h-164v163h164zM553 1393h164v-246h-82v-328h-82v-164h-82v-655h-164v655h-82v164h-82v328h-82v246h164v-246h82v-328h164v328h82v246z" />
    <glyph glyph-name="uni1E8F" unicode="&#x1e8f;" horiz-adv-x="798" 
d="M481 1188v-164h-164v164h164zM522 901h164v-491h-82v-287h-82v-287h-82v-246h-123v-82h-204v164h163v205h82v123h-82v164h-81v246h-82v491h163v-491h82v-246h82v246h82v491z" />
    <glyph glyph-name="uni1E92" unicode="&#x1e92;" horiz-adv-x="757" 
d="M317 164h369v-164h-614v164h82v246h82v327h81v246h82v246h-276v164h553v-164h-113v-246h-82v-246h-82v-327h-82v-246zM317 -287v164h164v-164h-164z" />
    <glyph glyph-name="uni1E93" unicode="&#x1e93;" horiz-adv-x="757" 
d="M420 287h-82v-123h328v-164h-574v164h82v123h82v164h82v163h82v123h-328v164h574v-164h-82v-123h-82v-163h-82v-164zM338 -287v164h164v-164h-164z" />
    <glyph glyph-name="uni1E97" unicode="&#x1e97;" horiz-adv-x="604" 
d="M215 1434v-164h-164v164h164zM379 1434h164v-164h-164v164zM338 1147v-246h205v-164h-205v-573h164v-164h-246v82h-82v655h-123v164h123v246h164z" />
    <glyph glyph-name="uni1E9E" unicode="&#x1e9e;" horiz-adv-x="911" 
d="M788 696v-614h-81v-82h-246v82h-82v164h164v-82h82v491h-246v164h205v410h-287v-1229h-164v1311h123v82h328v-82h164v-533h-82v-82h122z" />
    <glyph glyph-name="uni1EA0" unicode="&#x1ea0;" horiz-adv-x="819" 
d="M614 983h82v-983h-164v573h-245v-573h-164v983h82v246h82v164h245v-164h82v-246zM532 737v246h-81v246h-82v-246h-82v-246h245zM328 -287v164h164v-164h-164z" />
    <glyph glyph-name="uni1EA1" unicode="&#x1ea1;" 
d="M553 819h123v-819h-164v82h-82v-82h-205v82h-123v410h123v81h205v-41h82v205h-246v-82h-164v164h123v82h328v-82zM430 246h82v123h-82v41h-164v-246h164v82zM307 -287v164h164v-164h-164z" />
    <glyph glyph-name="uni1EA2" unicode="&#x1ea2;" horiz-adv-x="819" 
d="M471 1597v-81h-184v143h143v123h-143v143h184v-82h102v-246h-102zM614 983h82v-983h-164v573h-245v-573h-164v983h82v246h82v164h245v-164h82v-246zM532 737v246h-81v246h-82v-246h-82v-246h245z" />
    <glyph glyph-name="uni1EA3" unicode="&#x1ea3;" 
d="M451 1106v-82h-185v143h144v123h-144v144h185v-82h102v-246h-102zM553 819h123v-819h-164v82h-82v-82h-205v82h-123v410h123v81h205v-41h82v205h-246v-82h-164v164h123v82h328v-82zM430 246h82v123h-82v41h-164v-246h164v82z" />
    <glyph glyph-name="uni1EA4" unicode="&#x1ea4;" horiz-adv-x="819" 
d="M328 2048v-123h-164v164h164v123h164v123h163v-164h-163v-123h-164zM328 1638v-122h-164v163h164v123h164v-123h163v-163h-163v122h-164zM614 983h82v-983h-164v573h-245v-573h-164v983h82v246h82v164h245v-164h82v-246zM532 737v246h-81v246h-82v-246h-82v-246h245z" />
    <glyph glyph-name="uni1EA5" unicode="&#x1ea5;" 
d="M307 1556v-122h-164v163h164v123h164v123h164v-164h-164v-123h-164zM307 1147v-123h-164v164h164v123h164v-123h164v-164h-164v123h-164zM553 819h123v-819h-164v82h-82v-82h-205v82h-123v410h123v81h205v-41h82v205h-246v-82h-164v164h123v82h328v-82zM430 246h82v123
h-82v41h-164v-246h164v82z" />
    <glyph glyph-name="uni1EA6" unicode="&#x1ea6;" horiz-adv-x="819" 
d="M328 2048v123h-164v164h164v-123h164v-123h163v-164h-163v123h-164zM328 1638v-122h-164v163h164v123h164v-123h163v-163h-163v122h-164zM614 983h82v-983h-164v573h-245v-573h-164v983h82v246h82v164h245v-164h82v-246zM532 737v246h-81v246h-82v-246h-82v-246h245z" />
    <glyph glyph-name="uni1EA7" unicode="&#x1ea7;" 
d="M307 1556v123h-164v164h164v-123h164v-123h164v-163h-164v122h-164zM307 1147v-123h-164v164h164v123h164v-123h164v-164h-164v123h-164zM553 819h123v-819h-164v82h-82v-82h-205v82h-123v410h123v81h205v-41h82v205h-246v-82h-164v164h123v82h328v-82zM430 246h82v123
h-82v41h-164v-246h164v82z" />
    <glyph glyph-name="uni1EA8" unicode="&#x1ea8;" horiz-adv-x="819" 
d="M451 2007v-82h-185v143h144v123h-144v144h185v-82h102v-246h-102zM328 1638v-122h-164v163h164v123h164v-123h163v-163h-163v122h-164zM614 983h82v-983h-164v573h-245v-573h-164v983h82v246h82v164h245v-164h82v-246zM532 737v246h-81v246h-82v-246h-82v-246h245z" />
    <glyph glyph-name="uni1EA9" unicode="&#x1ea9;" 
d="M451 1516v-82h-185v143h144v123h-144v143h185v-82h102v-245h-102zM307 1147v-123h-164v164h164v123h164v-123h164v-164h-164v123h-164zM553 819h123v-819h-164v82h-82v-82h-205v82h-123v410h123v81h205v-41h82v205h-246v-82h-164v164h123v82h328v-82zM430 246h82v123h-82
v41h-164v-246h164v82z" />
    <glyph glyph-name="uni1EAA" unicode="&#x1eaa;" horiz-adv-x="819" 
d="M287 2007v-82h-123v164h82v82h205v-82h81v82h123v-164h-82v-82h-204v82h-82zM328 1638v-122h-164v163h164v123h164v-123h163v-163h-163v122h-164zM614 983h82v-983h-164v573h-245v-573h-164v983h82v246h82v164h245v-164h82v-246zM532 737v246h-81v246h-82v-246h-82v-246
h245z" />
    <glyph glyph-name="uni1EAB" unicode="&#x1eab;" 
d="M266 1516v-82h-123v163h82v82h205v-82h82v82h123v-163h-82v-82h-205v82h-82zM307 1147v-123h-164v164h164v123h164v-123h164v-164h-164v123h-164zM553 819h123v-819h-164v82h-82v-82h-205v82h-123v410h123v81h205v-41h82v205h-246v-82h-164v164h123v82h328v-82zM430 246
h82v123h-82v41h-164v-246h164v82z" />
    <glyph glyph-name="uni1EAC" unicode="&#x1eac;" horiz-adv-x="819" 
d="M328 1638v-122h-164v163h164v123h164v-123h163v-163h-163v122h-164zM614 983h82v-983h-164v573h-245v-573h-164v983h82v246h82v164h245v-164h82v-246zM532 737v246h-81v246h-82v-246h-82v-246h245zM328 -287v164h164v-164h-164z" />
    <glyph glyph-name="uni1EAD" unicode="&#x1ead;" 
d="M307 1147v-123h-164v164h164v123h164v-123h164v-164h-164v123h-164zM553 819h123v-819h-164v82h-82v-82h-205v82h-123v410h123v81h205v-41h82v205h-246v-82h-164v164h123v82h328v-82zM430 246h82v123h-82v41h-164v-246h164v82zM307 -287v164h164v-164h-164z" />
    <glyph glyph-name="uni1EAE" unicode="&#x1eae;" horiz-adv-x="819" 
d="M328 2048v-123h-164v164h164v123h164v123h163v-164h-163v-123h-164zM287 1516v81h-123v205h123v-123h245v123h123v-205h-123v-81h-245zM614 983h82v-983h-164v573h-245v-573h-164v983h82v246h82v164h245v-164h82v-246zM532 737v246h-81v246h-82v-246h-82v-246h245z" />
    <glyph glyph-name="uni1EAF" unicode="&#x1eaf;" 
d="M307 1556v-122h-164v163h164v123h164v123h164v-164h-164v-123h-164zM266 1024v82h-123v205h123v-123h246v123h123v-205h-123v-82h-246zM553 819h123v-819h-164v82h-82v-82h-205v82h-123v410h123v81h205v-41h82v205h-246v-82h-164v164h123v82h328v-82zM430 246h82v123h-82
v41h-164v-246h164v82z" />
    <glyph glyph-name="uni1EB0" unicode="&#x1eb0;" horiz-adv-x="819" 
d="M328 2048v123h-164v164h164v-123h164v-123h163v-164h-163v123h-164zM287 1516v81h-123v205h123v-123h245v123h123v-205h-123v-81h-245zM614 983h82v-983h-164v573h-245v-573h-164v983h82v246h82v164h245v-164h82v-246zM532 737v246h-81v246h-82v-246h-82v-246h245z
M328 -287v164h164v-164h-164z" />
    <glyph glyph-name="uni1EB1" unicode="&#x1eb1;" 
d="M307 1556v123h-164v164h164v-123h164v-123h164v-163h-164v122h-164zM266 1024v82h-123v205h123v-123h246v123h123v-205h-123v-82h-246zM553 819h123v-819h-164v82h-82v-82h-205v82h-123v410h123v81h205v-41h82v205h-246v-82h-164v164h123v82h328v-82zM430 246h82v123h-82
v41h-164v-246h164v82z" />
    <glyph glyph-name="uni1EB2" unicode="&#x1eb2;" horiz-adv-x="819" 
d="M492 2089v-164h-164v164h123v164h-123v164h164v-164h122v-164h-122zM287 1516v81h-123v205h123v-123h245v123h123v-205h-123v-81h-245zM614 983h82v-983h-164v573h-245v-573h-164v983h82v246h82v164h245v-164h82v-246zM532 737v246h-81v246h-82v-246h-82v-246h245z" />
    <glyph glyph-name="uni1EB3" unicode="&#x1eb3;" 
d="M451 1516v-82h-185v143h144v123h-144v143h185v-82h102v-245h-102zM266 1024v82h-123v205h123v-123h246v123h123v-205h-123v-82h-246zM553 819h123v-819h-164v82h-82v-82h-205v82h-123v410h123v81h205v-41h82v205h-246v-82h-164v164h123v82h328v-82zM430 246h82v123h-82
v41h-164v-246h164v82z" />
    <glyph glyph-name="uni1EB4" unicode="&#x1eb4;" horiz-adv-x="819" 
d="M287 1966v-82h-123v164h82v82h205v-82h81v82h123v-164h-82v-82h-204v82h-82zM287 1516v81h-123v205h123v-123h245v123h123v-205h-123v-81h-245zM614 983h82v-983h-164v573h-245v-573h-164v983h82v246h82v164h245v-164h82v-246zM532 737v246h-81v246h-82v-246h-82v-246
h245z" />
    <glyph glyph-name="uni1EB5" unicode="&#x1eb5;" 
d="M266 1516v-82h-123v163h82v82h205v-82h82v82h123v-163h-82v-82h-205v82h-82zM266 1024v82h-123v205h123v-123h246v123h123v-205h-123v-82h-246zM553 819h123v-819h-164v82h-82v-82h-205v82h-123v410h123v81h205v-41h82v205h-246v-82h-164v164h123v82h328v-82zM430 246h82
v123h-82v41h-164v-246h164v82z" />
    <glyph glyph-name="uni1EB6" unicode="&#x1eb6;" horiz-adv-x="819" 
d="M287 1516v81h-123v205h123v-123h245v123h123v-205h-123v-81h-245zM614 983h82v-983h-164v573h-245v-573h-164v983h82v246h82v164h245v-164h82v-246zM532 737v246h-81v246h-82v-246h-82v-246h245zM328 -287v164h164v-164h-164z" />
    <glyph glyph-name="uni1EB7" unicode="&#x1eb7;" 
d="M266 1024v82h-123v205h123v-123h246v123h123v-205h-123v-82h-246zM553 819h123v-819h-164v82h-82v-82h-205v82h-123v410h123v81h205v-41h82v205h-246v-82h-164v164h123v82h328v-82zM430 246h82v123h-82v41h-164v-246h164v82zM307 -287v164h164v-164h-164z" />
    <glyph glyph-name="uni1EB8" unicode="&#x1eb8;" horiz-adv-x="737" 
d="M635 1229h-328v-410h287v-164h-287v-491h328v-164h-492v1393h492v-164zM307 -287v164h164v-164h-164z" />
    <glyph glyph-name="uni1EB9" unicode="&#x1eb9;" 
d="M266 410v-246h246v82h164v-164h-164v-82h-246v82h-164v737h164v82h246v-82h164v-409h-410zM266 737v-164h246v164h-246zM307 -287v164h164v-164h-164z" />
    <glyph glyph-name="uni1EBA" unicode="&#x1eba;" horiz-adv-x="737" 
d="M492 1597v-81h-185v143h144v123h-144v143h185v-82h102v-246h-102zM635 1229h-328v-410h287v-164h-287v-491h328v-164h-492v1393h492v-164z" />
    <glyph glyph-name="uni1EBB" unicode="&#x1ebb;" 
d="M451 1106v-82h-185v143h144v123h-144v144h185v-82h102v-246h-102zM266 410v-246h246v82h164v-164h-164v-82h-246v82h-164v737h164v82h246v-82h164v-409h-410zM266 737v-164h246v164h-246z" />
    <glyph glyph-name="uni1EBC" unicode="&#x1ebc;" horiz-adv-x="737" 
d="M512 1761h123v-164h-82v-81h-205v81h-82v-81h-123v163h82v82h205v-82h82v82zM143 1393h492v-164h-328v-410h287v-164h-287v-491h328v-164h-492v1393z" />
    <glyph glyph-name="uni1EBD" unicode="&#x1ebd;" 
d="M266 1106v-82h-123v164h82v82h205v-82h82v82h123v-164h-82v-82h-205v82h-82zM266 410v-246h246v82h164v-164h-164v-82h-246v82h-164v737h164v82h246v-82h164v-409h-410zM266 737v-164h246v164h-246z" />
    <glyph glyph-name="uni1EBE" unicode="&#x1ebe;" horiz-adv-x="737" 
d="M471 2335h164v-164h-164v-123h-164v-123h-164v164h164v123h164v123zM471 1802v-123h164v-163h-164v122h-164v-122h-164v163h164v123h164zM143 1393h492v-164h-328v-410h287v-164h-287v-491h328v-164h-492v1393z" />
    <glyph glyph-name="uni1EBF" unicode="&#x1ebf;" 
d="M307 1556v-122h-164v163h164v123h164v123h164v-164h-164v-123h-164zM307 1147v-123h-164v164h164v123h164v-123h164v-164h-164v123h-164zM266 410v-246h246v82h164v-164h-164v-82h-246v82h-164v737h164v82h246v-82h164v-409h-410zM266 737v-164h246v164h-246z" />
    <glyph glyph-name="uni1EC0" unicode="&#x1ec0;" horiz-adv-x="737" 
d="M471 2089h164v-164h-164v123h-164v123h-164v164h164v-123h164v-123zM471 1802v-123h164v-163h-164v122h-164v-122h-164v163h164v123h164zM143 1393h492v-164h-328v-410h287v-164h-287v-491h328v-164h-492v1393z" />
    <glyph glyph-name="uni1EC1" unicode="&#x1ec1;" 
d="M307 1556v123h-164v164h164v-123h164v-123h164v-163h-164v122h-164zM307 1147v-123h-164v164h164v123h164v-123h164v-164h-164v123h-164zM266 410v-246h246v82h164v-164h-164v-82h-246v82h-164v737h164v82h246v-82h164v-409h-410zM266 737v-164h246v164h-246z" />
    <glyph glyph-name="uni1EC2" unicode="&#x1ec2;" horiz-adv-x="737" 
d="M451 2007v-82h-185v143h144v123h-144v144h185v-82h102v-246h-102zM471 1679h164v-163h-164v122h-164v-122h-164v163h164v123h164v-123zM143 1393h492v-164h-328v-410h287v-164h-287v-491h328v-164h-492v1393z" />
    <glyph glyph-name="uni1EC3" unicode="&#x1ec3;" 
d="M410 1516v-82h-185v143h144v123h-144v143h185v-82h102v-245h-102zM307 1147v-123h-164v164h164v123h164v-123h164v-164h-164v123h-164zM266 410v-246h246v82h164v-164h-164v-82h-246v82h-164v737h164v82h246v-82h164v-409h-410zM266 737v-164h246v164h-246z" />
    <glyph glyph-name="uni1EC4" unicode="&#x1ec4;" horiz-adv-x="737" 
d="M512 2171h123v-164h-82v-82h-205v82h-82v-82h-123v164h82v82h205v-82h82v82zM471 1802v-123h164v-163h-164v122h-164v-122h-164v163h164v123h164zM143 1393h492v-164h-328v-410h287v-164h-287v-491h328v-164h-492v1393z" />
    <glyph glyph-name="uni1EC5" unicode="&#x1ec5;" 
d="M266 1516v-82h-123v163h82v82h205v-82h82v82h123v-163h-82v-82h-205v82h-82zM307 1147v-123h-164v164h164v123h164v-123h164v-164h-164v123h-164zM266 410v-246h246v82h164v-164h-164v-82h-246v82h-164v737h164v82h246v-82h164v-409h-410zM266 737v-164h246v164h-246z
" />
    <glyph glyph-name="uni1EC6" unicode="&#x1ec6;" horiz-adv-x="737" 
d="M471 1679h164v-163h-164v122h-164v-122h-164v163h164v123h164v-123zM143 1393h492v-164h-328v-410h287v-164h-287v-491h328v-164h-492v1393zM307 -287v164h164v-164h-164z" />
    <glyph glyph-name="uni1EC7" unicode="&#x1ec7;" 
d="M307 1147v-123h-164v164h164v123h164v-123h164v-164h-164v123h-164zM266 410v-246h246v82h164v-164h-164v-82h-246v82h-164v737h164v82h246v-82h164v-409h-410zM266 737v-164h246v164h-246zM307 -287v164h164v-164h-164z" />
    <glyph glyph-name="uni1EC8" unicode="&#x1ec8;" horiz-adv-x="655" 
d="M389 1597v-81h-184v143h143v123h-143v143h184v-82h103v-246h-103zM573 1229h-163v-1065h163v-164h-491v164h164v1065h-164v164h491v-164z" />
    <glyph glyph-name="uni1EC9" unicode="&#x1ec9;" horiz-adv-x="675" 
d="M430 1106v-82h-184v143h143v123h-143v144h184v-82h102v-246h-102zM451 164h204v-164h-614v164h246v573h-205v164h369v-737z" />
    <glyph glyph-name="uni1ECA" unicode="&#x1eca;" horiz-adv-x="655" 
d="M573 1229h-163v-1065h163v-164h-491v164h164v1065h-164v164h491v-164zM246 -287v164h164v-164h-164z" />
    <glyph glyph-name="uni1ECB" unicode="&#x1ecb;" horiz-adv-x="675" 
d="M451 1188v-164h-164v164h164zM451 164h204v-164h-614v164h246v573h-205v164h369v-737z" />
    <glyph glyph-name="uni1ECC" unicode="&#x1ecc;" horiz-adv-x="839" 
d="M543 1311h164v-1229h-164v-82h-246v82h-164v1229h164v82h246v-82zM543 164v1065h-246v-1065h246zM338 -287v164h164v-164h-164z" />
    <glyph glyph-name="uni1ECD" unicode="&#x1ecd;" 
d="M512 819h164v-737h-164v-82h-246v82h-164v737h164v82h246v-82zM512 164v573h-246v-573h246zM307 -287v164h164v-164h-164z" />
    <glyph glyph-name="uni1ECE" unicode="&#x1ece;" horiz-adv-x="839" 
d="M481 1597v-81h-184v143h143v123h-143v143h184v-82h103v-246h-103zM543 1311h164v-1229h-164v-82h-246v82h-164v1229h164v82h246v-82zM543 164v1065h-246v-1065h246z" />
    <glyph glyph-name="uni1ECF" unicode="&#x1ecf;" 
d="M451 1106v-82h-185v143h144v123h-144v144h185v-82h102v-246h-102zM512 819h164v-737h-164v-82h-246v82h-164v737h164v82h246v-82zM512 164v573h-246v-573h246z" />
    <glyph glyph-name="uni1ED0" unicode="&#x1ed0;" horiz-adv-x="839" 
d="M338 2048v-123h-164v164h164v123h164v123h164v-164h-164v-123h-164zM338 1638v-122h-164v163h164v123h164v-123h164v-163h-164v122h-164zM543 1311h164v-1229h-164v-82h-246v82h-164v1229h164v82h246v-82zM543 164v1065h-246v-1065h246z" />
    <glyph glyph-name="uni1ED1" unicode="&#x1ed1;" 
d="M307 1556v-122h-164v163h164v123h164v123h164v-164h-164v-123h-164zM307 1147v-123h-164v164h164v123h164v-123h164v-164h-164v123h-164zM512 819h164v-737h-164v-82h-246v82h-164v737h164v82h246v-82zM512 164v573h-246v-573h246z" />
    <glyph glyph-name="uni1ED2" unicode="&#x1ed2;" horiz-adv-x="839" 
d="M338 2048v123h-164v164h164v-123h164v-123h164v-164h-164v123h-164zM338 1638v-122h-164v163h164v123h164v-123h164v-163h-164v122h-164zM543 1311h164v-1229h-164v-82h-246v82h-164v1229h164v82h246v-82zM543 164v1065h-246v-1065h246z" />
    <glyph glyph-name="uni1ED3" unicode="&#x1ed3;" 
d="M307 1556v123h-164v164h164v-123h164v-123h164v-163h-164v122h-164zM307 1147v-123h-164v164h164v123h164v-123h164v-164h-164v123h-164zM512 819h164v-737h-164v-82h-246v82h-164v737h164v82h246v-82zM512 164v573h-246v-573h246z" />
    <glyph glyph-name="uni1ED4" unicode="&#x1ed4;" horiz-adv-x="839" 
d="M481 2007v-82h-184v143h143v123h-143v144h184v-82h103v-246h-103zM338 1638v-122h-164v163h164v123h164v-123h164v-163h-164v122h-164zM543 1311h164v-1229h-164v-82h-246v82h-164v1229h164v82h246v-82zM543 164v1065h-246v-1065h246z" />
    <glyph glyph-name="uni1ED5" unicode="&#x1ed5;" 
d="M451 1516v-82h-185v143h144v123h-144v143h185v-82h102v-245h-102zM307 1147v-123h-164v164h164v123h164v-123h164v-164h-164v123h-164zM512 819h164v-737h-164v-82h-246v82h-164v737h164v82h246v-82zM512 164v573h-246v-573h246z" />
    <glyph glyph-name="uni1ED6" unicode="&#x1ed6;" horiz-adv-x="839" 
d="M297 2007v-82h-123v164h82v82h205v-82h82v82h123v-164h-82v-82h-205v82h-82zM338 1638v-122h-164v163h164v123h164v-123h164v-163h-164v122h-164zM543 1311h164v-1229h-164v-82h-246v82h-164v1229h164v82h246v-82zM543 164v1065h-246v-1065h246z" />
    <glyph glyph-name="uni1ED7" unicode="&#x1ed7;" 
d="M266 1516v-82h-123v163h82v82h205v-82h82v82h123v-163h-82v-82h-205v82h-82zM307 1147v-123h-164v164h164v123h164v-123h164v-164h-164v123h-164zM512 819h164v-737h-164v-82h-246v82h-164v737h164v82h246v-82zM512 164v573h-246v-573h246z" />
    <glyph glyph-name="uni1ED8" unicode="&#x1ed8;" horiz-adv-x="839" 
d="M338 1638v-122h-164v163h164v123h164v-123h164v-163h-164v122h-164zM543 1311h164v-1229h-164v-82h-246v82h-164v1229h164v82h246v-82zM543 164v1065h-246v-1065h246zM338 -287v164h164v-164h-164z" />
    <glyph glyph-name="uni1ED9" unicode="&#x1ed9;" 
d="M307 1147v-123h-164v164h164v123h164v-123h164v-164h-164v123h-164zM512 819h164v-737h-164v-82h-246v82h-164v737h164v82h246v-82zM512 164v573h-246v-573h246zM307 -287v164h164v-164h-164z" />
    <glyph glyph-name="uni1EDA" unicode="&#x1eda;" horiz-adv-x="839" 
d="M297 1638v123h-123v164h164v-123h123v-123h123v-163h-164v122h-123zM584 1475h204v-123h-81v-1270h-164v-82h-246v82h-164v1229h164v82h287v82zM297 164h246v1065h-246v-1065z" />
    <glyph glyph-name="uni1EDB" unicode="&#x1edb;" horiz-adv-x="798" 
d="M307 1147v-123h-164v164h123v123h123v123h164v-164h-123v-123h-123zM553 983h225v-123h-102v-778h-164v-82h-246v82h-164v737h164v82h287v82zM266 164h246v573h-246v-573z" />
    <glyph glyph-name="uni1EDC" unicode="&#x1edc;" horiz-adv-x="839" 
d="M338 1638v-122h-164v163h123v123h123v123h164v-164h-123v-123h-123zM584 1475h204v-123h-81v-1270h-164v-82h-246v82h-164v1229h164v82h287v82zM297 164h246v1065h-246v-1065z" />
    <glyph glyph-name="uni1EDD" unicode="&#x1edd;" horiz-adv-x="798" 
d="M266 1147v123h-123v164h164v-123h123v-123h123v-164h-164v123h-123zM553 983h225v-123h-102v-778h-164v-82h-246v82h-164v737h164v82h287v82zM266 164h246v573h-246v-573z" />
    <glyph glyph-name="uni1EDE" unicode="&#x1ede;" horiz-adv-x="839" 
d="M440 1597v-81h-184v143h143v123h-143v143h184v-82h103v-246h-103zM584 1475h204v-123h-81v-1270h-164v-82h-246v82h-164v1229h164v82h287v82zM297 164h246v1065h-246v-1065z" />
    <glyph glyph-name="uni1EDF" unicode="&#x1edf;" horiz-adv-x="798" 
d="M451 1106v-82h-185v143h144v123h-144v144h185v-82h102v-246h-102zM553 983h225v-123h-102v-778h-164v-82h-246v82h-164v737h164v82h287v82zM266 164h246v573h-246v-573z" />
    <glyph glyph-name="uni1EE0" unicode="&#x1ee0;" horiz-adv-x="839" 
d="M256 1597v-81h-123v163h82v82h164v-82h82v82h123v-164h-82v-81h-164v81h-82zM584 1475h204v-123h-81v-1270h-164v-82h-246v82h-164v1229h164v82h287v82zM297 164h246v1065h-246v-1065z" />
    <glyph glyph-name="uni1EE1" unicode="&#x1ee1;" horiz-adv-x="798" 
d="M225 1106v-82h-123v164h82v82h164v-82h82v82h123v-164h-82v-82h-164v82h-82zM553 983h225v-123h-102v-778h-164v-82h-246v82h-164v737h164v82h287v82zM266 164h246v573h-246v-573z" />
    <glyph glyph-name="uni1EE2" unicode="&#x1ee2;" horiz-adv-x="839" 
d="M584 1475h204v-123h-81v-1270h-164v-82h-246v82h-164v1229h164v82h287v82zM297 164h246v1065h-246v-1065zM338 -287v164h164v-164h-164z" />
    <glyph glyph-name="uni1EE3" unicode="&#x1ee3;" horiz-adv-x="798" 
d="M553 983h225v-123h-102v-778h-164v-82h-246v82h-164v737h164v82h287v82zM266 164h246v573h-246v-573zM307 -287v164h164v-164h-164z" />
    <glyph glyph-name="uni1EE4" unicode="&#x1ee4;" horiz-adv-x="860" 
d="M553 1393h164v-1311h-164v-82h-246v82h-164v1311h164v-1229h246v1229zM348 -287v164h164v-164h-164z" />
    <glyph glyph-name="uni1EE5" unicode="&#x1ee5;" horiz-adv-x="829" 
d="M532 901h164v-901h-164v82h-81v-82h-246v82h-82v819h164v-737h164v82h81v655zM328 -287v164h164v-164h-164z" />
    <glyph glyph-name="uni1EE6" unicode="&#x1ee6;" horiz-adv-x="860" 
d="M492 1597v-81h-185v143h144v123h-144v143h185v-82h102v-246h-102zM553 1393h164v-1311h-164v-82h-246v82h-164v1311h164v-1229h246v1229z" />
    <glyph glyph-name="uni1EE7" unicode="&#x1ee7;" horiz-adv-x="829" 
d="M471 1106v-82h-184v143h143v123h-143v144h184v-82h102v-246h-102zM532 901h164v-901h-164v82h-81v-82h-246v82h-82v819h164v-737h164v82h81v655z" />
    <glyph glyph-name="uni1EE8" unicode="&#x1ee8;" horiz-adv-x="890" 
d="M266 1638v123h-123v164h164v-123h123v-123h123v-163h-164v122h-123zM809 1556v-307h-92v-1167h-164v-82h-246v82h-164v1311h164v-1229h246v1229h102v163h154z" />
    <glyph glyph-name="uni1EE9" unicode="&#x1ee9;" horiz-adv-x="829" 
d="M297 1147v-123h-164v164h164v123h164v123h164v-164h-164v-123h-164zM788 1065v-307h-92v-758h-164v82h-81v-82h-246v82h-82v819h164v-737h164v82h81v655h103v164h153z" />
    <glyph glyph-name="uni1EEA" unicode="&#x1eea;" horiz-adv-x="890" 
d="M266 1638v123h-123v164h164v-123h123v-123h123v-163h-164v122h-123zM809 1556v-307h-92v-1167h-164v-82h-246v82h-164v1311h164v-1229h246v1229h102v163h154z" />
    <glyph glyph-name="uni1EEB" unicode="&#x1eeb;" horiz-adv-x="829" 
d="M246 1147v123h-123v164h164v-123h123v-123h122v-164h-163v123h-123zM788 1065v-307h-92v-758h-164v82h-81v-82h-246v82h-82v819h164v-737h164v82h81v655h103v164h153z" />
    <glyph glyph-name="uni1EEC" unicode="&#x1eec;" horiz-adv-x="890" 
d="M471 1597v-81h-184v143h143v123h-143v143h184v-82h102v-246h-102zM809 1556v-307h-92v-1167h-164v-82h-246v82h-164v1311h164v-1229h246v1229h102v163h154z" />
    <glyph glyph-name="uni1EED" unicode="&#x1eed;" horiz-adv-x="829" 
d="M471 1106v-82h-184v143h143v123h-143v144h184v-82h102v-246h-102zM788 1065v-307h-92v-758h-164v82h-81v-82h-246v82h-82v819h164v-737h164v82h81v655h103v164h153z" />
    <glyph glyph-name="uni1EEE" unicode="&#x1eee;" horiz-adv-x="890" 
d="M266 1597v-81h-123v163h82v82h164v-82h82v82h123v-164h-82v-81h-164v81h-82zM809 1556v-307h-92v-1167h-164v-82h-246v82h-164v1311h164v-1229h246v1229h102v163h154z" />
    <glyph glyph-name="uni1EEF" unicode="&#x1eef;" horiz-adv-x="829" 
d="M246 1106v-82h-123v164h82v82h164v-82h82v82h122v-164h-81v-82h-164v82h-82zM788 1065v-307h-92v-758h-164v82h-81v-82h-246v82h-82v819h164v-737h164v82h81v655h103v164h153z" />
    <glyph glyph-name="uni1EF0" unicode="&#x1ef0;" horiz-adv-x="890" 
d="M809 1556v-307h-92v-1167h-164v-82h-246v82h-164v1311h164v-1229h246v1229h102v163h154zM348 -287v164h164v-164h-164z" />
    <glyph glyph-name="uni1EF1" unicode="&#x1ef1;" horiz-adv-x="829" 
d="M788 1065v-307h-92v-758h-164v82h-81v-82h-246v82h-82v819h164v-737h164v82h81v655h103v164h153zM328 -287v164h164v-164h-164z" />
    <glyph glyph-name="Ygrave" unicode="&#x1ef2;" 
d="M307 1638v123h-164v164h164v-123h164v-123h164v-163h-164v122h-164zM553 1393h164v-246h-82v-328h-82v-164h-82v-655h-164v655h-82v164h-82v328h-82v246h164v-246h82v-328h164v328h82v246z" />
    <glyph glyph-name="ygrave" unicode="&#x1ef3;" horiz-adv-x="798" 
d="M317 1147v123h-163v164h163v-123h164v-123h164v-164h-164v123h-164zM522 901h164v-491h-82v-287h-82v-287h-82v-246h-123v-82h-204v164h163v205h82v123h-82v164h-81v246h-82v491h163v-491h82v-246h82v246h82v491z" />
    <glyph glyph-name="uni1EF4" unicode="&#x1ef4;" 
d="M553 1393h164v-246h-82v-328h-82v-164h-82v-655h-164v655h-82v164h-82v328h-82v246h164v-246h82v-328h164v328h82v246zM307 -287v164h164v-164h-164z" />
    <glyph glyph-name="uni1EF5" unicode="&#x1ef5;" horiz-adv-x="798" 
d="M686 901v-491h-82v-287h-82v-287h-82v-246h-123v-82h-204v164h163v205h82v123h-82v164h-81v246h-82v491h163v-491h82v-246h82v246h82v491h164zM645 -123h164v-164h-164v164z" />
    <glyph glyph-name="uni1EF6" unicode="&#x1ef6;" 
d="M451 1597v-81h-185v143h144v123h-144v143h185v-82h102v-246h-102zM553 1393h164v-246h-82v-328h-82v-164h-82v-655h-164v655h-82v164h-82v328h-82v246h164v-246h82v-328h164v328h82v246z" />
    <glyph glyph-name="uni1EF7" unicode="&#x1ef7;" horiz-adv-x="798" 
d="M461 1106v-82h-185v143h144v123h-144v144h185v-82h102v-246h-102zM522 901h164v-491h-82v-287h-82v-287h-82v-246h-123v-82h-204v164h163v205h82v123h-82v164h-81v246h-82v491h163v-491h82v-246h82v246h82v491z" />
    <glyph glyph-name="uni1EF8" unicode="&#x1ef8;" 
d="M266 1597v-81h-123v163h82v82h205v-82h82v82h123v-164h-82v-81h-205v81h-82zM553 1393h164v-246h-82v-328h-82v-164h-82v-655h-164v655h-82v164h-82v328h-82v246h164v-246h82v-328h164v328h82v246z" />
    <glyph glyph-name="uni1EF9" unicode="&#x1ef9;" horiz-adv-x="798" 
d="M276 1106v-82h-122v164h82v82h204v-82h82v82h123v-164h-82v-82h-205v82h-82zM522 901h164v-491h-82v-287h-82v-287h-82v-246h-123v-82h-204v164h163v205h82v123h-82v164h-81v246h-82v491h163v-491h82v-246h82v246h82v491z" />
    <glyph glyph-name="endash" unicode="&#x2013;" horiz-adv-x="901" 
d="M164 451v163h573v-163h-573z" />
    <glyph glyph-name="emdash" unicode="&#x2014;" horiz-adv-x="1146" 
d="M164 451v163h819v-163h-819z" />
    <glyph glyph-name="quoteleft" unicode="&#x2018;" horiz-adv-x="491" 
d="M225 1229h123v-205h-205v287h41v82h82v-82h-41v-82z" />
    <glyph glyph-name="quoteright" unicode="&#x2019;" horiz-adv-x="491" 
d="M143 1393h205v-287h-41v-82h-82v82h41v82h-123v205z" />
    <glyph glyph-name="quotesinglbase" unicode="&#x201a;" horiz-adv-x="491" 
d="M143 205h205v-287h-41v-82h-82v82h41v82h-123v205z" />
    <glyph glyph-name="quotedblleft" unicode="&#x201c;" 
d="M225 1311v-82h123v-205h-205v287h41v82h82v-82h-41zM512 1229h123v-205h-205v287h41v82h82v-82h-41v-82z" />
    <glyph glyph-name="quotedblright" unicode="&#x201d;" 
d="M143 1188v205h205v-287h-41v-82h-82v82h41v82h-123zM430 1393h205v-287h-41v-82h-82v82h41v82h-123v205z" />
    <glyph glyph-name="quotedblbase" unicode="&#x201e;" 
d="M143 0v205h205v-287h-41v-82h-82v82h41v82h-123zM430 205h205v-287h-41v-82h-82v82h41v82h-123v205z" />
    <glyph glyph-name="dagger" unicode="&#x2020;" horiz-adv-x="798" 
d="M686 1147v-164h-205v-655h-164v655h-204v164h204v246h164v-246h205z" />
    <glyph glyph-name="daggerdbl" unicode="&#x2021;" horiz-adv-x="798" 
d="M686 983h-205v-246h205v-164h-205v-245h-164v245h-204v164h204v246h-204v164h204v246h164v-246h205v-164z" />
    <glyph glyph-name="bullet" unicode="&#x2022;" horiz-adv-x="573" 
d="M123 287v327h328v-327h-328z" />
    <glyph glyph-name="ellipsis" unicode="&#x2026;" horiz-adv-x="1167" 
d="M133 0v205h205v-205h-205zM481 0v205h205v-205h-205zM829 0v205h205v-205h-205z" />
    <glyph glyph-name="perthousand" unicode="&#x2030;" horiz-adv-x="1904" 
d="M1126 1229v-164h-163v164h-328v-246h-82v-164h-246v82h-164v328h82v164h246v-82h655v82h164v-164h-164zM307 983h164v246h-164v-246zM963 1065v-246h-164v246h164zM799 819v-246h-164v246h164zM471 328v245h164v-245h-164zM1700 492h164v-328h-82v-164h-246v82h-164v164
h-82v-82h-82v-164h-245v82h-164v328h82v163h245v-81h164v-164h82v82h82v163h246v-81zM963 164h163v246h-163v-246zM1536 164h164v246h-164v-246zM307 164v164h164v-164h-164zM143 0v164h164v-164h-164z" />
    <glyph glyph-name="minute" unicode="&#x2032;" horiz-adv-x="409" 
d="M164 1434h143v-185h-82v-164h-123v164h62v185z" />
    <glyph glyph-name="second" unicode="&#x2033;" horiz-adv-x="655" 
d="M164 1249v185h143v-185h-82v-164h-123v164h62zM410 1434h143v-185h-82v-164h-123v164h62v185z" />
    <glyph glyph-name="guilsinglleft" unicode="&#x2039;" horiz-adv-x="593" 
d="M369 512h-82v-123h82v-164h82v-164h-164v164h-82v164h-82v123h82v164h82v164h164v-164h-82v-164z" />
    <glyph glyph-name="guilsinglright" unicode="&#x203a;" horiz-adv-x="593" 
d="M389 512h82v-123h-82v-164h-82v-164h-164v164h82v164h82v123h-82v164h-82v164h164v-164h82v-164z" />
    <glyph glyph-name="fraction" unicode="&#x2044;" horiz-adv-x="819" 
d="M655 1434h164v-164h-82v-164h-82v-164h-82v-164h-81v-164h-82v-163h-82v-164h-82v-164h-82v-164h-164v164h82v164h82v164h82v163h82v164h82v164h82v164h81v164h82v164z" />
    <glyph glyph-name="uni2070" unicode="&#x2070;" horiz-adv-x="624" 
d="M522 1362v-451h-71v-51h-277v51h-72v451h72v61h277v-61h71zM410 1014h-62v82h62v215h-195v-51h61v-82h-61v-205h195v41zM348 1096h-72v82h72v-82z" />
    <glyph glyph-name="uni2074" unicode="&#x2074;" horiz-adv-x="624" 
d="M553 1096v-113h-102v-123h-113v123h-225v389h112v-276h113v327h113v-327h102z" />
    <glyph glyph-name="uni2075" unicode="&#x2075;" horiz-adv-x="624" 
d="M522 1157v-235h-71v-62h-277v62h-72v122h113v-71h195v123h-308v327h410v-123h-297v-81h236v-62h71z" />
    <glyph glyph-name="uni2076" unicode="&#x2076;" horiz-adv-x="624" 
d="M522 1249h-112v62h-195v-123h236v-51h71v-215h-71v-62h-277v62h-72v440h72v61h277v-61h71v-113zM410 1075h-195v-102h195v102z" />
    <glyph glyph-name="uni2077" unicode="&#x2077;" horiz-adv-x="512" 
d="M51 1413h400v-113h-52v-112h-71v-123h-62v-205h-112v205h61v123h72v112h-236v113z" />
    <glyph glyph-name="uni2078" unicode="&#x2078;" horiz-adv-x="624" 
d="M522 1157h-71v-41h71v-194h-71v-62h-277v62h-72v194h72v41h-72v205h72v61h277v-61h71v-205zM410 1198v113h-195v-113h195zM410 1075h-195v-102h195v102z" />
    <glyph glyph-name="uni2079" unicode="&#x2079;" horiz-adv-x="624" 
d="M522 1362v-440h-71v-62h-277v62h-72v102h113v-51h195v112h-236v52h-72v225h72v61h277v-61h71zM215 1198h195v113h-195v-113z" />
    <glyph glyph-name="Euro" unicode="&#x20ac;" horiz-adv-x="1105" 
d="M963 1147h-164v82h-246v-82h-82v-246h492v-123h-492v-164h451v-122h-451v-246h82v-82h246v82h164v-164h-164v-82h-246v82h-164v164h-82v246h-164v122h164v164h-164v123h164v246h82v164h164v82h246v-82h164v-164z" />
    <glyph glyph-name="trademark" unicode="&#x2122;" horiz-adv-x="1187" 
d="M492 1434v-113h-164v-461h-113v461h-164v113h441zM963 1434h102v-574h-102v225h-93v-122h-102v122h-92v-225h-103v574h103v-123h92v-103h102v103h93v123z" />
    <glyph glyph-name="arrowleft" unicode="&#x2190;" horiz-adv-x="1740" 
d="M1577 655h-1106v-82h123v-122h123v-123h123v-164h-164v123h-123v123h-123v122h-123v123h-123v164h123v123h123v123h123v123h123v123h164v-164h-123v-123h-123v-123h-123v-82h1106v-164z" />
    <glyph glyph-name="arrowup" unicode="&#x2191;" horiz-adv-x="1474" 
d="M1188 901h123v-164h-164v123h-123v123h-123v123h-82v-1106h-164v1106h-82v-123h-122v-123h-123v-123h-164v164h123v123h123v123h122v123h123v123h164v-123h123v-123h123v-123h123v-123z" />
    <glyph glyph-name="arrowright" unicode="&#x2192;" horiz-adv-x="1740" 
d="M1556 819v-164h-122v-123h-123v-122h-123v-123h-123v-123h-164v164h123v123h123v122h123v82h-1106v164h1106v82h-123v123h-123v123h-123v164h164v-123h123v-123h123v-123h123v-123h122z" />
    <glyph glyph-name="arrowdown" unicode="&#x2193;" horiz-adv-x="1474" 
d="M1311 655v-163h-123v-123h-123v-123h-123v-123h-123v-123h-164v123h-123v123h-122v123h-123v123h-123v163h164v-123h123v-122h122v-123h82v1106h164v-1106h82v123h123v122h123v123h164z" />
    <glyph glyph-name="uni2196" unicode="&#x2196;" horiz-adv-x="1515" 
d="M1229 287h123v-164h-164v123h-123v123h-123v123h-123v122h-123v123h-123v123h-122v123h-82v-614h-164v901h860v-164h-573v-82h122v-123h123v-123h123v-123h123v-123h123v-122h123v-123z" />
    <glyph glyph-name="uni2197" unicode="&#x2197;" horiz-adv-x="1515" 
d="M451 1270h860v-901h-164v614h-82v-123h-123v-123h-123v-123h-123v-122h-123v-123h-122v-123h-123v-123h-164v164h123v123h123v122h122v123h123v123h123v123h123v123h123v82h-573v164z" />
    <glyph glyph-name="uni2198" unicode="&#x2198;" horiz-adv-x="1515" 
d="M1147 942h164v-860h-901v164h614v82h-123v123h-123v122h-123v123h-123v123h-122v123h-123v123h-123v164h164v-123h123v-123h122v-123h123v-123h123v-123h123v-122h123v-123h82v573z" />
    <glyph glyph-name="uni2199" unicode="&#x2199;" horiz-adv-x="1515" 
d="M1352 1229v-164h-123v-123h-123v-123h-123v-123h-123v-123h-123v-122h-123v-123h-122v-82h614v-164h-901v860h164v-573h82v123h122v122h123v123h123v123h123v123h123v123h123v123h164z" />
    <glyph glyph-name="partialdiff" unicode="&#x2202;" horiz-adv-x="860" 
d="M655 983h82v-901h-164v-82h-286v82h-164v655h164v82h205v-82h81v246h-81v123h-123v123h-164v164h164v-123h163v-123h123v-164zM573 164v450h-81v41h-205v-491h286z" />
    <glyph glyph-name="emptyset" unicode="&#x2205;" horiz-adv-x="1187" 
d="M963 655h81v-409h-81v-164h-246v-82h-246v82h-82v-82h-164v246h-82v409h82v164h246v82h246v-82h82v82h164v-246zM307 246h82v82h82v123h82v122h82v82h82v82h-246v-82h-164v-409zM717 246h164v409h-82v-82h-82v-122h-82v-123h-82v-82h-82v-82h246v82z" />
    <glyph glyph-name="product" unicode="&#x220f;" horiz-adv-x="983" 
d="M82 1393h819v-164h-164v-1557h-164v1557h-163v-1557h-164v1557h-164v164z" />
    <glyph glyph-name="summation" unicode="&#x2211;" horiz-adv-x="983" 
d="M901 1229h-573v-164h123v-164h81v-164h82v-123h82v-163h-82v-123h-82v-164h-81v-164h-123v-164h573v-164h-819v164h82v164h82v164h123v164h82v164h81v81h-81v164h-82v164h-123v164h-82v164h-82v164h819v-164z" />
    <glyph glyph-name="minus" unicode="&#x2212;" horiz-adv-x="860" 
d="M143 410v163h574v-163h-574z" />
    <glyph glyph-name="radical" unicode="&#x221a;" horiz-adv-x="1187" 
d="M983 1556h246v-163h-164v-246h-41v-246h-82v-246h-82v-245h-82v-287h-82v-287h-164v205h-163v246h-82v82h-164v163h328v-245h81v-164h82v287h82v245h82v246h82v246h41v246h82v163z" />
    <glyph glyph-name="infinity" unicode="&#x221e;" horiz-adv-x="1597" 
d="M1372 655h82v-409h-82v-164h-368v123h-123v143h-164v-143h-123v-123h-369v164h-82v409h82v164h369v-123h123v-143h164v143h123v123h368v-164zM717 389v123h-164v143h-246v-409h246v143h164zM1044 246h246v409h-246v-143h-163v-123h163v-143z" />
    <glyph glyph-name="integral" unicode="&#x222b;" horiz-adv-x="655" 
d="M655 1393v-164h-163v-410h-82v-1024h-82v-82h-328v164h246v942h82v492h82v82h245z" />
    <glyph glyph-name="approxequal" unicode="&#x2248;" horiz-adv-x="1024" 
d="M635 819h246v-164h-164v-163h-246v163h-82v-163h-246v163h164v164h246v-164h82v164zM635 246v164h246v-164h-164v-164h-246v164h-82v-164h-246v164h164v164h246v-164h82z" />
    <glyph glyph-name="notequal" unicode="&#x2260;" horiz-adv-x="942" 
d="M799 532h-246v-163h246v-164h-328v-205h-164v205h-164v164h246v163h-246v164h328v205h164v-205h164v-164z" />
    <glyph glyph-name="lessequal" unicode="&#x2264;" horiz-adv-x="1024" 
d="M635 737v-82h-246v164h246v82h246v-164h-246zM143 655h246v-163h-246v163zM635 328h-246v164h246v-82h246v-164h-246v82zM143 0v164h738v-164h-738z" />
    <glyph glyph-name="greaterequal" unicode="&#x2265;" horiz-adv-x="1024" 
d="M389 819h246v-164h-246v82h-246v164h246v-82zM635 655h246v-163h-246v163zM389 410v82h246v-164h-246v-82h-246v164h246zM143 0v164h738v-164h-738z" />
    <glyph glyph-name="filledbox" unicode="&#x25a0;" horiz-adv-x="1392" 
d="M164 123v1065h1065v-1065h-1065z" />
    <glyph glyph-name="uni25A1" unicode="&#x25a1;" horiz-adv-x="1392" 
d="M1229 1188v-1065h-1065v1065h1065zM1065 287v737h-737v-737h737z" />
    <glyph glyph-name="triagup" unicode="&#x25b2;" horiz-adv-x="1515" 
d="M1352 266h102v-143h-1393v143h103v164h102v164h103v164h102v164h102v163h103v164h164v-164h112v-163h103v-164h102v-164h103v-164h92v-164z" />
    <glyph glyph-name="uni25B3" unicode="&#x25b3;" horiz-adv-x="1515" 
d="M1352 266h102v-143h-1393v143h103v164h102v164h103v164h102v164h102v163h103v164h164v-164h112v-163h103v-164h102v-164h103v-164h92v-164zM246 266h1024v41h-82v123h-92v164h-103v164h-102v164h-82v163h-92v-163h-82v-164h-103v-164h-102v-164h-102v-123h-82v-41z" />
    <glyph glyph-name="lozenge" unicode="&#x25ca;" horiz-adv-x="1331" 
d="M584 1311v245h164v-245h-164zM420 1065v246h164v-246h-164zM748 1065v246h163v-246h-163zM256 737v328h164v-328h-164zM911 737v328h164v-328h-164zM92 573v164h164v-164h-164zM1075 573v164h164v-164h-164zM256 246v327h164v-327h-164zM911 246v327h164v-327h-164z
M420 0v246h164v-246h-164zM748 0v246h163v-246h-163zM584 -246v246h164v-246h-164z" />
    <glyph glyph-name="circle" unicode="&#x25cb;" horiz-adv-x="1392" 
d="M1188 819h82v-327h-82v-164h-82v-164h-205v-82h-409v82h-205v164h-82v164h-82v327h82v164h82v164h205v82h409v-82h205v-164h82v-164zM1024 492h82v327h-82v164h-123v82h-409v-82h-123v-164h-82v-327h82v-164h123v-82h409v82h123v164z" />
    <glyph glyph-name="uni25CF" unicode="&#x25cf;" horiz-adv-x="1392" 
d="M1188 819h82v-327h-82v-164h-82v-164h-205v-82h-409v82h-205v164h-82v164h-82v327h82v164h82v164h205v82h409v-82h205v-164h82v-164z" />
    <glyph glyph-name="uni2639" unicode="&#x2639;" horiz-adv-x="1802" 
d="M1516 993h81v-573h-81v-246h-164v-133h-246v-82h-410v82h-245v133h-164v246h-82v573h82v236h164v123h245v82h410v-82h246v-123h164v-236zM1352 420h82v573h-82v195h-246v82h-410v-82h-245v-195h-82v-573h82v-215h245v-62h410v62h246v215zM758 963v-185h-185v185h185z
M1044 778v185h185v-185h-185zM1085 666v-72h144v-246h-144v174h-368v-174h-144v246h144v72h368z" />
    <glyph glyph-name="spade" unicode="&#x2660;" horiz-adv-x="1474" 
d="M1229 737h123v-327h-123v-164h-307v82h-103v-164h205v-164h-573v164h204v164h-102v-82h-307v164h-123v327h123v164h123v164h123v164h163v164h164v-164h164v-164h123v-164h123v-164z" />
    <glyph glyph-name="club" unicode="&#x2663;" horiz-adv-x="1474" 
d="M1229 696h123v-286h-123v-164h-307v82h-103v-164h205v-164h-573v164h204v164h-102v-82h-307v164h-123v286h123v164h307v72h-102v317h102v103h369v-103h102v-317h-102v-72h307v-164z" />
    <glyph glyph-name="heart" unicode="&#x2665;" horiz-adv-x="1474" 
d="M1229 1147h123v-410h-123v-164h-123v-163h-123v-164h-164v-164h-164v164h-163v164h-123v163h-123v164h-123v410h123v164h368v-82h82v-82h82v82h82v82h369v-164z" />
    <glyph glyph-name="diamond" unicode="&#x2666;" horiz-adv-x="1372" 
d="M1106 778h143v-164h-143v-204h-143v-205h-185v-205h-184v205h-184v205h-144v204h-143v164h143v205h144v205h184v205h184v-205h185v-205h143v-205z" />
    <glyph glyph-name="uni2C64" unicode="&#x2c64;" horiz-adv-x="860" 
d="M717 737h-82v-123h82v-614h-164v614h-246v-737h123v-123h-205v82h-82v1557h410v-82h164v-574zM307 778h246v451h-246v-451z" />
    <glyph glyph-name="uni2C6D" unicode="&#x2c6d;" horiz-adv-x="849" 
d="M707 123h41v-123h-164v123h-123v-123h-246v82h-82v1229h82v82h246v-82h82v82h164v-1270zM461 287h82v860h-82v82h-164v-1065h164v123z" />
    <glyph glyph-name="uni2C72" unicode="&#x2c72;" horiz-adv-x="901" 
d="M881 1597v-122h-103v-1065h-82v-410h-164v410h-163v-410h-164v410h-82v983h164v-901h82v409h163v-409h82v1024h82v81h185z" />
    <glyph glyph-name="uni2C73" unicode="&#x2c73;" horiz-adv-x="911" 
d="M850 1106v-123h-82v-737h-82v-246h-164v246h-164v-246h-163v246h-82v655h163v-573h82v573h164v-573h82v696h82v82h164z" />
    <glyph glyph-name="uniA78B" unicode="&#xa78b;" horiz-adv-x="348" 
d="M92 1393h164v-369h-41v-287h-123v656z" />
    <glyph glyph-name="uniA78C" unicode="&#xa78c;" horiz-adv-x="348" 
d="M92 1393h164v-328h-41v-246h-123v574z" />
    <glyph glyph-name="uniA78D" unicode="&#xa78d;" horiz-adv-x="819" 
d="M512 1393h164v-1393h-164v573h-82v-81h-246v81h-82v820h164v-738h164v82h82v656z" />
    <glyph glyph-name="uniA7AA" unicode="&#xa7aa;" horiz-adv-x="993" 
d="M686 1393h164v-1393h-164v655h-246v-655h-164v1270h-81v-123h-123v164h82v82h286v-574h246v574z" />
    <glyph glyph-name="uniAB53" unicode="&#xab53;" 
d="M635 328h-82v-164h82v-328h82v-328h-164v328h-82v328h-164v-328h-82v-328h-164v328h82v328h82v164h-82v327h-82v246h164v-246h82v-327h164v327h82v246h164v-246h-82v-327z" />
    <glyph glyph-name="u1F47F" unicode="&#x1f47f;" horiz-adv-x="1802" 
d="M696 -41v82h-245v133h-164v246h-82v1218h123v-143h123v-143h245v82h410v-82h246v143h123v143h122v-1218h-81v-246h-164v-133h-246v-82h-410zM573 819h236v113h-205v41h-153v-113h122v-41zM993 819h236v41h123v113h-154v-41h-205v-113zM614 594h144v143h-144v-143z
M1044 594h144v143h-144v-143zM512 297h143v72h492v-72h143v154h-143v51h-492v-51h-143v-154z" />
    <glyph glyph-name="u1F4A9" unicode="&#x1f4a9;" horiz-adv-x="1720" 
d="M1352 389h164v-307h-164v-82h-983v82h-164v307h164v123h-82v266h164v123h-82v246h163v123h164v164h164v-164h328v-123h164v-246h-82v-123h164v-266h-82v-123zM532 1106v-205h123v82h369v-82h164v205h-328v82h-164v-82h-164zM451 737v-225h122v82h492v-82h205v225h-246v82
h-369v-82h-204zM1352 164v184h-287v82h-492v-82h-204v-184h983z" />
    <glyph glyph-name="u1F600" unicode="&#x1f600;" horiz-adv-x="1802" 
d="M1516 993h81v-573h-81v-246h-164v-133h-246v-82h-410v82h-245v133h-164v246h-82v573h82v236h164v123h245v82h410v-82h246v-123h164v-236zM1352 420h82v573h-82v195h-246v82h-410v-82h-245v-195h-82v-573h82v-215h245v-62h410v62h246v215zM758 963v-185h-185v185h185z
M1229 963v-185h-185v185h185zM1167 573v82h144v-225h-144v-143h-532v143h-143v225h143v-82h532z" />
    <glyph glyph-name="u1F602" unicode="&#x1f602;" horiz-adv-x="1802" 
d="M1516 993h81v-573h-81v-246h-164v-133h-246v-82h-410v82h-245v133h-164v246h-82v573h82v236h164v123h245v82h410v-82h246v-123h164v-236zM1352 420h82v573h-82v195h-246v82h-410v-82h-245v-195h-82v-573h82v-215h245v-62h410v62h246v215zM625 1014v-41h-133v112h102v41
h215v-112h-184zM1178 973v41h-185v112h215v-41h103v-112h-133zM522 727v-31h-123v113h82v-31h41v82h92v72h123v-72h92v-133h-112v72h-82v-72h-113zM1321 778v31h82v-113h-123v31h-113v72h-82v-72h-112v133h92v72h123v-72h92v-82h41zM1167 573v82h144v-225h-144v-143h-532
v143h-143v225h143v-82h532z" />
    <glyph glyph-name="u1F603" unicode="&#x1f603;" horiz-adv-x="1802" 
d="M1516 993h81v-573h-81v-246h-164v-133h-246v-82h-410v82h-245v133h-164v246h-82v573h82v236h164v123h245v82h410v-82h246v-123h164v-236zM1352 420h82v573h-82v195h-246v82h-410v-82h-245v-195h-82v-573h82v-215h245v-62h410v62h246v215zM748 1044v-286h-164v286h164z
M1219 1044v-286h-164v286h164zM1167 573v82h144v-225h-144v-143h-532v143h-143v225h143v-82h532z" />
    <glyph glyph-name="u1F604" unicode="&#x1f604;" horiz-adv-x="1802" 
d="M1516 993h81v-573h-81v-246h-164v-133h-246v-82h-410v82h-245v133h-164v246h-82v573h82v236h164v123h245v82h410v-82h246v-123h164v-236zM1352 420h82v573h-82v195h-246v82h-410v-82h-245v-195h-82v-573h82v-215h245v-62h410v62h246v215zM635 870v-71h-113v133h92v72h123
v-72h92v-133h-112v71h-82zM1085 870v-71h-112v133h92v72h123v-72h92v-133h-113v71h-82zM1167 573v82h144v-225h-144v-143h-532v143h-143v225h143v-82h532z" />
    <glyph glyph-name="u1F605" unicode="&#x1f605;" horiz-adv-x="1802" 
d="M1597 1004h-71v-41h71v-543h-81v-246h-164v-133h-246v-82h-410v82h-245v133h-164v246h-82v573h82v236h164v123h245v82h410v-82h184v-21h51v92h154v-92h72v-112h30v-215zM1382 1219h-41v-154h144v154h-31v112h-72v-112zM1434 420v543h-123v61h-72v164h-133v82h-410v-82
h-245v-195h-82v-573h82v-215h245v-62h410v62h246v215h82zM635 870v-71h-113v133h92v72h123v-72h92v-133h-112v71h-82zM1085 870v-71h-112v133h92v72h123v-72h92v-133h-113v71h-82zM1167 573v82h144v-225h-144v-143h-532v143h-143v225h143v-82h532z" />
    <glyph glyph-name="u1F606" unicode="&#x1f606;" horiz-adv-x="1802" 
d="M1516 993h81v-573h-81v-246h-164v-133h-246v-82h-410v82h-245v133h-164v246h-82v573h82v236h164v123h245v82h410v-82h246v-123h164v-236zM1352 420h82v573h-82v195h-246v82h-410v-82h-245v-195h-82v-573h82v-215h245v-62h410v62h246v215zM686 840v-92h-154v112h123v72
h-123v112h154v-92h133v-112h-133zM1116 748v92h-133v112h133v92h154v-112h-123v-72h123v-112h-154zM1167 573v82h144v-225h-144v-143h-532v143h-143v225h143v-82h532z" />
    <glyph glyph-name="u1F608" unicode="&#x1f608;" horiz-adv-x="1802" 
d="M696 -41v82h-245v133h-164v246h-82v1218h123v-143h123v-143h245v82h410v-82h246v143h123v143h122v-1218h-81v-246h-164v-133h-246v-82h-410zM573 819h236v113h-205v41h-153v-113h122v-41zM993 819h236v41h123v113h-154v-41h-205v-113zM614 594h144v143h-144v-143z
M1044 594h144v143h-144v-143zM655 297h492v51h143v154h-143v-72h-492v72h-143v-154h143v-51z" />
    <glyph glyph-name="u1F609" unicode="&#x1f609;" horiz-adv-x="1802" 
d="M1516 993h81v-573h-81v-246h-164v-133h-246v-82h-410v82h-245v133h-164v246h-82v573h82v236h164v123h245v82h410v-82h246v-123h164v-236zM1352 420h82v573h-82v195h-246v82h-410v-82h-245v-195h-82v-573h82v-215h245v-62h410v62h246v215zM625 1004v-41h-133v112h102v41
h256v-112h-225zM1290 1014v-103h-327v103h327zM594 676v184h184v-184h-184zM1198 788v41h113v-122h-82v-41h-266v122h235zM1126 440v113h144v-164h-144v-92h-450v92h-144v164h144v-113h450z" />
    <glyph glyph-name="u1F60A" unicode="&#x1f60a;" horiz-adv-x="1802" 
d="M1516 993h81v-573h-81v-246h-164v-133h-246v-82h-410v82h-245v133h-164v246h-82v573h82v236h164v123h245v82h410v-82h246v-123h164v-236zM1352 420h82v573h-82v195h-246v82h-410v-82h-245v-195h-82v-573h82v-215h245v-62h410v62h246v215zM635 870v-71h-113v133h92v72h123
v-72h92v-133h-112v71h-82zM1085 870v-71h-112v133h92v72h123v-72h92v-133h-113v71h-82zM532 635h-71v61h-51v62h71v-62h31v62h72v-62h51v-61h-72v61h-31v-61zM1341 758v-62h52v-61h-72v61h-31v-61h-71v61h-52v62h72v-62h31v62h71zM1126 481v113h144v-164h-144v-92h-450v92
h-144v164h144v-113h450z" />
    <glyph glyph-name="u1F60B" unicode="&#x1f60b;" horiz-adv-x="1802" 
d="M1516 993h81v-573h-81v-246h-164v-133h-246v-82h-410v82h-245v133h-164v246h-82v573h82v236h164v123h245v82h410v-82h246v-123h164v-236zM1352 420h82v573h-82v195h-246v82h-410v-82h-245v-195h-82v-573h82v-215h245v-62h410v62h246v215zM635 870v-71h-113v133h92v72h123
v-72h92v-133h-112v71h-82zM1085 870v-71h-112v133h92v72h123v-72h92v-133h-113v71h-82zM1147 502v174h143v-225h-92v-41h92v-144h-143v92h-492v93h-143v225h143v-174h492z" />
    <glyph glyph-name="u1F60C" unicode="&#x1f60c;" horiz-adv-x="1802" 
d="M1516 993h81v-573h-81v-246h-164v-133h-246v-82h-410v82h-245v133h-164v246h-82v573h82v236h164v123h245v82h410v-82h246v-123h164v-236zM1352 420h82v573h-82v195h-246v82h-410v-82h-245v-195h-82v-573h82v-215h245v-62h410v62h246v215zM625 963v-41h-133v112h102v41
h256v-112h-225zM1208 1075v-41h103v-112h-133v41h-226v112h256zM594 686v41h-82v123h113v-41h102v41h113v-123h-82v-41h-164zM1178 809v41h112v-123h-82v-41h-164v41h-81v123h112v-41h103zM1106 492v102h164v-164h-164v-102h-410v102h-164v164h164v-102h410z" />
    <glyph glyph-name="u1F60D" unicode="&#x1f60d;" horiz-adv-x="1802" 
d="M1516 993h81v-573h-81v-246h-164v-133h-246v-82h-410v82h-245v133h-164v246h-82v573h82v236h164v123h245v82h410v-82h246v-123h164v-236zM1352 420h82v573h-82v195h-246v82h-410v-82h-245v-195h-82v-573h82v-215h245v-62h410v62h246v215zM553 778v72h-41v154h133v-52h41
v52h133v-154h-41v-72h-71v-51h-82v51h-72zM1024 778v72h-41v154h133v-52h41v52h133v-154h-41v-72h-71v-51h-82v51h-72zM1167 553v82h144v-205h-144v-143h-532v143h-143v205h143v-82h532z" />
    <glyph glyph-name="u1F60E" unicode="&#x1f60e;" horiz-adv-x="1802" 
d="M1516 993h81v-573h-81v-246h-164v-133h-246v-82h-410v82h-245v133h-164v246h-82v573h82v236h164v123h245v82h410v-82h246v-123h164v-236zM451 1188v-195h389v-41h123v41h389v195h-246v82h-410v-82h-245zM1352 420h82v491h-154v-194h-317v153h-123v-153h-318v194h-153
v-491h82v-215h245v-62h410v62h246v215zM1126 481v113h144v-164h-144v-92h-450v92h-144v164h144v-113h450z" />
    <glyph glyph-name="u1F60F" unicode="&#x1f60f;" horiz-adv-x="1802" 
d="M1516 993h81v-573h-81v-246h-164v-133h-246v-82h-410v82h-245v133h-164v246h-82v573h82v236h164v123h245v82h410v-82h246v-123h164v-236zM1352 420h82v573h-82v195h-246v82h-410v-82h-245v-195h-82v-573h82v-215h245v-62h410v62h246v215zM625 963v-41h-133v112h102v41
h256v-112h-225zM1208 1075v-41h103v-112h-133v41h-226v112h256zM686 635v92h-154v102h267v-194h-113zM1249 635h-112v92h-154v102h266v-194zM1126 440v113h144v-164h-144v-92h-512v143h512z" />
    <glyph glyph-name="u1F610" unicode="&#x1f610;" horiz-adv-x="1802" 
d="M1516 993h81v-573h-81v-246h-164v-133h-246v-82h-410v82h-245v133h-164v246h-82v573h82v236h164v123h245v82h410v-82h246v-123h164v-236zM1352 420h82v573h-82v195h-246v82h-410v-82h-245v-195h-82v-573h82v-215h245v-62h410v62h246v215zM748 983v-246h-164v246h164z
M1219 983v-246h-164v246h164zM532 451v122h738v-122h-738z" />
    <glyph glyph-name="u1F611" unicode="&#x1f611;" horiz-adv-x="1802" 
d="M1516 993h81v-573h-81v-246h-164v-133h-246v-82h-410v82h-245v133h-164v246h-82v573h82v236h164v123h245v82h410v-82h246v-123h164v-236zM1352 420h82v573h-82v195h-246v82h-410v-82h-245v-195h-82v-573h82v-215h245v-62h410v62h246v215zM819 901v-123h-287v123h287z
M983 778v123h287v-123h-287zM532 451v143h738v-143h-738z" />
    <glyph glyph-name="u1F612" unicode="&#x1f612;" horiz-adv-x="1802" 
d="M1516 993h81v-573h-81v-246h-164v-133h-246v-82h-410v82h-245v133h-164v246h-82v573h82v236h164v123h245v82h410v-82h246v-123h164v-236zM1352 420h82v573h-82v195h-246v82h-410v-82h-245v-195h-82v-573h82v-215h245v-62h410v62h246v215zM625 963v-41h-133v92h102v41h256
v-92h-225zM1208 1055v-41h103v-92h-133v41h-226v92h256zM686 645v72h-154v102h267v-174h-113zM983 717v102h266v-174h-112v72h-154zM1075 543v-72h154v-164h-154v92h-348v-92h-154v164h154v72h348z" />
    <glyph glyph-name="u1F614" unicode="&#x1f614;" horiz-adv-x="1802" 
d="M1516 993h81v-573h-81v-246h-164v-133h-246v-82h-410v82h-245v133h-164v246h-82v573h82v236h164v123h245v82h410v-82h246v-123h164v-236zM1352 420h82v573h-82v195h-246v82h-410v-82h-245v-195h-82v-573h82v-215h245v-62h410v62h246v215zM707 901v-41h-215v113h184v41
h174v-113h-143zM1126 1014v-41h185v-113h-215v41h-144v113h174zM758 635v-41h-164v41h-82v123h113v-41h102v41h113v-123h-82zM1178 717v41h112v-123h-82v-41h-164v41h-81v123h112v-41h103zM696 328v123h410v-123h-410z" />
    <glyph glyph-name="u1F616" unicode="&#x1f616;" horiz-adv-x="1802" 
d="M1516 993h81v-573h-81v-246h-164v-133h-246v-82h-410v82h-245v133h-164v246h-82v573h82v236h164v123h245v82h410v-82h246v-123h164v-236zM1352 420h82v573h-82v195h-246v82h-410v-82h-245v-195h-82v-573h82v-215h245v-62h410v62h246v215zM686 727v-92h-154v113h123v71
h-123v113h154v-92h133v-113h-133zM1116 840v92h154v-113h-123v-71h123v-113h-154v92h-133v113h133zM1116 553v-82h144v-164h-144v82h-143v-82h-144v82h-143v-82h-143v164h143v82h143v-82h144v82h143z" />
    <glyph glyph-name="u1F618" unicode="&#x1f618;" horiz-adv-x="1802" 
d="M1516 993h81v-307h-163v307h-82v195h-246v82h-410v-82h-245v-195h-82v-573h82v-215h245v-62h410v62h246v82h164v-113h-164v-133h-246v-82h-410v82h-245v133h-164v246h-82v573h82v236h164v123h245v82h410v-82h246v-123h164v-236zM829 799h-112v71h-82v-71h-113v133h92v72
h123v-72h92v-133zM1280 799h-113v71h-82v-71h-112v133h92v72h123v-72h92v-133zM1085 532h-81v-61h81v-113h-81v-82h-144v113h82v51h-82v123h82v51h-82v113h144v-82h81v-113zM1444 563v62h153v-164h-51v-72h-82v-51h-82v51h-82v72h-51v164h154v-62h41z" />
    <glyph glyph-name="u1F61E" unicode="&#x1f61e;" horiz-adv-x="1802" 
d="M1516 993h81v-573h-81v-246h-164v-133h-246v-82h-410v82h-245v133h-164v246h-82v573h82v236h164v123h245v82h410v-82h246v-123h164v-236zM1352 420h82v573h-82v195h-246v82h-410v-82h-245v-195h-82v-573h82v-215h245v-62h410v62h246v215zM686 696v-41h-194v113h163v41
h195v-113h-164zM1147 809v-41h164v-113h-195v41h-164v113h195zM1055 563v-71h153v-164h-153v92h-307v-92h-154v164h154v71h307z" />
    <glyph glyph-name="u1F620" unicode="&#x1f620;" horiz-adv-x="1802" 
d="M1516 993h81v-573h-81v-246h-164v-133h-246v-82h-410v82h-245v133h-164v246h-82v573h82v236h164v123h245v82h410v-82h246v-123h164v-236zM1352 420h82v573h-82v195h-246v82h-410v-82h-245v-195h-82v-573h82v-215h245v-62h410v62h246v215zM614 819v41h-122v113h153v-41
h205v-113h-236zM1157 932v41h154v-113h-123v-41h-236v113h205zM799 594h-144v143h144v-143zM1147 737v-143h-143v143h143zM1044 522v-61h144v-133h-144v51h-286v-51h-144v133h144v61h286z" />
    <glyph glyph-name="u1F621" unicode="&#x1f621;" horiz-adv-x="1802" 
d="M1516 993h81v-573h-81v-246h-164v-133h-246v-82h-410v82h-245v133h-164v246h-82v573h82v236h164v123h245v82h410v-82h246v-123h164v-236zM1352 420h82v573h-82v195h-246v82h-410v-82h-245v-195h-82v-573h82v-215h245v-62h410v62h246v215zM594 840v41h-102v112h133v-41
h112v62h113v-174h-256zM1178 952v41h133v-112h-103v-41h-256v174h113v-62h113zM655 625v143h144v-143h-144zM1147 768v-143h-143v143h143zM1065 563v-51h143v-205h-143v113h-328v-113h-143v205h143v51h328z" />
    <glyph glyph-name="u1F622" unicode="&#x1f622;" horiz-adv-x="1802" 
d="M1516 993h81v-573h-81v-246h-164v-133h-246v-82h-440v82h-215v133h-164v246h-82v573h82v236h164v123h245v82h410v-82h246v-123h164v-236zM1352 420h82v573h-82v195h-246v82h-410v-82h-245v-195h-82v-573h61v112h72v93h133v-93h450v-61h144v-164h-144v82h-348v-143h-71
v-103h440v62h246v215zM594 1034v41h256v-112h-225v-41h-133v112h102zM1208 1075v-41h103v-112h-133v41h-226v112h256zM573 655v185h185v-185h-185zM1044 655v185h185v-185h-185zM543 532v-112h-41v-113h123v113h-31v112h-51z" />
    <glyph glyph-name="u1F623" unicode="&#x1f623;" horiz-adv-x="1802" 
d="M1516 993h81v-573h-81v-246h-164v-133h-246v-82h-410v82h-245v133h-164v246h-82v573h82v236h164v123h245v82h410v-82h246v-123h164v-236zM1352 420h82v573h-82v195h-246v82h-410v-82h-245v-195h-82v-573h82v-215h245v-62h410v62h246v215zM707 829v-92h-134v113h103v72
h-103v112h134v-92h112v-113h-112zM1096 737v92h-113v113h113v92h133v-112h-103v-72h103v-113h-133zM1106 645v-92h143v-164h-143v113h-410v-113h-143v164h143v92h410z" />
    <glyph glyph-name="u1F625" unicode="&#x1f625;" horiz-adv-x="1802" 
d="M1597 1004h-41v-41h41v-543h-81v-246h-164v-133h-246v-82h-410v82h-245v133h-164v246h-82v573h82v236h164v123h245v82h410v-82h205v92h215v-92h41v-133h30v-215zM1454 1352h-72v-133h-41v-195h144v195h-31v133zM1352 420h82v491h-144v-30h-194v41h-144v112h174v-41h103
v195h-123v82h-410v-82h-245v-195h-82v-573h82v-215h245v-62h410v62h246v215zM707 922v-41h-195v112h164v41h174v-112h-143zM594 655v144h143v-144h-143zM1208 799v-144h-143v144h143zM1075 543v-72h154v-164h-154v92h-348v-92h-154v164h154v72h348z" />
    <glyph glyph-name="u1F626" unicode="&#x1f626;" horiz-adv-x="1802" 
d="M1516 993h81v-573h-81v-246h-164v-133h-246v-82h-410v82h-245v133h-164v246h-82v573h82v236h164v123h245v82h410v-82h246v-123h164v-236zM1352 420h82v573h-82v195h-246v82h-410v-82h-245v-195h-82v-573h82v-215h245v-62h410v62h246v215zM737 922v-164h-143v164h143z
M1208 922v-164h-143v164h143zM1106 614v-61h123v-205h-123v-41h-410v41h-123v205h123v61h410z" />
    <glyph glyph-name="u1F627" unicode="&#x1f627;" horiz-adv-x="1802" 
d="M1516 993h81v-573h-81v-246h-164v-133h-246v-82h-410v82h-245v133h-164v246h-82v573h82v236h164v123h245v82h410v-82h246v-123h164v-236zM1352 420h82v573h-82v195h-246v82h-410v-82h-245v-195h-82v-573h82v-215h245v-62h410v62h246v215zM625 1014v-41h-133v112h102v41
h215v-112h-184zM1208 1126v-41h103v-112h-133v41h-185v112h215zM594 717v164h143v-164h-143zM1208 881v-164h-143v164h143zM1106 594v-62h123v-204h-123v-41h-410v41h-123v204h123v62h410z" />
    <glyph glyph-name="u1F628" unicode="&#x1f628;" horiz-adv-x="1802" 
d="M1516 993h81v-573h-81v-246h-164v-133h-246v-82h-410v82h-245v133h-164v246h-82v573h82v236h164v123h245v82h410v-82h246v-123h164v-236zM1352 420h82v573h-82v195h-82v-144h-82v144h-82v-123h-82v205h-82v-205h-82v205h-82v-205h-82v123h-82v-144h-82v144h-81v-195h-82
v-573h82v-215h245v-62h410v62h246v215zM625 901v-41h-133v103h102v41h215v-103h-184zM1208 1004v-41h103v-103h-133v41h-185v103h215zM594 666v143h143v-143h-143zM1208 809v-143h-143v143h143zM1106 594v-62h123v-204h-123v-41h-410v41h-123v204h123v62h410z" />
    <glyph glyph-name="u1F62B" unicode="&#x1f62b;" horiz-adv-x="1802" 
d="M1516 993h81v-573h-81v-246h-164v-133h-246v-82h-410v82h-245v133h-164v246h-82v573h82v236h164v123h245v82h410v-82h246v-123h164v-236zM1352 420h82v573h-82v195h-246v82h-410v-82h-245v-195h-82v-573h82v-215h245v-62h410v62h246v215zM707 1034v-41h-195v113h164v41
h174v-113h-143zM1126 1147v-41h164v-113h-194v41h-144v113h174zM686 727v-92h-154v113h123v71h-123v113h154v-92h133v-113h-133zM1116 840v92h154v-113h-123v-71h123v-113h-154v92h-133v113h133zM1085 614v-61h164v-246h-164v62h-368v-62h-164v246h164v61h368z" />
    <glyph glyph-name="u1F62D" unicode="&#x1f62d;" horiz-adv-x="1802" 
d="M1516 993h81v-573h-81v-246h-164v-133h-246v-82h-410v82h-245v133h-164v246h-82v573h82v236h164v123h245v82h410v-82h246v-123h164v-236zM1352 420h82v573h-82v195h-246v82h-410v-82h-245v-195h-82v-573h82v-215h51v635h-51v112h215v41h184v-112h-154v-41h-51v-635h51
v-62h410v62h51v635h-51v41h-154v112h185v-41h215v-112h-52v-635h52v215zM799 594v61h205v-61h61v-215h-61v-62h-205v62h-62v215h62z" />
    <glyph glyph-name="u1F62E" unicode="&#x1f62e;" horiz-adv-x="1802" 
d="M1516 993h81v-573h-81v-246h-164v-133h-246v-82h-410v82h-245v133h-164v246h-82v573h82v236h164v123h245v82h410v-82h246v-123h164v-236zM1352 420h82v573h-82v195h-246v82h-410v-82h-245v-195h-82v-573h82v-215h245v-62h410v62h246v215zM737 932v-164h-143v164h143z
M1065 768v164h143v-164h-143zM1065 655v-61h61v-215h-61v-62h-328v62h-61v215h61v61h328z" />
    <glyph glyph-name="u1F62F" unicode="&#x1f62f;" horiz-adv-x="1802" 
d="M1516 993h81v-573h-81v-246h-164v-133h-246v-82h-410v82h-245v133h-164v246h-82v573h82v236h164v123h245v82h410v-82h246v-123h164v-236zM1352 420h82v573h-82v195h-246v82h-410v-82h-245v-195h-82v-573h82v-215h245v-62h410v62h246v215zM625 1014v-41h-133v112h102v41
h215v-112h-184zM1208 1126v-41h103v-112h-133v41h-185v112h215zM737 891v-164h-143v164h143zM1065 727v164h143v-164h-143zM1024 594v-62h61v-174h-61v-61h-246v61h-61v174h61v62h246z" />
    <glyph glyph-name="u1F630" unicode="&#x1f630;" horiz-adv-x="1802" 
d="M1597 1004h-71v-41h71v-543h-81v-246h-164v-133h-246v-82h-410v82h-245v133h-164v246h-82v573h82v236h164v123h245v82h410v-82h184v-21h51v92h154v-92h72v-112h30v-215zM1382 1219h-41v-154h144v154h-31v112h-72v-112zM1352 420h82v522h-123v-20h-215v41h-144v112h174
v-41h113v41h-51v113h-82v-72h-82v154h-82v-154h-82v154h-82v-154h-82v72h-82v-113h-82v113h-81v-195h-82v-573h82v-215h245v-62h410v62h246v215zM707 963v-41h-195v112h164v41h174v-112h-143zM594 696v144h143v-144h-143zM1208 840v-144h-143v144h143zM1085 614v-61h164
v-246h-164v62h-368v-62h-164v246h164v61h368z" />
    <glyph glyph-name="u1F631" unicode="&#x1f631;" horiz-adv-x="1802" 
d="M1516 993h81v-573h-81v-246h-164v-133h-246v-82h-410v82h-245v133h-164v246h-82v573h82v236h164v123h245v82h410v-82h246v-123h164v-236zM1352 420h82v573h-82v195h-246v82h-410v-82h-245v-195h-82v-573h82v-215h245v-62h410v62h246v215zM686 1034v-41h-194v113h163v41
h195v-113h-164zM1147 1147v-41h164v-113h-195v41h-164v113h195zM799 942v-266h-256v266h256zM1260 942v-266h-256v266h256zM707 768v82h-72v-82h72zM1167 768v82h-71v-82h71zM1004 635v-62h61v-286h-61v-62h-205v62h-62v286h62v62h205zM614 614v-143h41v-184h-82v153h-41
v174h82zM1188 471v143h82v-174h-41v-153h-82v184h41z" />
    <glyph glyph-name="u1F633" unicode="&#x1f633;" horiz-adv-x="1802" 
d="M1516 993h81v-573h-81v-246h-164v-133h-246v-82h-410v82h-245v133h-164v246h-82v573h82v236h164v123h245v82h410v-82h246v-123h164v-236zM1352 420h82v573h-82v195h-246v82h-410v-82h-245v-195h-82v-573h82v-215h245v-62h410v62h246v215zM625 1014v-41h-133v112h102v41
h215v-112h-184zM1208 1126v-41h103v-112h-133v41h-185v112h215zM799 891v-266h-256v266h256zM1004 625v266h256v-266h-256zM707 717v82h-72v-82h72zM1096 799v-82h71v82h-71zM614 328v164h574v-164h-574z" />
    <glyph glyph-name="u1F634" unicode="&#x1f634;" horiz-adv-x="1802" 
d="M1434 420v573h163v-573h-81v-246h-164v-133h-246v-82h-410v82h-245v133h-164v246h-82v573h82v236h164v123h245v82h287v-164h-287v-82h-245v-195h-82v-573h82v-215h245v-62h410v62h246v215h82zM1311 1178v-103h-246v103h41v92h72v51h-113v102h246v-102h-41v-92h-72v-51
h113zM1556 1229h-71v-51h112v-103h-245v103h41v92h71v51h-112v102h245v-102h-41v-92zM758 727h-164v41h-82v123h113v-41h102v41h113v-123h-82v-41zM1208 768v-41h-164v41h-81v123h112v-41h103v41h112v-123h-82zM1024 297h-246v61h-61v174h61v62h246v-62h61v-174h-61v-61z
" />
    <glyph glyph-name="u1F641" unicode="&#x1f641;" horiz-adv-x="1802" 
d="M1516 993h81v-573h-81v-246h-164v-133h-246v-82h-410v82h-245v133h-164v246h-82v573h82v236h164v123h245v82h410v-82h246v-123h164v-236zM1352 420h82v573h-82v195h-246v82h-410v-82h-245v-195h-82v-573h82v-215h245v-62h410v62h246v215zM758 942v-184h-185v184h185z
M1229 942v-184h-185v184h185zM1106 625v-93h143v-163h-143v112h-410v-112h-143v163h143v93h410z" />
    <glyph glyph-name="u1F642" unicode="&#x1f642;" horiz-adv-x="1802" 
d="M1516 993h81v-573h-81v-246h-164v-133h-246v-82h-410v82h-245v133h-164v246h-82v573h82v236h164v123h245v82h410v-82h246v-123h164v-236zM1352 420h82v573h-82v195h-246v82h-410v-82h-245v-195h-82v-573h82v-215h245v-62h410v62h246v215zM748 983v-246h-164v246h164z
M1219 983v-246h-164v246h164zM1126 481v113h144v-164h-144v-92h-450v92h-144v164h144v-113h450z" />
    <glyph glyph-name="eth.case" horiz-adv-x="890" 
d="M594 1311h164v-1229h-164v-82h-410v655h-123v123h123v615h410v-82zM594 164v1065h-246v-451h123v-123h-123v-491h246z" />
    <glyph glyph-name="Jdotless" horiz-adv-x="716" 
d="M410 1393h163v-1311h-163v-82h-164v82h-164v328h164v-246h164v1229z" />
    <glyph glyph-name="Shook" horiz-adv-x="819" 
d="M696 1065h-164v164h-245v-410h286v-82h123v-655h-164v-82h-245v-123h123v-123h-205v82h-82v533h164v-205h245v491h-286v82h-123v574h164v82h245v-82h164v-246z" />
    <glyph glyph-name="Tdieresis" horiz-adv-x="737" 
d="M287 1679v-163h-164v163h164zM614 1679v-163h-163v163h163zM696 1393v-164h-245v-1229h-164v1229h-246v164h655z" />
    <glyph glyph-name="Zretroflexhook" 
d="M686 -82h82v-123h-164v82h-82v123h-450v164h82v246h82v327h81v246h82v246h-276v164h553v-164h-113v-246h-82v-246h-82v-327h-82v-246h369v-246z" />
    <glyph glyph-name="Zcurl" horiz-adv-x="808" 
d="M727 287h41v-205h-82v-82h-123v-123h-123v123h-368v164h82v246h82v327h81v246h82v246h-276v164h553v-164h-113v-246h-82v-246h-82v-327h-82v-246h123v123h82v123h205v-123zM563 164h82v123h-82v-123z" />
    <glyph glyph-name="i.loclTRK" horiz-adv-x="675" 
d="M451 1188v-164h-164v164h164zM451 164h204v-164h-614v164h246v573h-205v164h369v-737zM287 -287v164h164v-164h-164z" />
    <glyph glyph-name="a.sc" horiz-adv-x="798" 
d="M604 655h82v-655h-164v328h-246v-328h-163v655h82v246h81v164h246v-164h82v-246zM522 492v163h-82v246h-82v-246h-82v-163h246z" />
    <glyph glyph-name="aacute.sc" horiz-adv-x="798" 
d="M317 1311v-123h-163v164h163v123h164v122h164v-163h-164v-123h-164zM604 655h82v-655h-164v328h-246v-328h-163v655h82v246h81v164h246v-164h82v-246zM522 492v163h-82v246h-82v-246h-82v-163h246z" />
    <glyph glyph-name="abreve.sc" horiz-adv-x="798" 
d="M276 1188v82h-122v205h122v-123h246v123h123v-205h-123v-82h-246zM604 655h82v-655h-164v328h-246v-328h-163v655h82v246h81v164h246v-164h82v-246zM522 492v163h-82v246h-82v-246h-82v-163h246z" />
    <glyph glyph-name="uni1EAF.sc" horiz-adv-x="798" 
d="M317 1720v-123h-163v164h163v123h164v123h164v-164h-164v-123h-164zM276 1188v82h-122v205h122v-123h246v123h123v-205h-123v-82h-246zM604 655h82v-655h-164v328h-246v-328h-163v655h82v246h81v164h246v-164h82v-246zM522 492v163h-82v246h-82v-246h-82v-163h246z" />
    <glyph glyph-name="uni1EB7.sc" horiz-adv-x="798" 
d="M276 1188v82h-122v205h122v-123h246v123h123v-205h-123v-82h-246zM604 655h82v-655h-164v328h-246v-328h-163v655h82v246h81v164h246v-164h82v-246zM522 492v163h-82v246h-82v-246h-82v-163h246zM328 -287v164h164v-164h-164z" />
    <glyph glyph-name="uni1EB1.sc" horiz-adv-x="798" 
d="M522 1761h164v-164h-164v123h-164v123h-163v164h163v-123h164v-123zM276 1188v82h-122v205h122v-123h246v123h123v-205h-123v-82h-246zM604 901v-246h82v-655h-164v328h-246v-328h-163v655h82v246h81v164h246v-164h82zM522 492v163h-82v246h-82v-246h-82v-163h246z
M328 -287v164h164v-164h-164z" />
    <glyph glyph-name="uni1EB3.sc" horiz-adv-x="798" 
d="M461 1679v-82h-185v144h144v123h-144v143h185v-82h102v-246h-102zM276 1188v82h-122v205h122v-123h246v123h123v-205h-123v-82h-246zM604 655h82v-655h-164v328h-246v-328h-163v655h82v246h81v164h246v-164h82v-246zM522 492v163h-82v246h-82v-246h-82v-163h246z" />
    <glyph glyph-name="uni1EB5.sc" horiz-adv-x="798" 
d="M276 1679v-82h-122v164h82v82h204v-82h82v82h123v-164h-82v-82h-205v82h-82zM276 1188v82h-122v205h122v-123h246v123h123v-205h-123v-82h-246zM604 655h82v-655h-164v328h-246v-328h-163v655h82v246h81v164h246v-164h82v-246zM522 492v163h-82v246h-82v-246h-82v-163
h246z" />
    <glyph glyph-name="uni01CE.sc" horiz-adv-x="798" 
d="M317 1188v123h-163v164h163v-123h164v123h164v-164h-164v-123h-164zM604 655h82v-655h-164v328h-246v-328h-163v655h82v246h81v164h246v-164h82v-246zM522 492v163h-82v246h-82v-246h-82v-163h246z" />
    <glyph glyph-name="acircumflex.sc" horiz-adv-x="798" 
d="M317 1311v-123h-163v164h163v123h164v-123h164v-164h-164v123h-164zM604 655h82v-655h-164v328h-246v-328h-163v655h82v246h81v164h246v-164h82v-246zM522 492v163h-82v246h-82v-246h-82v-163h246z" />
    <glyph glyph-name="uni1EA5.sc" horiz-adv-x="798" 
d="M317 1720v-123h-163v164h163v123h164v123h164v-164h-164v-123h-164zM317 1311v-123h-163v164h163v123h164v-123h164v-164h-164v123h-164zM604 655h82v-655h-164v328h-246v-328h-163v655h82v246h81v164h246v-164h82v-246zM522 492v163h-82v246h-82v-246h-82v-163h246z" />
    <glyph glyph-name="uni1EAD.sc" horiz-adv-x="798" 
d="M317 1311v-123h-163v164h163v123h164v-123h164v-164h-164v123h-164zM604 655h82v-655h-164v328h-246v-328h-163v655h82v246h81v164h246v-164h82v-246zM522 492v163h-82v246h-82v-246h-82v-163h246zM328 -287v164h164v-164h-164z" />
    <glyph glyph-name="uni1EA7.sc" horiz-adv-x="798" 
d="M317 1720v123h-163v164h163v-123h164v-123h164v-164h-164v123h-164zM317 1311v-123h-163v164h163v123h164v-123h164v-164h-164v123h-164zM604 655h82v-655h-164v328h-246v-328h-163v655h82v246h81v164h246v-164h82v-246zM522 492v163h-82v246h-82v-246h-82v-163h246z" />
    <glyph glyph-name="uni1EA9.sc" horiz-adv-x="798" 
d="M461 1679v-82h-185v144h144v123h-144v143h185v-82h102v-246h-102zM317 1311v-123h-163v164h163v123h164v-123h164v-164h-164v123h-164zM604 655h82v-655h-164v328h-246v-328h-163v655h82v246h81v164h246v-164h82v-246zM522 492v163h-82v246h-82v-246h-82v-163h246z" />
    <glyph glyph-name="uni1EAB.sc" horiz-adv-x="798" 
d="M276 1679v-82h-122v164h82v82h204v-82h82v82h123v-164h-82v-82h-205v82h-82zM317 1311v-123h-163v164h163v123h164v-123h164v-164h-164v123h-164zM604 655h82v-655h-164v328h-246v-328h-163v655h82v246h81v164h246v-164h82v-246zM522 492v163h-82v246h-82v-246h-82v-163
h246z" />
    <glyph glyph-name="uni0201.sc" horiz-adv-x="798" 
d="M195 1311v123h-82v163h123v-122h81v-123h82v-164h-123v123h-81zM604 1352h82v-164h-123v123h-82v123h-82v163h123v-122h82v-123zM604 901v-246h82v-655h-164v328h-246v-328h-163v655h82v246h81v164h246v-164h82zM522 492v163h-82v246h-82v-246h-82v-163h246z" />
    <glyph glyph-name="adieresis.sc" horiz-adv-x="798" 
d="M317 1352v-164h-163v164h163zM645 1352v-164h-164v164h164zM604 655h82v-655h-164v328h-246v-328h-163v655h82v246h81v164h246v-164h82v-246zM522 492v163h-82v246h-82v-246h-82v-163h246z" />
    <glyph glyph-name="uni01DF.sc" horiz-adv-x="798" 
d="M645 1638v-163h-491v163h491zM317 1352v-164h-163v164h163zM645 1188h-164v164h164v-164zM604 655h82v-655h-164v328h-246v-328h-163v655h82v246h81v164h246v-164h82v-246zM522 492v163h-82v246h-82v-246h-82v-163h246z" />
    <glyph glyph-name="uni1EA1.sc" horiz-adv-x="798" 
d="M604 655h82v-655h-164v328h-246v-328h-163v655h82v246h81v164h246v-164h82v-246zM522 492v163h-82v246h-82v-246h-82v-163h246zM317 -287v164h164v-164h-164z" />
    <glyph glyph-name="agrave.sc" horiz-adv-x="798" 
d="M317 1311v123h-163v163h163v-122h164v-123h164v-164h-164v123h-164zM604 655h82v-655h-164v328h-246v-328h-163v655h82v246h81v164h246v-164h82v-246zM522 492v163h-82v246h-82v-246h-82v-163h246z" />
    <glyph glyph-name="uni1EA3.sc" horiz-adv-x="798" 
d="M461 1270v-82h-185v143h144v123h-144v143h185v-81h102v-246h-102zM604 655h82v-655h-164v328h-246v-328h-163v655h82v246h81v164h246v-164h82v-246zM522 492v163h-82v246h-82v-246h-82v-163h246z" />
    <glyph glyph-name="uni0203.sc" horiz-adv-x="798" 
d="M276 1311v-123h-122v205h122v82h246v-82h123v-205h-123v123h-246zM604 655h82v-655h-164v328h-246v-328h-163v655h82v246h81v164h246v-164h82v-246zM522 492v163h-82v246h-82v-246h-82v-163h246z" />
    <glyph glyph-name="uni0251.sc" horiz-adv-x="829" 
d="M696 123h41v-123h-164v123h-122v-123h-246v82h-82v901h82v82h246v-82h81v82h164v-942zM451 287h81v532h-81v82h-164v-737h164v123z" />
    <glyph glyph-name="uni0252.sc" horiz-adv-x="829" 
d="M707 983v-901h-82v-82h-246v123h-123v-123h-164v123h41v942h164v-82h82v82h246v-82h82zM297 287h82v-123h164v737h-164v-82h-82v-532z" />
    <glyph glyph-name="amacron.sc" horiz-adv-x="798" 
d="M645 1352v-164h-491v164h491zM604 655h82v-655h-164v328h-246v-328h-163v655h82v246h81v164h246v-164h82v-246zM522 492v163h-82v246h-82v-246h-82v-163h246z" />
    <glyph glyph-name="aogonek.sc" horiz-adv-x="798" 
d="M604 655h82v-655h-41v-123h-164v-123h164v-123h-205v123h-123v164h164v82h41v328h-246v-328h-163v655h82v246h81v164h246v-164h82v-246zM276 492h246v163h-82v246h-82v-246h-82v-163z" />
    <glyph glyph-name="aring.sc" horiz-adv-x="798" 
d="M276 1188v82h-81v164h81v82h246v-82h82v-164h-82v-82h-246zM358 1434v-164h82v164h-82zM604 655h82v-655h-164v328h-246v-328h-163v655h82v246h81v164h246v-164h82v-246zM522 492v163h-82v246h-82v-246h-82v-163h246z" />
    <glyph glyph-name="aringacute.sc" horiz-adv-x="798" 
d="M317 1761v-123h-163v164h163v123h164v123h164v-164h-164v-123h-164zM522 1188h-246v82h-81v164h81v82h246v-82h82v-164h-82v-82zM358 1434v-164h82v164h-82zM604 655h82v-655h-164v328h-246v-328h-163v655h82v246h81v164h246v-164h82v-246zM522 492v163h-82v246h-82v-246
h-82v-163h246z" />
    <glyph glyph-name="atilde.sc" horiz-adv-x="798" 
d="M276 1270v-82h-122v164h82v82h204v-82h82v82h123v-164h-82v-82h-205v82h-82zM604 655h82v-655h-164v328h-246v-328h-163v655h82v246h81v164h246v-164h82v-246zM522 492v163h-82v246h-82v-246h-82v-163h246z" />
    <glyph glyph-name="ae.sc" horiz-adv-x="1136" 
d="M1055 901h-328v-287h287v-163h-287v-287h328v-164h-492v410h-276v-410h-164v573h82v328h82v164h768v-164zM563 573v328h-194v-328h194z" />
    <glyph glyph-name="aeacute.sc" horiz-adv-x="1136" 
d="M481 1352v-123h-164v164h164v123h164v122h164v-163h-164v-123h-164zM1055 901h-328v-287h287v-163h-287v-287h328v-164h-492v410h-287v-410h-163v573h82v328h81v164h779v-164zM563 573v328h-205v-328h205z" />
    <glyph glyph-name="b.sc" horiz-adv-x="829" 
d="M707 573h-82v-81h82v-410h-164v-82h-410v1065h410v-82h164v-410zM297 901v-287h246v287h-246zM297 164h246v287h-246v-287z" />
    <glyph glyph-name="uni1E05.sc" horiz-adv-x="829" 
d="M707 573h-82v-81h82v-410h-164v-82h-410v1065h410v-82h164v-410zM297 901v-287h246v287h-246zM297 164h246v287h-246v-287zM338 -287v164h164v-164h-164z" />
    <glyph glyph-name="uni0253.sc" horiz-adv-x="962" 
d="M840 573h-82v-81h82v-410h-164v-82h-410v942h-82v-123h-123v164h82v82h533v-82h164v-410zM430 901v-287h246v287h-246zM430 164h246v287h-246v-287z" />
    <glyph glyph-name="uni0298.sc" horiz-adv-x="819" 
d="M532 983h164v-901h-164v-82h-245v82h-164v901h164v82h245v-82zM532 164v737h-245v-737h245zM492 614v-163h-144v163h144z" />
    <glyph glyph-name="bsmall.sc" horiz-adv-x="829" 
d="M707 573h-82v-81h82v-410h-164v-82h-410v1065h410v-82h164v-410zM297 901v-287h246v287h-246zM297 164h246v287h-246v-287z" />
    <glyph glyph-name="uni0180.sc" horiz-adv-x="829" 
d="M707 573h-82v-81h82v-410h-164v-82h-410v246h-82v123h82v696h410v-82h164v-410zM297 901v-287h246v287h-246zM297 164h246v287h-246v-82h82v-123h-82v-82z" />
    <glyph glyph-name="c.sc" horiz-adv-x="798" 
d="M696 737h-164v164h-245v-737h245v164h164v-246h-164v-82h-245v82h-164v901h164v82h245v-82h164v-246z" />
    <glyph glyph-name="cacute.sc" horiz-adv-x="798" 
d="M328 1311v-123h-164v164h164v123h164v122h163v-163h-163v-123h-164zM696 737h-164v164h-245v-737h245v164h164v-246h-164v-82h-245v82h-164v901h164v82h245v-82h164v-246z" />
    <glyph glyph-name="ccaron.sc" horiz-adv-x="798" 
d="M328 1188v123h-164v164h164v-123h164v123h163v-164h-163v-123h-164zM696 737h-164v164h-245v-737h245v164h164v-246h-164v-82h-245v82h-164v901h164v82h245v-82h164v-246z" />
    <glyph glyph-name="ccedilla.sc" horiz-adv-x="798" 
d="M696 737h-164v164h-245v-737h245v164h164v-246h-164v-82h-122v-82h163v-164h-81v-123h-205v123h123v82h-82v164h-41v82h-164v901h164v82h245v-82h164v-246z" />
    <glyph glyph-name="uni1E09.sc" horiz-adv-x="798" 
d="M328 1311v-123h-164v164h164v123h164v122h163v-163h-163v-123h-164zM696 737h-164v164h-245v-737h245v164h164v-246h-164v-82h-122v-82h163v-164h-81v-123h-205v123h123v82h-82v164h-41v82h-164v901h164v82h245v-82h164v-246z" />
    <glyph glyph-name="ccircumflex.sc" horiz-adv-x="798" 
d="M328 1311v-123h-164v164h164v123h164v-123h163v-164h-163v123h-164zM696 737h-164v164h-245v-737h245v164h164v-246h-164v-82h-245v82h-164v901h164v82h245v-82h164v-246z" />
    <glyph glyph-name="uni0255.sc" horiz-adv-x="819" 
d="M717 737h-164v164h-246v-491h123v82h287v-410h-164v-82h-246v82h-123v-82h-123v246h82v737h164v82h246v-82h164v-246zM430 246h-123v-82h246v164h-123v-82z" />
    <glyph glyph-name="cdotaccent.sc" horiz-adv-x="798" 
d="M492 1352v-164h-164v164h164zM696 737h-164v164h-245v-737h245v164h164v-246h-164v-82h-245v82h-164v901h164v82h245v-82h164v-246z" />
    <glyph glyph-name="uni0188.sc" horiz-adv-x="829" 
d="M563 1147h225v-123h-102v-287h-164v164h-246v-737h246v164h164v-246h-164v-82h-246v82h-163v901h163v82h287v82z" />
    <glyph glyph-name="d.sc" horiz-adv-x="829" 
d="M543 983h164v-901h-164v-82h-410v1065h410v-82zM543 164v737h-246v-737h246z" />
    <glyph glyph-name="eth.sc" horiz-adv-x="870" 
d="M584 983h164v-901h-164v-82h-410v492h-123v122h123v451h410v-82zM584 164v737h-246v-287h123v-122h-123v-328h246z" />
    <glyph glyph-name="dcaron.sc" horiz-adv-x="829" 
d="M338 1188v123h-164v164h164v-123h164v123h164v-164h-164v-123h-164zM543 983h164v-901h-164v-82h-410v1065h410v-82zM543 164v737h-246v-737h246z" />
    <glyph glyph-name="dafrican.sc" horiz-adv-x="870" 
d="M584 983h164v-901h-164v-82h-410v492h-123v122h123v451h410v-82zM584 164v737h-246v-287h123v-122h-123v-328h246z" />
    <glyph glyph-name="uni1E13.sc" horiz-adv-x="829" 
d="M543 983h164v-901h-164v-82h-410v1065h410v-82zM543 164v737h-246v-737h246zM502 -123v-123h164v-164h-164v123h-164v-123h-164v164h164v123h164z" />
    <glyph glyph-name="dcroat.sc" horiz-adv-x="870" 
d="M584 983h164v-901h-164v-82h-410v492h-123v122h123v451h410v-82zM584 164v737h-246v-287h123v-122h-123v-328h246z" />
    <glyph glyph-name="uni1E0D.sc" horiz-adv-x="829" 
d="M543 983h164v-901h-164v-82h-410v1065h410v-82zM543 164v737h-246v-737h246zM338 -287v164h164v-164h-164z" />
    <glyph glyph-name="uni0257.sc" horiz-adv-x="962" 
d="M676 983h164v-901h-164v-82h-410v942h-82v-123h-123v164h82v82h533v-82zM676 164v737h-246v-737h246z" />
    <glyph glyph-name="uni1E0F.sc" horiz-adv-x="829" 
d="M543 983h164v-901h-164v-82h-410v1065h410v-82zM543 164v737h-246v-737h246zM133 -287v164h574v-164h-574z" />
    <glyph glyph-name="e.sc" horiz-adv-x="716" 
d="M625 901h-328v-287h287v-163h-287v-287h328v-164h-492v1065h492v-164z" />
    </font>
</defs>
</svg>
